<svg xmlns="http://www.w3.org/2000/svg" xmlns:xlink="http://www.w3.org/1999/xlink" width="70" height="70" viewBox="0 0 70 70"><defs><style>.a,.b{fill:#008bcc;}.a,.f{opacity:0.1;}.b{stroke:#fff;stroke-width:2px;}.c{fill:#f89521;}.d{fill:#fff;}.e{opacity:0.2;}.e,.f{fill:url(#a);}</style><linearGradient id="a" x1="0.5" x2="0.5" y2="1" gradientUnits="objectBoundingBox"><stop offset="0" stop-color="#fff"/><stop offset="1" stop-color="#fff" stop-opacity="0"/></linearGradient></defs><g transform="translate(-934 -3138)"><circle class="a" cx="35" cy="35" r="35" transform="translate(934 3138)"/><path class="b" d="M1714.5-109.617H1690a11,11,0,0,1-11-11V-138a11,11,0,0,1,11-11h29.5a11,11,0,0,1,11,11v17.382a10.952,10.952,0,0,1-1.231,5.061l.012,0-.033.038a11.056,11.056,0,0,1-3.522,3.967L1714.5-98.9Z" transform="translate(-735.5 3302)"/><path class="c" d="M4,0A4,4,0,1,1,0,4,4,4,0,0,1,4,0Z" transform="translate(955 3168)"/><circle class="c" cx="4" cy="4" r="4" transform="translate(967 3168)"/><circle class="d" cx="4" cy="4" r="4" transform="translate(978 3168)"/><g transform="translate(763)"><ellipse class="e" cx="18" cy="10.5" rx="18" ry="10.5" transform="translate(227.426 3180.928) rotate(-177)"/><ellipse class="f" cx="18" cy="10.5" rx="18" ry="10.5" transform="matrix(-0.695, 0.719, -0.719, -0.695, 223.057, 3165.846)"/></g></g></svg>