<svg xmlns="http://www.w3.org/2000/svg" width="149.629" height="51.136" viewBox="0 0 149.629 51.136"><defs><style>.a{fill:#f89521;}.b{fill:#008bcc;}.c{fill:#f7961d;}</style></defs><g transform="translate(-430.643 -211.124)"><path class="a" d="M456.146,246.725c0,1.144-.52,1.769-1.562,1.769h-5.829a1.4,1.4,0,0,1-1.561-1.561V242.4a1.38,1.38,0,0,0-1.561-1.561h-4.476a1.4,1.4,0,0,0-1.561,1.561v4.528a1.38,1.38,0,0,1-1.561,1.561H432.2c-.989,0-1.561-.625-1.561-1.769V224.656c0-6.557,1.04-13.532,12.751-13.532s12.752,6.975,12.752,13.532Zm-8.953-22.069c0-2.5-.364-3.747-3.8-3.747s-3.8,1.249-3.8,3.747v5.674a1.425,1.425,0,0,0,1.561,1.561h4.476a1.44,1.44,0,0,0,1.561-1.613Z"/><path class="b" d="M481.158,228.317c9.785,0,13.533,3.956,13.533,12.492a11.894,11.894,0,0,1-2.654,7.547c2.134.989,3.7,3.591,3.7,6.817,0,6.454-2.862,9.577-12.648,9.577H470.228a1.424,1.424,0,0,1-1.561-1.561V229.931a1.44,1.44,0,0,1,1.561-1.614Zm1.249,29.043c2.5,0,3.747-.26,3.747-2.706s-1.144-2.811-3.642-2.811h-3.384a1.4,1.4,0,0,0-1.561,1.561V255.8a1.4,1.4,0,0,0,1.561,1.561Zm-.416-13.011c2.5,0,3.747-.313,3.747-3.54s-1.249-3.539-3.747-3.539h-2.81a1.4,1.4,0,0,0-1.561,1.561v3.956a1.4,1.4,0,0,0,1.561,1.561Z" transform="translate(-7.578 -3.427)"/><path class="b" d="M532.234,252.806c0,3.436-.729,12.648-13.064,12.648s-13.064-9.212-13.064-12.648V239.795c0-3.435.729-12.648,13.064-12.648s13.064,9.213,13.064,12.648Zm-8.953-10.252c0-4.008-.26-6.454-4.112-6.454s-4.112,2.446-4.112,6.454v7.495c0,4.007.26,6.454,4.112,6.454s4.112-2.446,4.112-6.454Z" transform="translate(-15.04 -3.193)"/><path class="b" d="M551.586,228.317a1.381,1.381,0,0,1,1.561,1.562v20.4c0,4.007.26,6.454,4.112,6.454s4.112-2.446,4.112-6.454v-20.4a1.4,1.4,0,0,1,1.561-1.562h5.829a1.381,1.381,0,0,1,1.562,1.562v23.16c0,3.436-.729,12.648-13.064,12.648S544.2,256.475,544.2,253.039v-23.16a1.4,1.4,0,0,1,1.561-1.562Z" transform="translate(-22.632 -3.427)"/><path class="b" d="M590.744,238.831a1.38,1.38,0,0,0-1.561-1.561H581.9a1.424,1.424,0,0,1-1.561-1.561v-5.829a1.4,1.4,0,0,1,1.561-1.562h26.648a1.381,1.381,0,0,1,1.562,1.562v5.829a1.4,1.4,0,0,1-1.562,1.561h-7.286a1.4,1.4,0,0,0-1.561,1.561v24.358a1.4,1.4,0,0,1-1.561,1.561h-5.829a1.425,1.425,0,0,1-1.562-1.561Z" transform="translate(-29.834 -3.427)"/><path class="c" d="M455.053,271.595H431.735c-.69,0-1.092-.521-1.092-1.565v-5.841c0-.846.291-1.39.806-1.529h23.89c.516.139.807.684.807,1.529v5.841Q456.146,271.6,455.053,271.595Z" transform="translate(0 -10.271)"/></g></svg>