<svg xmlns="http://www.w3.org/2000/svg" xmlns:xlink="http://www.w3.org/1999/xlink" width="77.708" height="30.957" viewBox="0 0 77.708 30.957"><defs><style>.a{fill:#ededed;}.b{filter:url(#a);}</style><filter id="a" x="0" y="0" width="77.708" height="30.957" filterUnits="userSpaceOnUse"><feOffset dx="0.5" dy="0.866" input="SourceAlpha"/><feGaussianBlur stdDeviation="1.5" result="b"/><feFlood flood-opacity="0.102"/><feComposite operator="in" in2="b"/><feComposite in="SourceGraphic"/></filter></defs><g transform="translate(-170.648 3.615)"><g class="b" transform="matrix(1, 0, 0, 1, 170.65, -3.62)"><path class="a" d="M307.58,178h-5.5c-1.338,0-1.555.786-2.144,2.171l-7.476,19.757h5.5s1.711-3.791,1.926-4.364h6.442a37.957,37.957,0,0,1,0,4.392l5.375-.029Zm-6.62,15.368c.461-1.221,1.557-7.206,1.557-7.206-.029.058.457-1.229.745-2.028l.377,1.831s1.391,6.339,1.616,7.4Zm-8.918-.68c-.042,4.412-3.856,7.259-9.726,7.259a16.251,16.251,0,0,1-6.05-1.088l1.074-4.392.259-.068a11.369,11.369,0,0,0,5.259,1.114c1.6,0,3.324-.651,3.34-2.074.01-.931-.719-1.6-2.894-2.635-2.121-1.018-4.928-2.721-4.893-5.772.031-4.13,3.919-7.01,9.44-7.01a13.956,13.956,0,0,1,5,.891l-.755,4.6-.5-.246a9.984,9.984,0,0,0-4.18-.813c-2.185,0-3.2.944-3.2,1.827-.011.995,1.184,1.65,3.138,2.633C290.574,188.428,292.064,190.269,292.041,192.684Zm-49.047-14.06,1.368-.628h8.246c1.168.046,1.225.634,1.55,1.928l2.782,9.048C255.089,184.063,250.135,180.179,242.994,178.624ZM267.725,178l-8.246,21.928h-5.5L248.541,181.9a22.489,22.489,0,0,1,7.736,8.8l.583,2.189L262.228,178Zm2.749,0h5.5l-2.749,21.928h-5.5Z" transform="translate(-238.99 -174.36)"/></g></g></svg>