<svg xmlns="http://www.w3.org/2000/svg" width="54.645" height="16.773" viewBox="0 0 54.645 16.773"><defs><style>.a{fill:#0059cc;}</style></defs><path class="a" d="M61.9,17.144,64.67.9h4.419l-2.77,16.244Z" transform="translate(-42.637 -0.62)"/><path class="a" d="M98.288.685A11.019,11.019,0,0,0,94.336,0c-4.388,0-7.469,2.209-7.469,5.352-.031,2.334,2.209,3.641,3.89,4.419,1.712.809,2.3,1.307,2.3,2.023,0,1.089-1.369,1.587-2.645,1.587a9.518,9.518,0,0,1-4.17-.84l-.622-.28L85,15.9a13.983,13.983,0,0,0,4.948.871c4.668,0,7.686-2.178,7.717-5.539.031-1.836-1.151-3.267-3.7-4.419-1.556-.747-2.49-1.245-2.49-2.023,0-.685.809-1.4,2.521-1.4a7.663,7.663,0,0,1,3.3.622l.4.187L98.288.685" transform="translate(-58.549)"/><path class="a" d="M136.923,1H133.5a2.218,2.218,0,0,0-2.334,1.338L124.6,17.213h4.637s.747-1.992.934-2.427h5.664c.124.56.529,2.427.529,2.427h4.108L136.923,1m-5.446,10.456c.373-.934,1.774-4.543,1.774-4.543-.031.031.373-.934.591-1.556l.311,1.4s.84,3.89,1.027,4.7Z" transform="translate(-85.826 -0.689)"/><path class="a" d="M25.823.9,21.466,11.978,21,9.738a12.558,12.558,0,0,0-6.1-6.815l3.952,14.221h4.7L30.522.9h-4.7" transform="translate(-10.263 -0.62)"/><path class="a" d="M7.188.9H.062L0,1.242c5.57,1.338,9.242,4.606,10.767,8.5L9.211,2.269A1.872,1.872,0,0,0,7.188.9" transform="translate(0 -0.62)"/></svg>