<svg xmlns="http://www.w3.org/2000/svg" width="50.313" height="30.188" viewBox="0 0 50.313 30.188"><defs><style>.a{fill:#ff5f00;}.b{fill:#eb001b;}.c{fill:#f79e1b;}</style></defs><g transform="translate(-63 -359)"><g transform="translate(63 359)"><path class="a" d="M472.2,86.567h-13.6V110.3h13.6Z" transform="translate(-440.238 -83.338)"/><path class="b" d="M463.218,99.094a14.977,14.977,0,0,1,5.917-11.865A15.748,15.748,0,0,0,459.548,84a15.1,15.1,0,1,0,0,30.188,15.748,15.748,0,0,0,9.587-3.229A14.914,14.914,0,0,1,463.218,99.094Z" transform="translate(-444 -84)"/><path class="c" d="M489.152,99.094a15.316,15.316,0,0,1-15.547,15.094,15.749,15.749,0,0,1-9.588-3.229,14.855,14.855,0,0,0,0-23.73A15.749,15.749,0,0,1,473.605,84,15.343,15.343,0,0,1,489.152,99.094Z" transform="translate(-438.839 -84)"/></g></g></svg>