<svg width="19" height="19" viewBox="0 0 19 19" fill="none" xmlns="http://www.w3.org/2000/svg">
<g clip-path="url(#clip0)">
<path d="M4.64997 18.9839C4.77924 19.0268 4.92165 18.9823 5.00344 18.8733L9.5 12.8778L13.9967 18.8733C14.0566 18.9529 14.1504 18.9999 14.25 18.9999C14.284 18.9998 14.3177 18.9944 14.35 18.9839C14.4794 18.9407 14.5666 18.8196 14.5666 18.6833V0.316666C14.5666 0.141788 14.4249 0 14.25 0H4.75002C4.57514 0 4.43335 0.141788 4.43335 0.316666V18.6833C4.43335 18.8196 4.52056 18.9407 4.64997 18.9839ZM5.06668 0.633331H13.9333V17.7333L9.75342 12.1599C9.69359 12.0803 9.59973 12.0333 9.5 12.0333C9.40042 12.0333 9.30657 12.0803 9.24673 12.1599L5.06668 17.7333V0.633331Z" fill="#F89521"/>
<ellipse cx="9.5" cy="4.09689" rx="0.672916" ry="0.732292" fill="#008BCC"/>
</g>
<defs>
<clipPath id="clip0">
<rect width="19" height="19" fill="white"/>
</clipPath>
</defs>
</svg>
