<svg xmlns="http://www.w3.org/2000/svg" width="744.177" height="412.892" viewBox="0 0 744.177 412.892"><defs><style>.a{fill:#d1d1d1;}</style></defs><g transform="translate(-83.909 -152.2)"><path class="a" d="M2234.269,580.033V444.979a.1.1,0,0,0-.089-.1l-55.149-5.723h-.016l-28.814,1.775V340.311a.1.1,0,0,0-.085-.1l-53.466-9.124a.082.082,0,0,0-.027,0l-9.139,1v-7.615a4.076,4.076,0,0,0,2.5-3.923,3.184,3.184,0,0,0-2.3-3.3l-.016,0-.073-.01-.012,0-.456-.065c-.07-.013-.138-.022-.209-.029l-.016,0h0c-.063-.006-.123-.009-.188-.009a2.186,2.186,0,0,0-.322.024,3.937,3.937,0,0,0-2.956,4.027c0,1.783,1.045,3.248,2.367,3.377l.464.069.095.014.038,0a.064.064,0,0,0,.02,0c.061.006.125.009.188.009l.1,0v7.522l-9.3,1.018v-5.28a2.914,2.914,0,0,0,1.5-2.65,2.288,2.288,0,0,0-1.491-2.3v-2a5.176,5.176,0,0,0,3.347-5.077c0-2.124-1.253-3.933-2.92-4.216l-.018,0-.093-.013-.014.092,0-.094-.582-.083a2.579,2.579,0,0,0-.264-.037l-.022,0h0c-.079-.007-.155-.012-.234-.012a2.816,2.816,0,0,0-.409.031c-2.1.321-3.748,2.581-3.748,5.147,0,2.277,1.324,4.149,3,4.312l.593.088c.04.007.08.013.119.017l.05.008h.02c.081.007.161.011.24.011s.145,0,.216-.01v1.732l-.075,0a1.453,1.453,0,0,0-.228.017,2.768,2.768,0,0,0-2.069,2.834,2.22,2.22,0,0,0,1.662,2.382l.321.046c.02,0,.044.008.064.01l.026,0h.019c.042,0,.086.006.13.006a1.458,1.458,0,0,0,.146-.008v5.129l-13.561,1.484V264.281a.1.1,0,0,0-.077-.1l-23.191-4.864a.128.128,0,0,0-.034,0l-3.309.467-.452-.118v-2.441a.1.1,0,0,0-.078-.1l-3.233-.686v-8.336a.1.1,0,0,0-.076-.1l-17.261-3.764v-5.408a.1.1,0,0,0-.078-.1l-12.638-2.821a.1.1,0,0,0-.038,0l-12.66,2.013a.1.1,0,0,0-.083.1v.656l-1.134-.247V195.907a.1.1,0,0,0-.093-.1l-1.628-.082a.09.09,0,0,0-.073.027.1.1,0,0,0-.032.071V238.04l-14.824-3.233a.131.131,0,0,0-.039,0l-19.779,3.213-20.376-4.349v-21.8a.1.1,0,0,0-.077-.1l-25.934-5.91V185.844a.1.1,0,0,0-.1-.1l-1.185.062a.1.1,0,0,0-.093.1v19.64l-.822-.187h0a.138.138,0,0,0-.04,0l-3.741.681v-38.6a.1.1,0,0,0-.032-.072.1.1,0,0,0-.07-.027l-1.806.067a.1.1,0,0,0-.095.1V206.4l-24.636,4.476v-1.722a.1.1,0,0,0-.078-.1l-12.031-2.664h0a.091.091,0,0,0-.04,0l-15.98,2.97a.1.1,0,0,0-.08.1v6.569l-17.974,3.247a.1.1,0,0,0-.082.1V320.1l-40.606-6.146a.094.094,0,0,0-.029,0l-4.187.578v-7.319a4.54,4.54,0,0,0,2.189-4.165c0-1.793-.927-3.322-2.158-3.563l-.017,0-.068-.012-.012,0-.429-.069c-.062-.014-.127-.023-.191-.031l-.015,0h0c-.057-.005-.117-.009-.176-.009a1.849,1.849,0,0,0-.306.026c-1.552.273-2.769,2.181-2.769,4.347,0,1.923.98,3.5,2.218,3.645l.433.074.089.015.037.006a.054.054,0,0,0,.018,0,1.572,1.572,0,0,0,.371,0v7.174l-9.11,1.259v-5.076a3.285,3.285,0,0,0,1.313-2.789,2.5,2.5,0,0,0-1.31-2.437v-1.94c1.813-.754,3.04-2.911,3.04-5.458,0-2.3-1.186-4.262-2.764-4.572a.053.053,0,0,0-.019-.006l-.087-.014-.017.1,0-.1-.554-.091a2.208,2.208,0,0,0-.246-.039l-.022,0h0c-.074-.007-.149-.012-.224-.012a2.225,2.225,0,0,0-.39.034c-1.991.349-3.549,2.8-3.549,5.583,0,2.47,1.253,4.5,2.837,4.679l.561.1c.038.008.077.014.113.02l.046.008h.022a2.2,2.2,0,0,0,.229.012,2.094,2.094,0,0,0,.226-.013v1.568l-.05,0a1.216,1.216,0,0,0-.217.019c-1.089.191-1.944,1.527-1.944,3.043,0,1.347.69,2.455,1.562,2.556l.3.051.063.011.024,0h.017a1.066,1.066,0,0,0,.125.007,1.1,1.1,0,0,0,.13-.008v4.878l-18.1,2.5a.1.1,0,0,0-.084.1v23.837l-5.671-.76a.057.057,0,0,0-.026,0l-4.867.609a.1.1,0,0,0-.087.1v.416l-5.826.722v-7.211a4.424,4.424,0,0,0,2.1-4.034c0-1.742-.9-3.227-2.1-3.463l-.017,0-.066-.01-.014.079h0l0-.081-.416-.068a1.842,1.842,0,0,0-.186-.029l-.015,0h0a1.665,1.665,0,0,0-.174-.01,1.772,1.772,0,0,0-.3.026c-1.507.265-2.688,2.119-2.688,4.223,0,1.868.951,3.4,2.154,3.54l.42.073c.03.006.06.01.086.014l.036.006h.02a1.408,1.408,0,0,0,.172.01,1.542,1.542,0,0,0,.215-.015v7.049l-19.862,2.463V340.17c.4-.142.6-.3.608-.492h0V317.812c0-.4-.984-.768-2.927-1.078a47.6,47.6,0,0,0-6.595-.5c-4.285-.049-7.9.417-8.6,1.108a.381.381,0,0,0-.13.27v21.865h0c.011.266.387.486,1.178.686v8l-15.873,1.991-1.771-.225a.1.1,0,0,0-.024,0l-4.516.565a.1.1,0,0,0-.087.1v82.934l-35.23-2.716a.025.025,0,0,0-.017,0L1574,436.5a.1.1,0,0,0-.091.1V580.033H1529.4v.2h744.177v-.2Zm-592.1,0h-68.061V436.693l68.061-5.68Zm35.337,0h-35.14V431.013l35.14,2.711Zm4.516,0H1677.7V350.678l4.318-.541Zm53.66-243.78a1.423,1.423,0,0,1-.353.045,1.365,1.365,0,0,1-.142-.008l-.182-.031h0c-1.022-.247-1.808-1.64-1.808-3.316,0-1.977,1.134-3.784,2.525-4.029a1.7,1.7,0,0,1,.263-.022,1.367,1.367,0,0,1,.158.009l.188.03c1.065.246,1.883,1.614,1.883,3.258C1738.215,334.2,1737.173,335.869,1735.683,336.253Zm.237.135a4.243,4.243,0,0,0,2.494-4.2,3.9,3.9,0,0,0-1.295-3.089,3.352,3.352,0,0,1,1.652,3.182c0,2.008-1.042,3.679-2.534,4.062A1.325,1.325,0,0,1,1735.92,336.388Zm.751.02v7.144l-.368.046v-7.065A3.064,3.064,0,0,0,1736.671,336.408Zm-37.874-18.8a.188.188,0,0,1,.072-.129c.562-.558,3.88-1.1,8.457-1.051a47.533,47.533,0,0,1,6.567.5c2.179.349,2.76.719,2.76.883v21.562c-.935-.689-5.028-1.048-8.867-1.092-4.542-.051-8.167.31-8.989.885Zm0,21.861a.15.15,0,0,1,.053-.093c.569-.562,4.41-.947,8.934-.9,5.773.065,8.853.733,8.869,1.193-.006.043-.061.152-.411.287v-.319a.1.1,0,0,0-.1-.1h-.822a.1.1,0,0,0-.083.046l-.443.705a37.988,37.988,0,0,1-4.593.346l-1.093-1.606v-.325a.1.1,0,0,0-.1-.1h-.561a.1.1,0,0,0-.1.1v1.952l-.684,0a50.129,50.129,0,0,1-6.551-.44l-.35-.477a.1.1,0,0,0-.08-.04h-.809a.1.1,0,0,0-.1.1v.155C1698.9,339.725,1698.805,339.525,1698.8,339.469Zm17.248.272V346.1l-.387-.044v-6.315Zm-3.478,5.562.515.746-1.06.123Zm-.8.9-.442.051.907-1.431.21.3Zm-2.661-6.25v-.565l4.491,6.6-.295.035Zm.247.706-.247,0V340.3Zm.978.178a38.949,38.949,0,0,0,4.322-.319l-2.178,3.471Zm2.266,3.331,2.775-4.425h.085v.57l-2.654,4.158Zm-3.689-5.356v8.205l-.363.045v-8.25Zm-.561,2.049v6.227l-.692.086v-6.316h.005Zm-.89-.007V347.2l-.384.049v-6.4Zm-3.694,4.117.167.227-2.225,2.723-.433.054Zm-2.778,3.041-.419.052v-7.434l3.076,4.176Zm3.066-2.649,1.525,2.072-3.587.45Zm-3.485-5.068V339.9h.067l5.466,7.47-.3.037Zm3.944,4.57,2.364-2.889v5.3l-.55.07Zm-.12-.165-.192-.264,2.676-3.224v.452Zm-.313-.429-2.8-3.827a48.7,48.7,0,0,0,5.6.4v.058Zm-3.8-4.371h.093v.127Zm.093.461v7.727l-.4.051V339.9h.058ZM1683.8,552.4v27.633h-1.582v-229.9l1.586.2v12.139a.1.1,0,0,0,.033.074.1.1,0,0,0,.049.022v0l1.015.183v17.634l-1.017.11a.1.1,0,0,0-.088.1v16.187a.1.1,0,0,0,.033.074.1.1,0,0,0,.065.024h.01l.062-.006.894.176v17.675l-.949.087a.1.1,0,0,0-.091.1v16.4a.1.1,0,0,0,.032.072.1.1,0,0,0,.054.025v0l.946.129v17.706l-.971.07a.1.1,0,0,0-.091.1v16.059a.1.1,0,0,0,.03.073.1.1,0,0,0,.05.024v0l.99.181v17.682l-.949.049a.1.1,0,0,0-.093.1v16.213a.1.1,0,0,0,.03.07.08.08,0,0,0,.05.025v0l.99.187v17.752l-.989.035a.1.1,0,0,0-.095.1v16.292a.1.1,0,0,0,.03.072.106.106,0,0,0,.068.028h0l.983-.028v17.944l-.991.014A.1.1,0,0,0,1683.8,552.4Zm1.039-121.052,11.37-.919-11.257.935Zm-.143,34.187,24.756-1.55-24.488,1.6Zm24.812,114.5H1684V552.5l25.511-.4Zm0-28.707-2.291.038V541.322l2.291-.053Zm0-10.254-24.029.548v-.449l24.029-.577Zm-2.489.254v10.042l-.256,0v-10.04Zm-.454.01v10.038l-.148,0V541.34Zm-.347.008V551.38l-4.3.073v-10.01Zm-4.5.1v10.008l-.247,0V541.453Zm-.445.01v10.006l-.166,0v-10Zm-.365.008v10l-4.314.072v-9.977Zm-4.511.1v9.973l-.21,0v-9.973Zm-.408.008v9.973l-.179,0v-9.971Zm-.376.008v9.971l-4.256.071v-9.945Zm-4.455.1v9.943l-.23,0v-9.941Zm-.428.01v9.939l-.178,0V541.7Zm-.377.008v9.939l-4.4.073v-9.911Zm-4.6.105v9.911l-.273,0v-9.909Zm-.273-.841v-5.935l.273-.006v5.935Zm.471-.01v-5.937l4.417-.1v5.934Zm4.615-.113v-5.934l.161,0v5.935Zm.359-.008v-5.935l.2-.006v5.937Zm.4-.008V534.9l4.269-.1v5.936Zm4.466-.109v-5.935l.179,0v5.934Zm.377-.008v-5.937l.222,0v5.935Zm.419-.01V534.77l4.314-.1V540.6Zm4.513-.108v-5.935l.155-.005v5.937Zm.351-.009v-5.934l.26-.009v5.937Zm.459-.01v-5.937l4.312-.1v5.935Zm4.51-.109v-5.936l.142,0v5.934Zm.34-.008v-5.936l.256-.006v5.934Zm2.745-.066-2.291.054v-5.935l2.291-.054Zm0-6.134-24.13.58a.1.1,0,0,0-.1.1v16.887a.094.094,0,0,0,.03.071.1.1,0,0,0,.069.028h0l24.126-.4v.377l-24.421.383V534.339l24.421-.647Zm0-.766-25.506.675v-16.1l25.506-.893Zm0-16.956-2.287.078v-9.975l2.287-.085Zm0-10.181-24.016.9v-.4l24.016-1.026Zm-2.485.292v9.973l-.248.008v-9.973Zm-.446.016v9.971l-.148.006V506.67Zm-.346.012v9.971l-4.318.149v-9.959Zm-4.517.169v9.959l-.247.009v-9.96Zm-.445.016v9.958l-.148.006v-9.958Zm-.346.012v9.958l-4.306.149v-9.945Zm-4.505.17v9.943l-.231.008v-9.943Zm-.429.016V517l-.156,0v-9.943Zm-.355.012v9.943l-4.277.145v-9.927Zm-4.475.167v9.929l-.219.008v-9.929Zm-.417.016v9.927l-.19.006v-9.927Zm-.387.014V517.2l-4.431.152v-9.913Zm-4.629.174v9.913l-.234.008v-9.913Zm-.234-.788v-6l.234-.01v6Zm.432-.018v-6l4.424-.2v6.013Zm4.623-.2v-6.015l.195-.008v6.013Zm.393-.018v-6.016l.21-.01v6.016Zm.409-.018v-6.016l4.285-.2v6.031Zm4.484-.192v-6.031l.14-.006v6.031Zm.338-.014v-6.031l.247-.012v6.033Zm.446-.02v-6.034l4.306-.2v6.048Zm4.5-.191v-6.048l.139-.008v6.05Zm.338-.015v-6.049l.255-.012v6.049Zm.454-.02V499.9l4.33-.2v6.064Zm4.528-.193v-6.066l.136-.006v6.066Zm.334-.014v-6.066l.21-.01v6.066Zm2.733-.117-2.324.1v-6.068l2.324-.107Zm0-6.274-24.12,1.109a.1.1,0,0,0-.095.1v16.9a.094.094,0,0,0,.03.07.1.1,0,0,0,.069.026h0l24.112-.828v.248l-24.421.854V500.1l24.421-1.12Zm0-.568L1685,499.911l-.222-.043,24.735-1.1Zm0-.219-25.493,1.138V483.688l25.493-1.344Zm0-16.85-2.283.125v-9.951l2.283-.131Zm0-10.155-24.029,1.366v-.489l24.029-1.4Zm-2.481.339v9.951l-.252.014v-9.951Zm-.449.026v9.951l-.161.008v-9.951Zm-.36.02v9.95l-4.3.235v-9.939Zm-4.5.256v9.939l-.255.014v-9.939Zm-.454.026v9.939l-.176.009v-9.938Zm-.375.022v9.938l-4.283.233v-9.929Zm-4.48.254v9.927l-.22.013v-9.928Zm-.418.025v9.925l-.156.008v-9.925Zm-.354.02v9.925l-4.26.231v-9.915Zm-4.457.254v9.913l-.234.014v-9.915Zm-.433.024v9.913l-.184.01v-9.913Zm-.383.022v9.911l-4.414.242v-9.9Zm-4.612.262v9.9l-.269.014v-9.9Zm-.269-.873v-5.886l.269-.018v5.888Zm.467-.026v-5.89l4.405-.287v5.921Zm4.6-.268v-5.921l.195-.012v5.921Zm.394-.022V466l.2-.012v5.925Zm.4-.024v-5.925l4.278-.278v5.955Zm4.476-.26v-5.957l.183-.01v5.957Zm.381-.022v-5.959l.209-.014v5.96Zm.406-.025v-5.961l4.3-.28v5.994Zm4.5-.26v-5.993l.156-.01v5.993Zm.353-.02v-6l.249-.016v6Zm.448-.026v-6l4.313-.28v6.029Zm4.512-.262v-6.029l.173-.012v6.031Zm.371-.022V464.97l.2-.012v6.032Zm2.72-.157-2.318.135v-6.036l2.318-.151Zm0-6.249-24.135,1.565a.1.1,0,0,0-.092.1v16.874a.091.091,0,0,0,.031.07.094.094,0,0,0,.068.028h.006l24.122-1.318v.23l-24.451,1.29V465.776l24.451-1.6Zm0-.813-25.521,1.6V449.517l25.521-1.835Zm0-16.821-2.3.167v-9.985l2.3-.171Zm0-10.187-24.016,1.784v-.47l24.016-1.727Zm-2.5.383v9.985l-.2.017v-9.986Zm-.4.03v9.986l-.175.012V437.2Zm-.374.028V447.2l-4.327.314v-9.977Zm-4.527.335v9.978l-.253.017v-9.975Zm-.451.034v9.976l-.156.012V437.6Zm-.353.026v9.976l-4.305.312v-9.967Zm-4.5.335v9.967l-.215.016v-9.967Zm-.413.03v9.968l-.159.012v-9.968Zm-.358.028v9.966l-4.253.308v-9.959Zm-4.451.331v9.957l-.253.018v-9.957Zm-.451.032v9.957l-.191.017v-9.96Zm-.389.03v9.956l-4.4.32v-9.949Zm-4.6.341v9.949l-.252.018v-9.949Zm-.252-.848v-5.9l.252-.02v5.9Zm.45-.033v-5.906l4.425-.357v5.945Zm4.623-.332v-5.947l.163-.014v5.951Zm.361-.026v-5.951l.253-.021v5.953Zm.451-.033v-5.955l4.236-.34v5.991Zm4.434-.318v-5.993l.187-.016v6Zm.384-.028v-6l.206-.016v6Zm.4-.029v-6l4.3-.346v6.039Zm4.5-.322v-6.042l.157-.012v6.042Zm.355-.026V430.7l.253-.022v6.048Zm.453-.032v-6.05l4.308-.347V436.4Zm4.506-.325V430.3l.177-.014v6.09Zm.375-.026v-6.092l.222-.018v6.094Zm2.72-.2-2.3.166v-6.1l2.3-.186Zm0-6.315-24.124,1.948a.1.1,0,0,0-.091.1v16.916a.1.1,0,0,0,.031.073.1.1,0,0,0,.068.026h.008l24.108-1.749v.32l-24.459,1.759V431.554l24.459-2.03Zm0-.694-25.49,2.06V415.009l25.49-2.31Zm0-17-2.273.205V402.359l2.273-.214Zm0-10.213-24,2.259v-.427l12.009-1.109c3.026-.28,6.051-.56,8.319-.772,1.136-.1,2.081-.193,2.742-.256l.769-.072c.065-.006.12-.012.164-.018Zm-2.471.431v10l-.257.025v-10Zm-.455.042v10l-.177.016v-10Zm-.375.037v10l-4.306.387V402.86Zm-4.5.423v9.983l-.236.022V402.9Zm-.434.04V412.9l-.13.011v-9.981Zm-.328.032v9.98l-4.319.389v-9.964Zm-4.518.423v9.964l-.246.022V403.4Zm-.443.043v9.961l-.194.018v-9.961Zm-.391.036v9.959l-4.226.383v-9.943Zm-4.425.417v9.941l-.256.025v-9.942Zm-.454.042v9.942l-.141.012v-9.939Zm-.339.033v9.939l-4.866.439V404.4Zm-4.866-.365V397.6l.243-.025v5.986C1685.648,403.566,1685.565,403.574,1685.508,403.58Zm.441-.042v-5.986l4.425-.433v6.012Zm4.623-.426V397.1l.167-.016V403.1Zm.367-.034v-6.015l.228-.023v6.018Zm.427-.038v-6.02l4.227-.415v6.044C1694.115,402.786,1692.675,402.917,1691.366,403.04Zm4.423-.409v-6.044l.194-.018v6.044Zm.391-.037v-6.045l.234-.024v6.047Zm.432-.04v-6.048l4.295-.421v6.072Zm4.494-.415v-6.074l.167-.016v6.074Zm.364-.034v-6.076l.236-.022v6.076Zm.434-.04v-6.078l4.342-.426v6.1Zm4.54-.422v-6.1l.141-.014v6.1Zm.339-.032v-6.1l.205-.02v6.1C1706.922,401.6,1706.853,401.605,1706.783,401.611Zm2.728-.258c-.259.026-1.1.105-2.323.22v-6.1l2.323-.23Zm0-6.312-24.113,2.366a.1.1,0,0,0-.089.1V414.43a.1.1,0,0,0,.1.1l.009,0,24.094-2.173v.145l-24.451,2.213V397.065l24.451-2.435Zm0-.61-24.545,2.444-.315-.062,24.86-2.489Zm0-.3L1684,396.68V380.691l25.515-2.787Zm0-16.755-2.315.255v-10l2.315-.266Zm0-10.212-24.029,2.752v-.464l24.029-2.618Zm-2.514.486v10l-.212.023v-10Zm-.41.048v10l-.191.02v-10Zm-.388.044v10l-4.32.475v-9.978Zm-4.518.518v9.975l-.211.024v-9.975Zm-.409.046v9.976l-.15.016v-9.975Zm-.347.04v9.974l-4.329.473v-9.951Zm-4.527.518v9.952l-.222.024v-9.949Zm-.419.049v9.949l-.2.022v-9.948Zm-.4.046V378.9l-4.2.462v-9.927Zm-4.4.5v9.925l-.26.03v-9.925Zm-.459.052v9.925l-.168.019v-9.925Zm-.366.043v9.923l-4.419.483v-9.9Zm-4.617.529v9.9l-.255.029v-9.9Zm-.255-.834v-5.956l.255-.031v5.959Zm.453-.049v-5.962l4.419-.536v6.016Zm4.617-.5v-6.019l.168-.021v6.021Zm.367-.04v-6.024l.26-.031v6.027Zm.458-.051v-6.028l4.238-.514v6.081Zm4.435-.483V362.04l.167-.02v6.085Zm.364-.04v-6.087l.242-.029v6.09Zm.44-.047v-6.093l4.307-.522v6.145Zm4.506-.492V361.4l.135-.016v6.149Zm.332-.036v-6.151l.214-.027v6.155Zm.411-.044V361.3l4.373-.53v6.211Zm4.571-.5v-6.213l.151-.018v6.215Zm.349-.038V360.71l.243-.031V366.9Zm2.726-.3-2.285.249v-6.223l2.285-.276Zm0-6.449-24.141,2.926a.1.1,0,0,0-.086.1V380.12a.1.1,0,0,0,.033.073.1.1,0,0,0,.066.026h.01l24.118-2.649v.135l-24.409,2.667V362.764l24.409-2.938Zm0-.553-24.505,2.949-.43-.078,24.935-2.945Zm0-.273-25.506,3.012V350.339l25.506-3.2Zm0-12.8v.388l-.4.051v-6.133c.128,0,.257,0,.384,0l2.62,3.791-1.038,1.638-1.477.171A.1.1,0,0,0,1709.511,346.551Zm4.721,233.482h-4.524V346.639l4.524-.525Zm.087-234.128-.5.057-.9-1.315,2.533-3.968v5.354l-1.117-.128A.1.1,0,0,0,1714.319,345.9Zm1.687,206v28.129h-1.576V346.114l1.555.179v12.341a.106.106,0,0,0,.033.074.1.1,0,0,0,.047.021v0l1.005.2V376.88l-1.009.11a.1.1,0,0,0-.088.1v16.433a.091.091,0,0,0,.033.072.073.073,0,0,0,.047.023v0l1,.207v17.966l-.966.087a.1.1,0,0,0-.089.1V428.69a.1.1,0,0,0,.032.075.113.113,0,0,0,.055.024h0l.983.113V446.96l-.981.071a.1.1,0,0,0-.093.1v16.318a.1.1,0,0,0,.031.072.114.114,0,0,0,.06.025l0,0,.974.094v18.087l-.953.05a.1.1,0,0,0-.094.1v16.5a.1.1,0,0,0,.03.071.089.089,0,0,0,.054.024v0l.969.157v18.1l-.981.036a.1.1,0,0,0-.1.1v16.62a.1.1,0,0,0,.029.07.1.1,0,0,0,.071.028h0l.962-.024v18.238l-.946.016A.1.1,0,0,0,1716.006,551.9Zm26.688,28.129H1716.2V552l26.49-.454Zm0-29.266-2.467.041V540.594l2.467-.058Zm0-10.43-24.914.59v-.5l24.914-.548Zm-2.664.261V550.81l-.218,0V540.6Zm-.415.01v10.208l-.149,0V540.611Zm-.347.009v10.205l-4.541.072V540.723Zm-4.74.11V550.9l-.207,0V540.734Zm-.4.01V550.9l-.194,0V540.744Zm-.393.011v10.16l-4.441.071V540.852Zm-4.641.108v10.127l-.247,0V540.863Zm-.445.013v10.12l-.166,0v-10.12Zm-.365.008v10.118l-4.435.071V540.981Zm-4.633.108V551.07l-.232,0V540.991Zm-.429.01v10.081l-.206,0V541Zm-.405.011v10.076l-4.581.072v-10.04Zm-4.778.112v10.038l-.254.006V541.124Zm-.254-.884v-6.052l.254-.006v6.052Zm.451-.01v-6.052l4.6-.111v6.062Zm4.794-.1v-6.064l.192,0v6.064Zm.389-.01v-6.062l.232-.006V540.1Zm.429-.008v-6.064l4.436-.109V540Zm4.635-.1v-6.074l.166,0v6.074Zm.364-.008v-6.074l.247-.006v6.076Zm.447-.01V533.9l4.441-.107v6.086Zm4.64-.1v-6.084l.194-.006v6.086Zm.392-.008v-6.086l.207,0v6.086Zm.406-.008v-6.088l4.541-.109v6.1Zm4.739-.105v-6.1l.155,0v6.1Zm.352-.008v-6.1l.212,0v6.1Zm2.876-.062-2.467.054v-6.1l2.467-.059Zm0-6.3-25.015.6a.1.1,0,0,0-.1.1v17.176a.1.1,0,0,0,.1.1h0l25.011-.393v.383l-25.446.437v-18.24l25.446-.667Zm0-.7-26.511.7V516.956l26.511-.937Zm0-17.307-2.437.082V505.243l2.437-.1Zm0-10.429-24.938.991v-.453l24.938-1.014Zm-2.636.3v10.213l-.26.01V505.259Zm-.457.016v10.214l-.172.006V505.275Zm-.369.016v10.209l-4.48.156V505.461Zm-4.678.186v10.185l-.266.01V505.479Zm-.465.018V515.67l-.173.008V505.493Zm-.37.014v10.183l-4.436.153V505.678Zm-4.635.185v10.157l-.266.01V505.7Zm-.464.019v10.154l-.161.006V505.711Zm-.358.014v10.152l-4.437.153v-10.13Zm-4.633.183v10.129l-.247.01V505.912Zm-.445.018v10.127l-.19.006V505.928Zm-.388.016v10.125l-4.587.157v-10.1Zm-4.785.19v10.1l-.255.008v-10.1Zm-.255-.841v-6.031l.255-.012v6.033Zm.453-.018v-6.036l4.607-.213v6.062Zm4.8-.2V499.01l.171-.008v6.064Zm.369-.014v-6.066l.226-.01v6.066Zm.424-.019v-6.067l4.456-.206v6.094Zm4.653-.187v-6.094l.18-.008v6.094Zm.376-.016v-6.1l.249-.01v6.1Zm.448-.018v-6.1l4.455-.208v6.124Zm4.653-.19V498.5l.189-.008v6.124Zm.389-.016v-6.126l.213-.01V504.6Zm.41-.016v-6.128l4.5-.21v6.155Zm4.694-.191V498.25l.168-.008V504.4Zm.365-.015v-6.156l.264-.012v6.159Zm2.9-.118-2.437.1v-6.161l2.437-.113Zm0-6.373-25.043,1.161a.1.1,0,0,0-.094.1v17.18a.1.1,0,0,0,.03.071.1.1,0,0,0,.069.028h0l25.035-.863v.246l-25.434.9V498.637l25.434-1.114Zm0-.574-25.527,1.119-.089-.017,25.616-1.126Zm0-.224-26.486,1.167v-16.3l26.486-1.407Zm0-17.093-2.467.125V469.9l2.467-.141Zm0-10.445-24.9,1.443v-.528l24.9-1.433Zm-2.664.353v10.227l-.21.012V469.928Zm-.408.024v10.225l-.179.008V469.95Zm-.376.022v10.222l-4.5.227V470.222Zm-4.7.272v10.187l-.249.012V470.248Zm-.448.026v10.184l-.174.009V470.271Zm-.372.02v10.184l-4.474.225V470.54Zm-4.671.273V480.7l-.223.011V470.565Zm-.421.024v10.144l-.139.006V470.585Zm-.337.018v10.143l-4.476.225V470.855Zm-4.673.272v10.109l-.223.009V470.879Zm-.421.024V481l-.2.01V470.9Zm-.4.022v10.1l-4.587.232V471.179Zm-4.785.279v10.066l-.235.012V471.2Zm-.235-.913v-6.006l.235-.014v6.007Zm.433-.025v-6.007l4.6-.29v6.033Zm4.8-.276v-6.033l.187-.012v6.035Zm.385-.022V463.92l.223-.014v6.038Zm.42-.024v-6.038l4.454-.282v6.064Zm4.653-.268V463.6l.174-.012v6.066Zm.372-.022v-6.066l.209-.012v6.066Zm.406-.023v-6.067l4.474-.285v6.1Zm4.672-.269v-6.1l.174-.01v6.094Zm.373-.021v-6.1l.252-.016v6.1Zm.45-.026v-6.1l4.495-.284v6.124Zm4.692-.27v-6.126l.172-.01v6.126Zm.37-.022v-6.126l.217-.015V469Zm2.881-.165-2.467.143v-6.131l2.467-.155Zm0-6.342-25.007,1.578a.1.1,0,0,0-.093.1v17.194a.092.092,0,0,0,.031.071.1.1,0,0,0,.068.028h.005l25-1.265v.159l-25.438,1.35V463.644l25.438-1.586Zm0-.824-26.5,1.662V447.22l26.5-1.9ZM1717.1,428.708l6.639-.546-6.573.554Zm25.591,15.882-2.434.171V434.566l2.434-.183Zm0-10.406-24.914,1.88V435.6l24.914-1.787Zm-2.632.4v10.2l-.272.018V434.6Zm-.469.037v10.191l-.178.014V434.631Zm-.375.028v10.189l-4.481.316V434.984Zm-4.68.353v10.166l-.219.015V435.016Zm-.418.032v10.163l-.18.014V435.044Zm-.378.028v10.163l-4.461.312V435.395Zm-4.659.353v10.136l-.248.019V435.429Zm-.446.032V445.58l-.179.012V435.457Zm-.376.028v10.135l-4.438.312V435.806Zm-4.635.351V445.93l-.241.018V435.84Zm-.439.032v10.109l-.178.012V435.868Zm-.376.028v10.107l-4.6.322v-10.08Zm-4.8.363v10.08l-.231.017V436.263Zm-.231-.846v-6.1l.231-.019v6.1Zm.429-.031v-6.1l4.633-.358v6.126Zm4.829-.346v-6.128l.179-.013v6.127Zm.376-.028v-6.129l.2-.016v6.131Zm.4-.029v-6.13l4.446-.345v6.157Zm4.643-.332v-6.159l.185-.014v6.159Zm.383-.028v-6.161l.239-.018v6.162Zm.437-.031v-6.162l4.468-.347v6.189Zm4.666-.336v-6.189l.187-.014v6.191Zm.387-.026v-6.193l.213-.016V434.2Zm.412-.03v-6.2l4.488-.347v6.219Zm4.686-.337v-6.221l.17-.012v6.221Zm.367-.026V427.6l.25-.021V433.8Zm2.9-.208-2.456.176v-6.226l2.456-.191Zm0-6.439-25.021,1.939a.1.1,0,0,0-.091.1v17.238a.1.1,0,0,0,.03.073.1.1,0,0,0,.069.026h.006l25.007-1.757v.328l-25.428,1.828V428.9l25.428-2.14Zm0-.767-26.5,2.178V412.068l26.5-2.386Zm0-17.245-2.454.22V399.243l2.454-.23Zm0-10.346-24.922,2.334v-.486l24.922-2.287Zm-2.653.447V409.4l-.227.02V399.283Zm-.425.041v10.134l-.217.019V399.322Zm-.415.038v10.132l-4.466.4V399.759Zm-4.665.437v10.115l-.235.02V399.8Zm-.434.04V409.93l-.182.016v-10.11Zm-.381.037v10.11l-4.445.4V400.269Zm-4.644.435v10.09l-.242.022v-10.09Zm-.439.04V410.42l-.157.014V400.343Zm-.357.033v10.09l-4.456.4V400.779Zm-4.653.437v10.07l-.254.022v-10.07Zm-.452.042v10.068l-.145.013V400.853Zm-.342.031V410.94l-4.609.413V401.3Zm-4.806.451v10.048l-.256.022V401.347Zm-.256-.861v-6.041l.256-.027v6.044Zm.453-.04v-6.048l4.609-.461V400Zm4.806-.443v-6.086l.145-.014v6.088Zm.343-.031v-6.09l.212-.02v6.09Zm.409-.038v-6.092l4.478-.449v6.13Zm4.675-.427v-6.134l.164-.016v6.134Zm.362-.034v-6.137l.257-.024v6.137Zm.456-.043v-6.138l4.445-.445V399Zm4.644-.425V392.8l.2-.02v6.179Zm.4-.038v-6.181l.209-.022v6.185Zm.408-.036v-6.185l4.515-.454v6.224Zm4.713-.434v-6.225l.151-.014v6.225Zm.349-.032v-6.227l.246-.024v6.229Zm2.9-.266-2.454.226V392.17l2.454-.246Zm0-6.451-25.031,2.507a.1.1,0,0,0-.09.1V411.5a.093.093,0,0,0,.032.072.092.092,0,0,0,.068.027h.006l25.015-2.243v.125l-25.442,2.291v-17.94l25.442-2.541Zm0-.63-25.536,2.551-.43-.089,25.966-2.581Zm0-.319-26.522,2.638V377.177l26.522-2.88Zm0-17.043-2.436.267v-10.15l2.436-.275Zm0-10.356-24.89,2.8v-.506l24.89-2.688Zm-2.634.495v10.15l-.254.028V363.9Zm-.451.051v10.149l-.144.016V363.938Zm-.343.038v10.148l-4.5.493V364.466Zm-4.7.528v10.135l-.292.032V364.521Zm-.49.056v10.132l-.163.018V364.562Zm-.363.041v10.131l-4.467.489V365.087Zm-4.665.524v10.117l-.2.024V365.132Zm-.4.045v10.117l-.18.019V365.174Zm-.378.043v10.115l-4.464.489V365.7Zm-4.661.525v10.1l-.21.023v-10.1Zm-.408.045v10.1l-.159.018v-10.1Zm-.357.04v10.1l-4.625.5V366.327Zm-4.824.542v10.086l-.215.024V366.374Zm-.215-.879v-6.014l.215-.026v6.017Zm.414-.045v-6.019l4.625-.553v6.073Zm4.823-.521v-6.075l.171-.021v6.077Zm.369-.04v-6.079l.21-.025v6.081Zm.409-.044v-6.084l4.45-.533v6.136Zm4.648-.5V358.18l.153-.019v6.14Zm.351-.038v-6.143l.231-.027v6.144Zm.429-.047v-6.147l4.508-.539v6.2Zm4.705-.507v-6.2l.163-.019v6.2Zm.361-.04v-6.207l.207-.024v6.209Zm.405-.043v-6.212l4.548-.544v6.264Zm4.747-.513v-6.267l.142-.017v6.268Zm.339-.037v-6.271l.256-.03v6.274Zm2.89-.312-2.436.263v-6.276l2.436-.291Zm0-6.5-25,2.993a.1.1,0,0,0-.087.1v17.2a.1.1,0,0,0,.1.1h.011l24.978-2.735v.166l-25.426,2.761V358.936l25.426-3.005Zm0-.545-25.521,3.016-.457-.09,25.978-3.113Zm0-.387-26.511,3.177v-12.23l26.511-3.287Zm4.867,224.688h-4.669V342.478l4.669-.587Zm33.455-272.892a1.5,1.5,0,0,1-.363.046,1.467,1.467,0,0,1-.147-.009l-.186-.032h0c-1.055-.253-1.865-1.69-1.865-3.418,0-2.038,1.168-3.9,2.6-4.152a1.563,1.563,0,0,1,.272-.024c.055,0,.107,0,.162.009l.193.032c1.1.253,1.943,1.663,1.943,3.358C1783.628,305.021,1782.554,306.743,1781.016,307.141Zm.226.139a4.362,4.362,0,0,0,2.583-4.329,4.007,4.007,0,0,0-1.347-3.192,3.443,3.443,0,0,1,1.721,3.289c0,2.069-1.074,3.791-2.612,4.187A1.389,1.389,0,0,1,1781.242,307.28Zm.77.022v7.258l-.393.054v-7.183l.018,0A2.888,2.888,0,0,0,1782.012,307.3Zm-8.585.733a2.812,2.812,0,0,1-1.778,2.871,3.156,3.156,0,0,0,1.579-2.937,2.942,2.942,0,0,0-.763-2.077A2.529,2.529,0,0,1,1773.427,308.035Zm-1.314,2.9v4.988l-.386.053v-4.891A2.032,2.032,0,0,0,1772.113,310.939Zm-1.089-7.427a1.93,1.93,0,0,1-.475.062,1.791,1.791,0,0,1-.194-.013l-.242-.04h0c-1.376-.33-2.432-2.2-2.432-4.443,0-2.642,1.52-5.061,3.386-5.388a2.048,2.048,0,0,1,.356-.031,1.705,1.705,0,0,1,.214.013l.248.04c1.433.328,2.533,2.16,2.533,4.364C1774.418,300.762,1773.023,303,1771.024,303.512Zm.109.174c2.055-.565,3.484-2.859,3.484-5.61a5.017,5.017,0,0,0-1.89-4.211c1.4.4,2.429,2.214,2.429,4.335,0,2.685-1.4,4.921-3.393,5.435A1.893,1.893,0,0,1,1771.133,303.686Zm.984.047v1.806l-.01,0-.016,0-.351-.057-.023,0v-1.623c.033-.008.064-.014.095-.023C1771.915,303.8,1772.016,303.768,1772.117,303.733Zm-.874,7.109a.925.925,0,0,1-.244.033.909.909,0,0,1-.1-.007l-.1-.018c-.717-.164-1.289-1.17-1.289-2.342,0-1.4.8-2.675,1.779-2.849a1.14,1.14,0,0,1,.184-.016.943.943,0,0,1,.107.007l.135.021a2.239,2.239,0,0,1,1.32,2.3A2.8,2.8,0,0,1,1771.243,310.842Zm-13.048,269.191h-10.437V341.892l10.437,1.4Zm28.05,0h-27.851V504l27.851-1.119Zm0-77.349-27.851,1.116V442.023l27.851-2.064Zm0-62.924-27.851,2.065V380.016l27.851-2.916Zm0-62.86-27.851,2.916V343.207a.1.1,0,0,0-.087-.1l-4.765-.64V318.692l32.7-4.517Zm31.877,203.133h-31.679V545.745l31.679.669Zm0-33.816-31.679-.669v-34.7l31.679,1.29Zm0-34.281-31.679-1.288v-34.68l31.679,1.894Zm0-34.274-31.679-1.892V441.049l31.679,2.511Zm0-34.3-31.679-2.513V406.168l31.679,3.129Zm0-34.265-31.679-3.13V371.223l31.679,3.787Zm0-34.288-31.679-3.786V336.341l31.679,4.377Zm6.667,205.223h-6.469V546.419l6.469.137Zm0-33.675-6.469-.137V512.143l6.469.262Zm0-34.15-6.469-.264v-34.07l6.469.385Zm0-34.147-6.469-.386v-34.1l6.469.511Zm0-34.17-6.469-.514v-34.06l6.469.639Zm0-34.134-6.469-.639V375.034l6.469.773Zm0-34.15-6.469-.772v-34.09l6.469.893Zm2.242,204.426h-2.043V546.56l2.043.044Zm0-33.629-2.043-.042V512.413l2.043.083Zm0-34.106-2.043-.082V478.271l2.043.123Zm0-34.1-2.043-.123V444.105l2.043.163Zm0-34.128-2.043-.161V409.974l2.043.2Zm0-34.09-2.043-.2V375.83l2.043.245Zm0-34.1-2.043-.245V341.666l2.043.282Zm0-34.127-40.588-5.607V314.158l40.588,6.142Zm208.827-84.441v12.677l-30.021-6.131V250.929Zm-30.739,284v-8.734l26.964.816v8.633l-26.363-.727Zm.5.187v12.926l-31.712.478V542.14Zm.2,0,30.032.828-.061,12.668-29.971-.572Zm-.8-9.125-17.88.381,18.571-.445,27.212.862-.712.026Zm.6-13.186v12.926l-31.4.75-.313-.01V520.111Zm-.5-.181v-8.718l26.964,1.2v8.557l-26.365-1.062Zm.7,13.107V519.19l30.032,1.21-.061,12.666Zm-.8-22.026-27.953.89-.478-.022,29.123-1.007,28.084,1.275-1.58.077Zm.607-13.259v12.924l-31.5,1.09-.21-.01V498.089Zm-.5-.177v-8.571l26.964,1.538v8.43l-26.367-1.421Zm.7,13.1V496.831l30.032,1.621-.061,12.665Zm-.8-21.881-27.955,1.156-1.4-.106,30.046-1.324,28.376,1.735-1.88.09Zm.607-13.394v12.924l-31.605,1.393-.107-.008V476.044Zm-.5-.173v-8.581l26.96,2.017v8.37l-26.351-1.836h-.012Zm.7,13.1V474.484l30.032,2.092-.061,12.666Zm-.793-21.885h-.013l-27.953,1.535-1.731-.161,30.382-1.651,28.779,2.157-2.283.153Zm25.519-19.274-23.387-2.189a.1.1,0,0,0-.077.026.1.1,0,0,0-.032.073v7.72a.1.1,0,0,0,.091.1l19.41,1.685-20.821-1.739h-.014l-.6.036v-8.444l26.952,2.291v8.315l-1.495-.125a.065.065,0,0,0,.028-.016.1.1,0,0,0,.032-.072v-7.561A.1.1,0,0,0,2030.546,446.249Zm-.109.189V453.8l-.3-.026V446.41Zm-.5-.048v7.368l-3.585-.313v-7.39Zm-3.785-.353v7.392l-.27-.024v-7.394Zm-.469-.044v7.394l-.337-.028v-7.4Zm-.536-.051v7.4l-5.089-.441v-7.432Zm-5.286-.495v7.436l-.268-.024v-7.437Zm-.466-.043v7.439l-.34-.031v-7.44Zm-.538-.05v7.44l-5.237-.453v-7.477Zm-5.437-.508v7.477l-.286-.024v-7.481Zm-.486-.046v7.48l-.354-.03v-7.484Zm-.552-.053v7.487l-5.133-.445v-7.521Zm-6.757,7.382v12.924l-31.641,1.719-.071-.006V454.015Zm.2,12.926V452.131l30.032,2.5-.061,12.666Zm-.791-21.747h-.015l-27.953,1.734-1.908-.194,30.559-1.979,28.908,2.59-2.412.161Zm.594-13.556v12.924l-31.661,2.051-.051-.006V431.969Zm-.5-.163v-8.414l26.964,2.719v8.236l-26.351-2.582h-.018Zm.7,13.091V429.756l30.032,2.942-.061,12.666Zm-.789-21.714h-.019l-27.951,2.105-1.995-.2,30.646-2.342,29.056,2.991-2.56.189Zm.592-13.555v12.924l-31.671,2.42-.041,0V410Zm-10.961.508-6.8.534v-7.344l6.8-.558Zm.2-.016v-7.5l.411-.034v7.5Zm.608-.049V400.41l.22.05v7.378Zm.419-.032v-7.337l7.312-.615v7.38Zm34.659-5.594-23.387-2.564a.094.094,0,0,0-.079.024.1.1,0,0,0-.032.073v7.592l-1.318-.148h-.018l-.619.051v-8.313l26.988,3.087v8.11l-1.447-.162v-7.651A.1.1,0,0,0,2030.548,402.228Zm-.111.242v7.486l-.321-.036v-7.334Zm-3.487-.438,3.156.347-.08.03Zm2.969.562v7.3l-3.563-.4v-7.342Zm-3.761-.648v7.533l-.274-.031v-7.531Zm-.471-.006v7.486l-.347-.038v-7.342Zm-4.3-.516,3.908.429-.083.024Zm3.751.645v7.3l-5.067-.564v-7.336Zm-5.266-.813v7.523l-.274-.03v-7.521Zm-.472-.016v7.487l-.368-.04v-7.36Zm-.566.089v7.335l-5.238-.582v-7.364Zm-5.435-.782v7.513l-.274-.03v-7.513Zm-.474-.022v7.483l-.334-.039v-7.382Zm-.532.083v7.339l-5.149-.572V400Zm-6.576,19.731V407.415l30.032,3.341-.061,12.666Zm-.789-21.6a.031.031,0,0,0-.019,0l-27.949,2.344-2.193-.278,30.842-2.624,29.148,3.468-2.652.2Zm.592-13.671V397.99l-31.694,2.694-.018,0V387.925Zm-26.4,2.182v-7.5l.232.082v7.4Zm.371-7.589,7.078-.667v.036Zm7.078-.433v7.351l-7.022.633v-7.358Zm.2,7.333v-7.585l.367-.034v7.585Zm.564-.05v-7.547l.238.07v7.455Zm.436-.04v-7.407l6.793-.666v7.46Zm6.993-.631V378.22l.4-.038V385.8Zm.6-.055V378.2l.232.062v7.5Zm.429-.038v-7.456l7.316-.7v7.5Zm34.665-5.352-23.389-3.016a.1.1,0,0,0-.077.024.1.1,0,0,0-.034.075v7.55l-1.316-.168h-.022l-.617.057v-8.3l26.988,3.531v8.065l-1.447-.184v-7.539A.1.1,0,0,0,2030.55,380.393Zm-.113.223v7.39l-.315-.04v-7.279Zm-.514.071v7.253l-3.593-.458v-7.269Zm-3.793-.663v7.432l-.232-.028v-7.434Zm-.429-.02v7.4l-.361-.047v-7.273Zm-.558.088v7.239l-5.073-.647v-7.261Zm-5.272-.876v7.444l-.276-.036v-7.445Zm-.474-.033V386.6l-.354-.047V379.24Zm-.552.055v7.291l-5.242-.669v-7.3Zm-5.441-.857v7.455l-.276-.036v-7.453Zm-.474-.034v7.428l-.354-.044V378.4Zm-.552.055v7.3l-5.131-.653v-7.323Zm-6.558,19.592V385.07l30.032,3.825-.061,12.664Zm-.787-21.583h-.022l-27.95,2.671-2.245-.285,30.9-2.988,29.344,3.9-2.848.256Zm.59-13.716v12.924l-31.7,3.065-.012,0V365.925Zm-26.4,2.491v-7.463l.23.056v7.383Zm.427-.045v-7.347l6.981-.718v7.355Zm7.179-.73v-7.516l.405-.043v7.517Zm.6-.062v-7.484l.279.054v7.4Zm.478-.048v-7.374l6.773-.687v7.371Zm6.971-.71v-7.536l.391-.041v7.536Zm.588-.061v-7.5l.218.053v7.425Zm.415-.042v-7.374l7.32-.777v7.4Zm34.669-5.01-23.387-3.347a.1.1,0,0,0-.079.024.1.1,0,0,0-.034.075v7.442l-1.314-.185a.1.1,0,0,0-.024,0l-.617.063v-8.188l26.982,3.9v7.93l-1.441-.2v-7.412A.1.1,0,0,0,2030.55,358.478Zm-.113.233v7.248l-.315-.044v-7.108Zm-4.079-.618v-.015l3.728.534-.052.016Zm3.567.718v7.076l-3.567-.5v-7.094Zm-3.765-.761v7.308l-.263-.038v-7.308Zm-.461-.028v7.271l-.355-.05v-7.137Zm-2.656-.418,2.221.318-.041.009Zm2.1.516v7.1l-5.075-.714v-7.144Zm-5.272-.969v7.323l-.236-.032v-7.325Zm-.433-.035v7.3l-.365-.052v-7.2Zm-.565.056v7.163l-5.267-.742v-7.2Zm-5.467-.946v7.34l-.266-.037v-7.341Zm-.463-.043V363.5l-.363-.051v-7.225Zm-.561.044v7.2l-5.139-.722v-7.2Zm-6.566,19.4V362.7l30.032,4.221v12.7Zm-.785-21.469h-.024l-27.948,2.938-2.368-.35,31.017-3.286,29.428,4.335-2.93.29Zm.588-13.809v12.919l-31.712,3.361h0v-12.76Zm-26.4,2.732v-7.409l.226.082v7.3Zm.359-7.49-.026-.009,7.1-.8v.017Zm7.078-.6v7.261l-7.011.778v-7.25Zm.2,7.239v-7.477l.381-.043v7.478Zm.578-.065v-7.425l.228.082v7.318Zm.351-7.509-.018-.006,4.82-.546Zm6.9-.593v7.3l-6.827.759v-7.273Zm.2,7.276v-7.495l.387-.043v7.495Zm.584-.065V333.82l.21.061v7.367Zm.407-.046v-7.309l7.328-.833v7.328Zm34.679-4.641-23.389-3.74a.1.1,0,0,0-.113.1v7.4l-1.314-.2a.073.073,0,0,0-.026,0l-.591.066v-8.1l26.942,4.3v7.815l-1.425-.221v-7.3A.1.1,0,0,0,2030.552,336.585Zm-.115.228v7.145l-.317-.049V336.9Zm-2.8-.494,2.44.39-.016,0Zm2.289.574v6.985l-3.579-.554v-7.015Zm-3.777-.812v7.213l-.266-.042v-7.213Zm-.465-.033v7.173l-.349-.053v-7.036Zm-5.609-.932v-.006l5.2.832-.045.011Zm5.063,1.022v7l-5.063-.783v-7.037Zm-5.26-1.06v7.245l-.258-.04v-7.246Zm-.453-.034v7.208l-.378-.058v-7.068Zm-5.831-.956v-.015l5.4.863-.03.007Zm5.254,1.038v7.037l-5.254-.813v-7.061Zm-5.451-1.084v7.278l-.252-.039V334Zm-.45-.031v7.24l-.376-.059V334.1Zm-5.545-.928,5.138.822-.08.018Zm4.971,1.026v7.052l-5.123-.792v-7.111Zm-6.55,19.16V340.348L2035.852,345v12.7Zm-.785-21.385a.078.078,0,0,0-.027,0l-27.945,3.242-2.473-.425,31.122-3.619,29.525,4.777-3.029.358Zm.588-13.914v12.921l-31.712,3.689V321.821Zm-26.4,3.006v-7.308l.254.088-.02,7.192Zm.363-7.391-.032-.011,7.089-.881v.018Zm7.057-.675v7.166l-6.988.848.02-7.149Zm.2,7.141v-7.382l.407-.05V320Zm.6-.072v-7.33l.219.074v7.228Zm.35-7.42-.016-.007,6.886-.854v.01Zm6.87-.652V319.1l-6.8.825V312.75Zm.2,7.171v-7.4l.411-.051v7.4Zm.608-.074v-7.347l.216.088v7.233Zm.381-7.4-.092-.037,7.442-.925v.048Zm7.35-.714v7.18l-7.316.889V311.8Zm27.351,3.7-17.513-3.017h0l-5.872-1.013a.1.1,0,0,0-.117.1v7.329l-1.312-.222a.091.091,0,0,0-.028,0l-.591.071v-8.015l26.96,4.709v7.7l-1.443-.245v-7.292A.1.1,0,0,0,2030.552,314.587Zm-4.2-.454v-.069l3.833.66-.147.06Zm3.595.837v6.889l-3.595-.609v-6.915Zm.2-.014.3-.123v7.109l-.3-.05Zm-3.991-.926v7.187l-.274-.046v-7.189Zm-6.086-.989v-.06l5.347.921-.186.072Zm5.087,1.121v6.886l-5.087-.861v-6.944Zm.2-.023.331-.13v7.128l-.331-.056Zm-5.481-1.193v7.207l-.266-.044V312.9Zm-6.259-1.009v-.069l5.5.948-.173.06Zm5.251,1.127v6.919l-5.251-.889v-6.957Zm.2-.021.342-.12v7.151l-.342-.058Zm-5.651-1.209v7.226l-.284-.048v-7.226Zm-6.161-1.02v-.042l5.379.927-.187.064Zm5.143,1.143v6.93l-5.143-.87v-7Zm.2-.036.336-.115v7.172l-.336-.056Zm-6.77,18.976v-12.92l30.032,5.083v12.7Zm-.783-21.3a.139.139,0,0,0-.029,0l-27.945,3.511-2.529-.472,31.176-3.907,29.565,5.251-3.065.364Zm.586-13.978v12.92l-31.712,3.975V299.759Zm-26.4,3.244V291.65l.226.09v7.1Zm.363-7.286-.073-.028,7.122-.947v.039Zm7.049-.736V297.9l-6.988.911v-7.039Zm.2,7.029V290.58l.4-.053v7.3Zm.594-.077v-7.244l.232.08v7.134Zm.373-7.326-.042-.014,6.912-.92h0Zm6.87-.733v7.115l-6.813.888v-7.077Zm.2,7.088v-7.315l.4-.052v7.316Zm.594-.077v-7.272l.22.062v7.182Zm.417-.054v-7.121l7.324-.984v7.15Zm34.679-3.956-4.752-.9h0l-12.773-2.411h0l-5.862-1.108a.1.1,0,0,0-.081.022.094.094,0,0,0-.036.076v7.236l-1.31-.242a.114.114,0,0,0-.032,0l-.6.077v-7.915l26.972,5.046v7.669l-1.443-.267v-7.188A.1.1,0,0,0,2030.556,292.739Zm-4.218-.517v-.079l3.815.721-.113.04Zm3.615.866V299.9l-3.615-.67v-6.8Zm.2-.013.286-.1v7.011l-.286-.053Zm-4.011-.968v7.083l-.256-.047v-7.085Zm-6.064-1.1v-.045l5.282,1-.135.039Zm5.061,1.176v6.823l-5.061-.937v-6.859Zm.2-.011.351-.1v7.037l-.351-.066Zm-5.457-1.247v7.108l-.278-.053v-7.108Zm-6.276-1.13v-.055l5.48,1.035-.139.042Zm5.27,1.21v6.841l-5.27-.976V290Zm.2-.02.33-.1v7.058l-.33-.062Zm-5.667-1.281v7.13l-.292-.055v-7.131Zm-6.159-1.119v-.044l5.375,1.013-.165.056Zm5.117,1.208v6.848l-5.117-.948v-6.906Zm.2-.01.355-.118v7.078l-.355-.066Zm-6.741,18.769V295.629l30.032,5.561v12.7Zm-.781-21.19a.121.121,0,0,0-.033,0l-27.943,3.79-2.555-.477,31.2-4.279,29.622,5.631-3.122.418Zm.584-14.073v12.92l-31.712,4.349V277.8Zm-26.4,3.554v-7.175l.238.073v7.069Zm7.412-8.079v7.026l-6.974.992v-7.027Zm-6.755.76,6.755-.976v.017Zm6.953,6.238v-7.243l.423-.06V275.7Zm.623-.088v-7.2l.217.059v7.109Zm7.232-8.078v7.049l-6.817.969v-7.059Zm-2.878.2,2.878-.415v.011Zm3.076,6.816v-7.26l.4-.058v7.261Zm.6-.085v-7.222l.206.05V274.5Zm.4-.058v-7.079l7.32-1.048v7.086Zm34.675-3.607-4.76-.975h0l-6.274-1.286h0l-12.351-2.531a.1.1,0,0,0-.083.02.093.093,0,0,0-.036.077v7.165l-1.31-.259a.087.087,0,0,0-.032,0l-.6.085v-7.869l26.968,5.441v7.547l-1.443-.285v-7.033A.1.1,0,0,0,2030.556,270.866Zm-.119.227v6.864l-.305-.06v-6.723Zm-4.087-.846v-.04l3.758.77-.068.018Zm3.585.928v6.682l-3.585-.707v-6.7Zm-3.783-1.009v6.944l-.276-.054v-6.947Zm-.473-.05v6.9l-.335-.067V270.2Zm-5.611-1.151v-.046l5.27,1.079-.085.022Zm5.079,1.236v6.711l-5.079-1v-6.742Zm-5.276-1.322v6.99l-.272-.053v-6.993Zm-.47-.05v6.947l-.34-.067v-6.8Zm-5.816-1.156v-.083l5.47,1.122-.119.03Zm5.278,1.256v6.741l-5.278-1.044v-6.751Zm-5.477-1.379v7.038l-.226-.045V267.5Zm-6.139-1.184v-.074l5.4,1.107-.165.047Zm5.131,1.26v6.763l-5.131-1.014v-6.808Zm.2,0,.387-.111v6.99l-.387-.076Zm-6.756,18.59V273.294l30.032,5.934v12.7Zm-.789-21.141a.091.091,0,0,0-.033,0l-29.352,4.324-2.168-.5v-.134l32.258-4.728,29.642,6.054-3.214.462Zm-60.357,274.537v-.455l20.2.544h0a.1.1,0,0,0,.1-.1v-7.966a.1.1,0,0,0-.1-.1l-20.205-.669v-.478l21.509.693v9.013l-20.483-.52Zm.931.165v13.535l-.931,0v-13.5Zm-.931-.818v-7.892l5.278.174V539.1Zm5.477.147v-7.857l.335.01v7.857Zm.532.014v-7.855l.305.01v7.853Zm.5.014V531.28l5.764.191v7.818Zm5.961.16v-7.816l.311.013V539.3Zm.51.014V531.5l.351.012v7.809Zm.548.014v-7.807l6.028.2v7.771Zm6.225.169v-7.771l.347.012V539.5Zm.428-22.728h0a.109.109,0,0,0,.07-.028.1.1,0,0,0,.03-.073V508.7a.1.1,0,0,0-.094-.1l-20.2-.907v-.542l21.49,1.006v8.916l-20.456-.8h-.01l-1.024.075v-.413Zm-20.185-1.028v-7.841l5.26.236v7.823Zm5.457.226v-7.823l.343.016v7.819Zm.54.02v-7.819l.3.014v7.817Zm.494.02v-7.815l5.772.258v7.795Zm5.969.246v-7.795l.325.014v7.793Zm.522.02v-7.791l.335.015v7.791Zm.532.023V508.5l6.052.27v7.769Zm6.249.256v-7.767l.329.016v7.765Zm.41-22.714h0a.1.1,0,0,0,.068-.026.1.1,0,0,0,.032-.073v-7.986a.1.1,0,0,0-.094-.1l-20.183-1.189v-.544l21.539,1.31v8.832l-20.5-1.1-.012,0-1.024.073v-.317Zm-20.173-1.31v-7.866l5.217.307v7.847Zm5.415.3v-7.845l.379.024v7.841Zm.578.032v-7.843l.315.018v7.841Zm.512.028v-7.841l5.744.339V493.2Zm5.941.327v-7.817l.357.02v7.817Zm.554.03v-7.815l.3.018v7.813Zm.492.028v-7.813l6.076.359V493.6Zm6.274.347V485.82l.312.02v7.787Zm.407-22.732,0,0a.1.1,0,0,0,.068-.028.1.1,0,0,0,.032-.071V462.85a.1.1,0,0,0-.092-.1l-20.185-1.492v-.544l21.519,1.61v8.734l-20.483-1.38h-.012l-1.024.075V469.5Zm-20.173-1.576v-7.845l5.28.391v7.815Zm5.477.375v-7.815l.309.024V469.7Zm.508.034V461.9l.321.024v7.809Zm.52.035V461.94l5.75.425v7.775Zm5.947.407v-7.775l.333.024v7.775Zm.53.036v-7.771l.359.026v7.769Zm.556.038v-7.769l6.022.446v7.734Zm6.219.425v-7.734l.321.024v7.733Zm.434-99.651-20.191-2.7v-.48l21.519,2.836v8.37l-1.242-.157V371.1A.1.1,0,0,0,1964.865,371Zm-.113.209v7.634l-.337-.043v-7.547Zm-.534.045v7.52l-6.01-.767v-7.58Zm-6.209-.972v7.7l-.341-.043v-7.7Zm-.538-.045v7.677l-.347-.044v-7.588Zm-.544.047v7.559l-5.756-.734v-7.6Zm-5.953-.941v7.741l-.293-.038V369.3Zm-.49-.031v7.709l-.371-.047v-7.587Zm-.568.085v7.552l-4.2-.537a.112.112,0,0,0-.026,0l-1.018.131V368.67Zm-4.311,7.226v13.534l-.931.082v-13.5Zm.089,13.725,26.722,3.17-6.022.53V393.5a.1.1,0,0,0-.088-.1l-21.632-2.561v-.4Zm20.5,3.241v8.433l-1.209-.137v-7.869a.1.1,0,0,0-.087-.1l-20.227-2.378v-.5Zm-1.407.543v7.731l-.391-.044V394.2Zm-.588.067v7.6l-6.014-.68v-7.633Zm-6.211-.895V401.1l-.331-.038v-7.791Zm-.526-.038v7.769l-.335-.039v-7.686Zm-.534.04v7.668l-5.764-.651v-7.674Zm-5.961-.828V400.3l-.3-.034v-7.823Zm-.5-.026v7.793l-.349-.038V392.52Zm-.548.064v7.666l-4.208-.475a.1.1,0,0,0-.024,0l-1.018.129v-7.957Zm-4.319,7.4v13.535l-.931.08v-13.5Zm.089,13.726,26.6,2.763-5.9.47v-.456a.1.1,0,0,0-.088-.1l-21.63-2.259v-.33Zm20.5,2.866v8.52l-1.244-.121v-7.928a.1.1,0,0,0-.088-.1l-20.189-2.144v-.478Zm-1.443.562v7.817l-.308-.03V417.04Zm-.506-.054v7.823l-6.07-.593v-7.875Zm-6.267-.665v7.877l-.323-.032v-7.88Zm-.52-.057v7.884l-.311-.032v-7.884Zm-.508-.052v7.886l-5.768-.563v-7.936Zm-5.967-.635v7.938l-.315-.03v-7.942Zm-.512-.054V423.5l-.327-.033v-7.946Zm-.524-.057v7.948l-4.234-.413a.076.076,0,0,0-.022,0l-1.018.129V414.94Zm-4.343,7.747v13.534l-.931.081v-13.5Zm.091,13.726,26.422,2.335-5.724.395v-.383a.1.1,0,0,0-.09-.1l-21.63-1.935v-.228Zm20.5,2.438v8.653l-1.338-.11a.092.092,0,0,0,.06-.027.1.1,0,0,0,.032-.072v-7.944a.1.1,0,0,0-.09-.1l-20.187-1.8v-.531Zm-1.445.591v7.746l-.329-.028v-7.749Zm-.526-.049V447.7l-6.032-.51v-7.777ZM1958,439.4v7.777l-.331-.028v-7.779Zm-.53-.048v7.78l-.337-.028v-7.781Zm-.534-.047v7.781l-5.754-.484v-7.809Zm-5.951-.53v7.809l-.313-.026v-7.811Zm-.51-.044v7.811l-.335-.028V438.7Zm-.532-.049V446.5l-5.266-.446v-7.837Zm12.581,9.075-16.809-1.4h-.014l-1.024.074v-.177Zm-16.916-1.2V460.1l-.931.03v-13.5Zm.089,13.73,26.144,1.945-5.448.3v-.3a.1.1,0,0,0-.092-.1l-21.624-1.618v-.194Zm-.089,9.594V483.42l-.931.03v-13.5Zm.085,13.73,25.93,1.514-5.207.282v-.28a.1.1,0,0,0-.095-.1l-21.644-1.318v-.066Zm-.085,9.551V506.7l-.931.028v-13.5Zm.087,13.729,25.323,1.127-4.653.183v-.143a.1.1,0,0,0-.1-.1l-21.593-1.012v-.024Zm20.593,23.992-20.867-.671.276-.01,24.074.727-3.388.083v-.03A.1.1,0,0,0,1966.285,530.887Zm-20.68-14.411V530.01l-.931.031v-13.5Zm.2,23.3,27.475.7v13.29l-27.475-.449Zm26.659.48-6.082-.155v-8.883l6.082-.152ZM1945.8,530.01V516.472l27.475,1.076v13.293Zm26.655-12.692-6.1-.237V508.4l6.1-.24ZM1945.8,506.7v-13.54l27.475,1.469v13.29Zm26.647-12.315-6.037-.323v-8.455l6.037-.331ZM1945.8,483.424v-13.54l27.475,1.852v13.29Zm26.629-11.944-6.042-.408v-8.343l6.042-.328ZM1945.8,460.1V446.563l27.475,2.29v13.292Zm26.623-11.517-6.032-.5V439.9l6.032-.417Zm-26.623-11.8v-13.54l27.475,2.68v13.289Zm26.641-11.142-6.052-.588v-7.977l6.052-.48ZM1945.8,413.457V399.918l27.475,3.106v13.29Zm26.641-10.727-6.05-.684v-7.8l6.05-.534ZM1945.8,390.164V376.625l27.475,3.508v13.29Zm20.587-11.11v-7.636l6.058-.59v9Zm0-7.836v-.647a.1.1,0,0,0-.084-.1l-21.632-2.85v-.5l1.02-.087,26.821,3.584Zm-1.531-23.118-20.185-3.018v-.5l21.515,3.164v8.277l-1.246-.178V348.2A.1.1,0,0,0,1964.859,348.1Zm-.115.211v7.507l-.341-.05v-7.413Zm-.54.041v7.389l-6.012-.858v-7.445Zm-6.209-1.078v7.58l-.329-.046v-7.582Zm-.526-.055v7.561l-.333-.047v-7.484Zm-.53.025v7.46l-5.748-.82v-7.463Zm-5.947-1.016v7.628l-.321-.047V346.18Zm-.518-.047v7.6l-.337-.047v-7.5Zm-.534.056v7.469l-4.222-.6a.112.112,0,0,0-.026,0l-1.018.13v-7.779Zm-4.335,7.077v13.534l-.931.08V353.433Zm.2,13.54V353.316l27.475,3.919v13.29Zm20.583-10.8V348.6l6.058-.687v9Zm0-7.649v-.742a.1.1,0,0,0-.084-.1l-21.628-3.181V343.8l1.018-.064,26.919,3.96Zm-1.509-23.273-20.2-3.292v-.48l21.513,3.506V333l-1.227-.191v-7.58A.1.1,0,0,0,1964.877,325.13Zm-.115.211v7.434l-.359-.055v-7.327Zm-.556.046v7.3l-6.018-.939v-7.336Zm-6.215-1.178v7.509l-.327-.051v-7.512Zm-.524-.054v7.481l-.345-.054v-7.376Zm-.542.054v7.343l-5.756-.9v-7.38Zm-5.953-1.144v7.557l-.3-.046v-7.56Zm-.5-.044v7.524l-.335-.053v-7.4Zm-.449-.11-.031.006-5.32-.875v0Zm-.085.2v7.353l-4.22-.659h-.026l-1.02.108v-7.666Zm-4.335,6.9v13.535l-.931.058V330.108Zm.2,13.545V330.015l27.475,4.291V347.6Zm26.641-9.579-6.058-.946v-7.31l6.058-.687Zm-6.058-8.456v-.738a.1.1,0,0,0-.084-.1l-21.628-3.525v-.551l1.022-.154,26.956,4.356Zm-1.517-23.354-20.2-3.557v-.458l21.517,3.837v8.023l-1.24-.211v-7.535A.1.1,0,0,0,1964.869,302.165Zm-.117.222v7.378l-.347-.059v-7.242Zm-6.491-1.185,6.086,1.073-.032.007Zm5.945,1.262v7.208l-6.012-1.026v-7.254ZM1958,301.156v7.457l-.3-.052V301.1Zm-.5-.053v7.424l-.373-.065v-7.29Zm-6.312-1.142v-.005l5.85,1.031-.032.006Zm5.74,1.219v7.249l-5.74-.979v-7.288Zm-5.937-1.259v7.5l-.315-.055v-7.5Zm-.514-.052v7.459l-.339-.057v-7.329Zm-.419-.112-.045.01-5.336-.941v-.016Zm-.119.2v7.282l-4.216-.719a.13.13,0,0,0-.034,0l-1.012.2v-7.686Zm-4.331,6.781v13.531l-.931.141V306.915Zm.2,13.535V306.732l27.475,4.689v13.288Zm26.641-9.192-6.054-1.034v-7.155l6.054-.767Zm-6.054-8.388V301.9a.1.1,0,0,0-.084-.1l-21.632-3.856v-.657l1.022-.154,27.02,4.75Zm-1.525-23.447-20.191-3.874v-.456l21.5,4.11v7.961l-1.232-.228v-7.415A.1.1,0,0,0,1964.865,279.243Zm-.119.217v7.26l-.327-.06v-7.139Zm-.526.056v7.106l-6.016-1.111v-7.139Zm-6.016-1.346v0l1.56.3Zm-.2-.041v7.345l-.341-.064v-7.347Zm-.538-.061v7.306l-.339-.063v-7.167Zm-6.3-1.226v-.024l5.909,1.134-.059.014Zm5.76,1.307v7.126l-5.76-1.064v-7.167Zm-5.957-1.369v7.395l-.307-.058v-7.4Zm-.5-.051v7.352l-.343-.063v-7.2Zm-.351-.113-.085.022-5.36-1.045v-.022Zm-.189.2v7.162l-4.208-.778a.108.108,0,0,0-.036,0l-1.012.2v-7.6Zm-4.325,6.6v13.531l-.931.14V283.6Zm.2,13.536V283.42l27.475,5.077v13.289Zm26.637-8.815-6.066-1.122v-6.965l6.066-.822Zm-6.066-8.288v-.913a.1.1,0,0,0-.081-.1l-21.619-4.132v-.727l1.02-.154,27.068,5.161Zm-.078-23.9-21.622-4.438v-1.178l28.02,5.774-6.32.9v-.961A.1.1,0,0,0,1966.3,255.951Zm-.119.178v7.85l-1.232-.246v-7.3a.1.1,0,0,0-.078-.1l-20.193-4.181v-.437Zm-1.431.418v7.147l-.319-.065V256.6Zm-1.762-.4,1.331.275h-.008Zm1.246.463v6.982l-6.042-1.206v-7.039Zm-6.239-1.5v7.234l-.315-.064v-7.236Zm-.514-.069v7.2l-.361-.073V255.1Zm-6.29-1.32v-.02l5.859,1.213-.014,0Zm5.732,1.375v7.033l-5.732-1.145v-7.06Zm-5.929-1.435v7.284l-.327-.065v-7.287Zm-.524-.069v7.248l-.331-.066v-7.118Zm-.4-.123-.047.009-5.34-1.077v-.048Zm-.123.194v7.071l-4.214-.841a.081.081,0,0,0-.038,0l-1.012.2V252.6Zm-4.333,6.447v13.532l-.931.14V260.291Zm.2,13.538V260.112l27.475,5.488v13.287Zm20.571-9.631v-6.809l6.894-.982.077.016a.076.076,0,0,0,.022,0,.1.1,0,0,0,.1-.1v-.331l32.173-4.891v12.924l-32.161,4.714v-3.044a.1.1,0,0,0-.081-.1Zm36.412-27.872,12.422,2.772V244.2l-12.422-2.709Zm-12.678,1.968,12.48-1.984v5.321l-.574-.126v-1.492a.1.1,0,0,0-.079-.1l-7.476-1.617a.094.094,0,0,0-.037,0l-4.171.64-.143-.03Zm11.706,1.8v1.369l-7.279-1.588V238.34Zm-7.476-1.581v1.32l-3.549-.775Zm-7.189-42.4,1.429.073V238.4l-1.429-.312Zm-14.987,39.089,60.385,13.168V256.4l-26.781-5.689a.077.077,0,0,0-.034,0l-32.266,4.9v-13a.1.1,0,0,0-.079-.1l-1.225-.261Zm-.2.009v7.185l-19.122-4.08Zm1.3,7.666v13.333l-68.7-14.158V228.03ZM1930.656,539.2l-26.2-.689-.369.008v-9.385l25.178.7,1.393-.016Zm2.722.27v13.609l-28.821-.524,0-13.843Zm-67.522-290.988.264-.062.133.025-.3.067Zm.038.218V546.56h-.316V248.606Zm-.85-19.154,6.585-1.185v5.06l-5.581.954a.1.1,0,0,0-.081.1v1.87l-.923.172Zm-.093-.185-.065-.02,6.743-1.2v.013Zm36.416,14.976a.1.1,0,0,0-.079-.024l-7.465,1.227h0l-22.284,3.66a.1.1,0,0,0-.084.1v7.681l-1.886.3v-8.27l34.318-5.558v8.335l-2.483.4v-7.771A.094.094,0,0,0,1901.367,244.341Zm-7.032,1.351-.066-.02,6.936-1.14v.026Zm6.87-.933v7.46l-6.783,1.086v-7.427Zm-6.982,1.1v7.472l-.285.047v-7.607Zm-.483-.106v7.656l-.421.067v-7.654Zm-7.56,1.283-.092-.026,7.034-1.155v.036Zm6.942-.944v7.416l-6.893,1.1v-7.383Zm-7.092,1.108v7.443l-.286.047v-7.573Zm-.483-.1v7.623l-.407.064v-7.619Zm-7.348,1.262-.114-.035,6.857-1.127h0Zm6.743-.96v7.418l-6.676,1.068v-7.337Zm-6.876,1.126v7.392l-.3.048v-7.535Zm-.5-.117V256l-.437.069v-7.586Zm-5.479.937-.081-.024,4.926-.808v.008Zm4.845-.623v7.377l-4.781.765v-7.329Zm-4.978.791V256.9l-.3.047v-7.517Zm32.405,2.4v13.84l-38.2,5.852V258.03Zm23.308-3.237-22.046-4.492a.1.1,0,0,0-.083.021.1.1,0,0,0-.036.076v7.624l-1.026-.205a.1.1,0,0,0-.034,0l-.355.058v-8.316l26.559,5.417v8.06l-2.9-.578v-7.566A.1.1,0,0,0,1927.665,248.678Zm-6.884-1.142v-.058l6.481,1.321-.153.051Zm6.227,1.5V256.2l-6.227-1.241v-7.216Zm.2-.005.34-.113v7.39l-.34-.069Zm-6.622-1.588v7.476l-.323-.064v-7.478Zm-7.092-1.394v-.051l6.27,1.278-.137.041Zm6.042,1.451v7.21l-6.042-1.205v-7.253Zm.2-.009.331-.1v7.426l-.331-.067Zm-6.438-1.533v7.507l-.369-.073v-7.51Zm-7.6-1.487V244.4l6.731,1.371-.137.043ZM1912.2,246v7.24l-6.507-1.3v-7.277Zm.2-.011.324-.1v7.457l-.324-.065Zm-11.054,22.1a.1.1,0,0,0-.079-.022l-29.7,4.578a.1.1,0,0,0-.085.1v7.79l-1.916.285v-8.352l34.318-5.2v8.452l-2.5.372v-7.922A.1.1,0,0,0,1901.348,268.091Zm-7.006,1.274-.06-.018,6.9-1.064v.04Zm6.843-.842v7.6l-6.773,1.008v-7.572Zm-6.972,1.009v7.623l-.273.041v-7.748Zm-.47-.1v7.8l-.419.063v-7.794Zm-7.578,1.2-.074-.021,7.035-1.084v.011Zm6.961-.893v7.58l-6.9,1.026v-7.521Zm-7.094,1.061v7.574l-.289.043v-7.7Zm-.487-.105v7.751l-.411.061v-7.749Zm-7.348,1.14-.021,0,6.76-1.041v.012Zm6.739-.833v7.534l-6.674.994v-7.5Zm-6.874,1.006v7.551l-.3.044,0-7.667Zm-.5,7.625-.415.062v-7.7l.414-.064Zm-.613-7.418v7.509l-4.793.714v-7.48Zm-4.991.734v7.518l-.277.041v-7.633Zm32.4,2.9v13.841l-38.2,5.418V281.527Zm-3.021,16.029a.1.1,0,0,0-.078-.023l-29.706,4.224a.1.1,0,0,0-.086.1v7.878l-1.9.261v-8.442l34.318-4.816v8.555l-2.516.344v-8A.1.1,0,0,0,1901.336,291.876Zm-6.987,1.178-.044-.012,6.867-.978v.018Zm6.823-.772v7.7l-6.732.922v-7.662Zm-6.929.947v7.7l-.3.04v-7.831Zm-.494-.109V301l-.416.058v-7.877Zm-.615.262v7.7l-6.908.947v-7.656Zm-7.107.986v7.689l-.281.038v-7.8Zm-.478-.082v7.836l-.391.054v-7.834Zm-7.017,1,6.427-.915v.013Zm6.427-.7V302.2l-6.692.917v-7.6Zm-6.891.933v7.632l-.3.041v-7.732Zm-.5-.094v7.8l-.405.055v-7.793Zm-.6.262V303.3l-4.787.656v-7.576Zm-4.985.688v7.611l-.319.043V296.3Zm32.373,3.374v13.84l-38.2,4.972V304.979Zm-3.021,15.916a.094.094,0,0,0-.077-.024l-29.724,3.877a.1.1,0,0,0-.087.1v7.921l-1.88.236v-8.492l34.318-4.415v8.608l-2.516.314v-8.05A.094.094,0,0,0,1901.336,315.661Zm-.164.379v7.77l-6.724.842v-7.733Zm-6.921.863v7.773l-.3.037V316.83Zm-.5-.087v7.923l-.42.052V316.87ZM1886.226,318l6.91-.92v7.739l-6.91.866Zm-.065-.191h0l.079-.011Zm-.133.169v7.732l-.274.034V317.9Zm-.473-.09v7.88l-.4.051v-7.879Zm-.6.259v7.7l-6.677.836v-7.646Zm-6.875.881V326.7l-.314.04v-7.8Zm-.512-.1v7.839l-.423.053v-7.837Zm-.621.25v7.666l-4.766.6v-7.649Zm-4.965.615v7.674l-.334.043v-7.777Zm32.376,3.818v13.841l-38.2,4.522V328.395Zm-3.045,15.835a.1.1,0,0,0-.078-.024l-29.659,3.53a.1.1,0,0,0-.087.1v8.065l-1.92.221V342.7l34.318-4.024v8.7l-2.541.293v-8.154A.1.1,0,0,0,1901.312,339.445Zm-1.221.311,1.056-.126v.006Zm1.056.08V347.7l-6.7.773v-7.875Zm-6.9.753v7.9l-.306.035v-7.991Zm-.5-.078v8.038l-.425.049v-8.036Zm-.623.234v7.875l-6.888.794v-7.845Zm-7.086.815v7.877l-.286.034V341.5Zm-.483-.074v8.007l-.424.049v-8Zm-.623.236v7.843l-6.647.766v-7.8Zm-6.846.8v7.833l-.336.04v-7.944Zm-.534-.08v7.976l-.409.047v-7.975Zm-.606.214v7.831l-4.746.547v-7.8Zm-4.944.57v7.832l-.316.036v-7.924Zm32.355,4.3v13.842l-38.2,4.14V351.928Zm-3.02,15.692a.1.1,0,0,0-.077-.025l-7.426.791a.079.079,0,0,0-.035,0l-22.249,2.369a.1.1,0,0,0-.088.1v8.125l-1.894.192v-8.655h0l34.317-3.64v8.8l-2.516.256v-8.237A.1.1,0,0,0,1901.337,363.217Zm-.165.348v7.984l-6.738.687v-7.981Zm-6.937.684v8.007l-.307.031V364.2Zm-.5-.056v8.114l-.421.044v-8.113Zm-.619.218v7.96l-6.868.7v-7.936Zm-7.067.712v7.968l-.292.03v-8.049Zm-.49-.059v8.077l-.438.045V365.11Zm-.635.218v7.924l-6.644.677V366Zm-6.842.7V373.9l-.294.031v-8.011Zm-.492-.068v8.042l-.445.045v-8.04Zm-.643.256v7.851l-4.744.484v-7.852Zm-4.943.475v7.88l-.34.035v-7.983Zm32.357,4.78v13.842l-38.2,3.632v-13.58Zm-3.027,15.616a.107.107,0,0,0-.076-.026l-29.7,2.845a.1.1,0,0,0-.09.1v8.105l0,.014-1.9.168v-8.72l34.318-3.249v8.914l-2.526.225,0,0v-8.3A.1.1,0,0,0,1901.33,387.039Zm-.166.181v8.1l-6.727.6v-8.055Zm-6.925.663v8.055l-.3.028v-8.052Zm-.5.049v8.05l-.414.039v-8.049Zm-.611.058v8.047l-6.913.619v-8Zm-7.111.681v8l-.276.026v-8Zm-.474.046v8l-.384.036v-8Zm-.584.055v7.994l-6.706.6v-7.95Zm-6.9.663v7.948l-.313.028v-7.948Zm-.511.048v7.946l-.394.035v-7.942Zm-.592.057v7.942l-4.787.427V390Zm-4.986.477v7.91l-.309.026v-7.9Zm32.39,5.329v13.843l-38.2,3.137V398.745Zm0,23.9v13.842l-38.2,2.715V422.225Zm-34.789,2.512v-8.836l34.318-2.848v9.01Zm34.789,21.356V456.96l-38.2,2.317V445.7Zm-34.789,2.152v-8.963l34.318-2.431v9.077Zm34.789,21.755v13.843l-38.2,1.821v-13.58Zm-34.789,1.7v-8.958l34.318-2.1v9.186Zm34.789,22.194v13.842l-38.2,1.4V492.581Zm-34.789,1.316v-9.081l34.318-1.683v9.27Zm34.789,22.578v13.843l-38.2.979V516.057Zm-34.789.934v-9.2l34.318-1.24v9.319Zm-.022,14.011-.191-.006,35.1-.9,22.343.719-22.8-.633Zm34.34-.618v9.387l-34.318.729v-9.3Zm-34.516-13.385-3.278.106v-9.5l3.278.18Zm0-23.51-3.278.141v-9.492l3.278.25Zm0-23.51-3.278.179v-9.431l3.278.27Zm0-23.454-3.278.222v-9.49l3.278.28Zm0-23.5-3.278.256v-9.5l3.278.368Zm0-23.516-3.278.292v-9.445l3.278.395Zm0-23.471-3.278.335V365.72l3.278.375Zm0-23.432-3.278.378V342.19l3.278.493Zm0-23.566-3.278.411v-9.429l3.278.485Zm0-23.454-3.278.45v-9.465l3.278.523Zm0-23.49-3.278.488v-9.509l3.278.617Zm0-23.533-3.278.524v-9.152l.667-.152,2.611.458Zm-3.278,272.521,3.278.113v9.31l-3.278.069Zm.068,9.689,38.2-.81v13.843l-38.2.546Zm38.4-10.87,0-13.841,28.823,1.161v13.607Zm26.1-12.988-26.2-1.056-.367.012V505.31l25.18,1.154,1.389-.05Zm-1.386-9.4-25.253-1.159-34.467,1.247-1.31-.072,36.216-1.326L1931.1,506.2Zm-24.711-1.5,0-13.842,28.823,1.578V506.11Zm26.079-12.611-26.184-1.435-.367.016v-9.262l25.18,1.552h.011l1.36-.059Zm-1.365-9.327L1904,481.266h-.012l-34.444,1.692-1.881-.145,36.793-1.753,27.137,1.665Zm-24.714-1.956,0-13.843,28.823,2v13.609Zm26.075-12.231-26.17-1.818h-.012l-.365.021v-9.176L1929.3,459.6h.014l1.314-.079Zm-1.32-9.234-25.286-1.942h-.014l-34.46,2.107-2.1-.173,37-2.243,27.57,2.086Zm-24.755-2.442,0-13.841,28.823,2.414v13.607Zm7.621-13.587-6.469-.584v-8.035l6.469.615Zm.2.018v-8l.352.034v8Zm.552.051v-8l.353.032v8Zm.552.05v-8l6.042.573v7.972Zm6.239.564v-7.97l.343.032v7.968Zm.54.049v-7.969l.315.031v7.966Zm.512.046v-7.966l6.231.592v7.938Zm6.431.582V436.8l.359.035v7.936Zm3.45.373-2.892-.242v-8.123a.1.1,0,0,0-.091-.1l-22.052-2.1a.1.1,0,0,0-.075.026.094.094,0,0,0-.032.073v8.232a.1.1,0,0,0,.09.1l4.474.4-5.612-.47h-.014l-.365.025v-9.071l25.168,2.273h.016l1.385-.1Zm-1.391-9.165-25.212-2.277h-.016l-34.5,2.442-2.2-.187,37.127-2.638,27.772,2.45Zm-24.706-2.85,0-13.843,23.09,2.225.006,0h0l5.725.553v13.607Zm1.152-14.078v-8.033l6.453.7v8Zm6.651.685v-8l.366.04v8Zm.564.058v-8l.351.038v8Zm.548.057V411.82l6.052.655v7.965Zm6.249.645v-7.965l.343.039V420.5Zm.54.056v-7.962l.353.038v7.96Zm.55.057v-7.959l6.177.667.041,7.932Zm6.375-7.272.377.043v7.924l-.337-.034Zm3.48,8.267-2.9-.28v-8.033a.1.1,0,0,0-.089-.1l-22.052-2.384a.1.1,0,0,0-.109.1v8.234a.084.084,0,0,0,.01.039l-1.056-.1h-.018l-.363.028v-9l25.134,2.6a.028.028,0,0,0,.018,0l1.429-.107Zm-1.435-9.089-25.216-2.61H1904l-34.441,2.858-2.474-.278,37.373-3.071,27.9,2.868Zm-24.674-3.289,0-13.842,28.823,3.2v13.607Zm1.152-13.913v-8.055l6.459.74v8.031Zm6.657.738v-8.031l.368.042v8.029Zm.566.062v-8.029l.336.041v8.027Zm.534.061v-8.027l6.064.693v8.005Zm6.261.693v-8l.331.037v8Zm.528.058v-8l.329.038v8Zm.526.059v-8l6.213.712v7.978Zm6.411.711v-7.976l.371.042V397.7Zm3.458.383-2.888-.32v-8.086a.1.1,0,0,0-.089-.1l-22.05-2.525a.112.112,0,0,0-.079.024.105.105,0,0,0-.032.074v8.144l-1.046-.115a.061.061,0,0,0-.02,0l-.361.032v-8.9l25.152,3.011h.02l1.393-.109Zm-1.4-8.96-25.22-3.016a.03.03,0,0,0-.023,0l-34.452,3.26-2.57-.31,37.47-3.561,28.02,3.375Zm-24.694-3.814,0-13.842,28.823,3.708v13.608Zm7.609-20.889v7.827l-6.445-.83v-7.861Zm-6.445-1.064v-.006l3.064.418Zm6.645,8.916v-7.858l.364-.074v7.979Zm.564.072v-8.012l.346.046v8.011Zm.544.071v-7.818l6.042.779v7.816Zm6.239.8v-7.842l.351-.046v7.933Zm.548.071v-7.959l.329.046v7.955Zm.528.068v-7.807l6.2.826v7.778Zm6.4.822v-7.8l.391-.033v7.882Zm3.474.448-2.886-.371V366.2a.1.1,0,0,0-.084-.1l-22.057-3a.1.1,0,0,0-.079.023.1.1,0,0,0-.034.075v8.155l-1.056-.136h-.022l-.361.037v-8.781l25.189,3.343a.1.1,0,0,0,.024,0l1.366-.14Zm-1.374-8.968-25.259-3.353a.1.1,0,0,0-.025,0l-34.447,3.653-2.6-.3,37.5-4.065,28.171,3.719Zm-24.733-4.248,0-13.841,28.823,4.039v13.607Zm7.585-20.6v7.623l-6.441-.9v-7.681Zm-2.388-.557,2.527.36-.044.011Zm2.585,8.208v-7.658l.385-.088v7.8Zm.583.081v-7.837l.353.05v7.837Zm.55.078v-7.67l6.028.881v7.633Zm6.225.871v-7.663l.373-.07V349.5Zm.57.081v-7.819l.337.047v7.819Zm6.709-6.649v7.589l-6.175-.865v-7.629Zm-3.341-.689,3.474.5-.036.007Zm3.539,8.305v-7.622l.364-.078v7.752Zm3.482.489-2.92-.41v-7.914a.1.1,0,0,0-.085-.1l-22.034-3.143a.1.1,0,0,0-.113.1v7.942l-1.034-.145a.077.077,0,0,0-.026,0l-.359.042v-8.685l25.18,3.7a.121.121,0,0,0,.027,0l1.364-.169Zm-1.376-8.812-25.248-3.71a.112.112,0,0,0-.026,0l-34.48,4.043-2.721-.41,37.651-4.457,28.28,4.107Zm-24.723-4.72,0-13.841,28.823,4.421V341.64Zm7.627-20.424v7.552l-6.469-.991v-7.612Zm-6.469-1.251v-.01l6.618,1.059-.064.016Zm6.667,8.835V317.02l.364-.085v7.734Zm.562.085v-7.772l.343.054v7.771Zm6.572-6.508v7.516l-6.032-.925v-7.56Zm-6.032-1.17v-.008l6.159.986-.03.007Zm6.229,8.716v-7.551l.359-.08v7.687Zm.556.086V318.1l.329.053v7.721ZM1927,319.4v7.455l-6.2-.953V318.4Zm-6.2-1.2v-.012l6.36,1.018-.058.014Zm6.4,8.69v-7.491l.365-.086v7.632Zm3.45.528-2.886-.443v-7.787a.1.1,0,0,0-.084-.1l-22.045-3.532a.1.1,0,0,0-.081.023.1.1,0,0,0-.034.076v7.908l-1.048-.16a.058.058,0,0,0-.026,0l-.359.046v-8.589l25.16,4.071a.14.14,0,0,0,.029,0l1.374-.159Zm-1.383-8.686-25.23-4.081a.07.07,0,0,0-.029,0l-34.479,4.436-2.746-.406,37.675-4.9,28.3,4.551Zm-24.708-5.14,0-13.839,28.823,4.868v13.607Zm7.637-20.248v7.5l-6.469-1.093V292.21Zm-6.469-1.33v-.024l6.544,1.161-.012,0Zm6.667,8.862v-7.546l.344-.061v7.664Zm.542.091v-7.7l.349.062v7.7Zm6.572-6.312v7.422l-6.026-1.017v-7.493Zm-5.788-1.247,5.933,1.053-.051.01Zm5.985,8.7v-7.458l.359-.079v7.6Zm.556.1v-7.637l.329.06v7.633Zm.528.089v-7.474l6.2,1.11v7.411Zm6.4,1.08v-7.439l.362-.045v7.545Zm3.474.587-2.914-.492v-7.69a.1.1,0,0,0-.081-.1l-22.018-3.908a.107.107,0,0,0-.081.022.1.1,0,0,0-.036.077v7.843l-1.056-.178a.1.1,0,0,0-.03,0l-.357.049v-8.533l25.144,4.439a.086.086,0,0,0,.028,0l1.4-.166Zm-1.409-8.666-25.214-4.452a.106.106,0,0,0-.031,0l-34.46,4.837-2.818-.451,37.73-5.351,28.342,5Zm-24.692-5.6,0-13.838,28.823,5.315v13.605Zm7.6-20.017v7.38l-6.449-1.189v-7.422Zm-6.449-1.433v-.007l6.612,1.243-.064.014Zm6.647,8.849V269.67l.372-.079v7.566Zm.572.1v-7.6l.346.066v7.6Zm6.6-6.111v7.328l-6.054-1.116v-7.366Zm-6.054-1.356v-.035l6.245,1.175-.113.028Zm6.251,8.72V271.07l.349-.091v7.532Zm.546.1v-7.578l.327.061v7.577Zm6.731-6.1v7.336l-6.207-1.144v-7.355Zm-6.207-1.364v-.02l6.367,1.2-.039.008Zm6.4,8.737v-7.366l.355-.079v7.51Zm3.454.637-2.9-.535v-7.67a.1.1,0,0,0-.083-.1l-7.478-1.406h0l-14.562-2.738a.106.106,0,0,0-.081.022.094.094,0,0,0-.036.076v7.714l-1.04-.193a.085.085,0,0,0-.032,0l-.357.053v-8.426l25.209,4.79a.086.086,0,0,0,.032,0l1.328-.178Zm-1.34-8.608-25.283-4.806a.09.09,0,0,0-.033,0l-34.466,5.226-2.881-.541,37.805-5.792,28.407,5.434Zm-24.757-6.1,0-13.839,28.823,5.747v13.606Zm-.506-22.525a.088.088,0,0,0-.036,0l-34.488,5.586-2.873-.5,37.812-6.268,29.64,6.108-3.376.517Zm.685-57.234.987-.051v19.867l-.987-.226Zm-.943,19.579,27.939,6.368v21.679l-27.246-5.816a.109.109,0,0,0-.036,0l-.657.112Zm.574,22.446v13.84l-38.2,6.333V234.56ZM1898.13,167.6l1.606-.061v38.533l-1.606.292Zm5.465,37.972v22.383l-31,5.3V211.205Zm-42.331,1.041,11.834,2.62v1.677l-.624.114a.1.1,0,0,0-.081.1v1.35l-11.129,2.007Zm11.129,6.06v20.62l-.566.1v-5.359a.1.1,0,0,0-.035-.077.1.1,0,0,0-.081-.021l-7.26,1.287a.1.1,0,0,0-.082.1v7.408a.1.1,0,0,0,.037.075.094.094,0,0,0,.062.024h.02l1.479-.275v5.337l-5.585.97V214.84Zm-7.548,16.865v7.018l-.277.051v-7.155ZM1827.23,580.033V219.458l29.357-5.3.031,199.327.026,166.552Zm32.954,0h-3.342l-.031-193.1-.026-172.777,3.4.681Zm-3.479-366.1a.113.113,0,0,0-.019,0,.115.115,0,0,0-.019,0l-11.383,2.057v-6.452l15.782-2.933v7.906l-.781.141Zm12.665,366.1h-8.988V243.058l5.585-.971v6.17l-.51.117a.1.1,0,0,0-.077.093v0h0V546.658a.1.1,0,0,0,.1.1h.485v6.449a.09.09,0,0,0,.029.07.1.1,0,0,0,.068.031h0l3.307-.049Zm34.516,0h-34.318V553.254l34.318-.491Zm26.77,0h-26.571V552.76l.371-.006,26.2.478Zm3.914,0h-3.715v-26.8l2.622.048a.106.106,0,0,0,.071-.028.1.1,0,0,0,.03-.07V539.377a.1.1,0,0,0-.1-.1l-2.626-.068v-9.393l2.624-.032h0a.088.088,0,0,0,.067-.029.1.1,0,0,0,.032-.07V515.879a.1.1,0,0,0-.1-.1l-2.628-.1v-9.268l2.628-.1h0a.1.1,0,0,0,.065-.028.1.1,0,0,0,.032-.071V492.406a.1.1,0,0,0-.095-.1l-2.65-.145v-9.208l2.648-.114v0a.108.108,0,0,0,.065-.025.1.1,0,0,0,.032-.072V468.934a.1.1,0,0,0-.093-.1l-2.656-.186v-9.139l2.654-.163h0a.1.1,0,0,0,.063-.026.1.1,0,0,0,.032-.073v-13.8a.1.1,0,0,0-.093-.1l-2.632-.222v-9.1l2.632-.185h0a.11.11,0,0,0,.061-.024.1.1,0,0,0,.032-.073V421.939a.1.1,0,0,0-.091-.1l-2.623-.254v-9.03l2.621-.2v0a.1.1,0,0,0,.093-.1V398.455a.1.1,0,0,0-.089-.1l-2.642-.292v-8.907l2.638-.206v0a.1.1,0,0,0,.059-.022.1.1,0,0,0,.034-.074V375.046a.1.1,0,0,0-.089-.1l-2.628-.337v-8.957l2.626-.268v0a.107.107,0,0,0,.057-.021.1.1,0,0,0,.034-.075V351.481a.1.1,0,0,0-.087-.1l-2.638-.37V342.18l2.636-.327v0a.088.088,0,0,0,.053-.022.091.091,0,0,0,.036-.075v-13.8a.1.1,0,0,0-.085-.1l-2.648-.406v-8.7l2.644-.306v0a.1.1,0,0,0,.053-.02.1.1,0,0,0,.036-.076v-13.8a.1.1,0,0,0-.083-.1l-2.64-.445V295.3l2.634-.313v0a.092.092,0,0,0,.053-.021.1.1,0,0,0,.036-.075V281.083a.1.1,0,0,0-.08-.1l-2.647-.488v-8.652l2.64-.355v0a.108.108,0,0,0,.051-.02.1.1,0,0,0,.036-.077v-13.8a.1.1,0,0,0-.08-.1l-2.657-.529v-8.1l3.729-.572Zm9.9,0h-9.707V248.293l9.707,2Zm21.7,0h-21.5V553.5l1.02.006,20.483.337Zm6.289,0h-6.092V553.849l6.092.1Zm4.77,0h-4.572V553.951l.711.013h0a.1.1,0,0,0,.069-.029.094.094,0,0,0,.03-.07V540.377a.1.1,0,0,0-.1-.1l-.721-.016v-9.2l.719-.016h0a.118.118,0,0,0,.069-.028.107.107,0,0,0,.03-.072V517.455a.1.1,0,0,0-.1-.1l-.725-.029v-9.171l.725-.028v0a.087.087,0,0,0,.065-.026.1.1,0,0,0,.032-.071v-13.49a.1.1,0,0,0-.095-.1l-.735-.038V485.27l.735-.04h0a.1.1,0,0,0,.063-.027.1.1,0,0,0,.032-.072V471.643a.1.1,0,0,0-.095-.1l-.753-.05v-9.1l.753-.04v0a.106.106,0,0,0,.063-.027.1.1,0,0,0,.032-.072V448.762a.1.1,0,0,0-.091-.1l-.764-.062v-9.129l.762-.053h0a.1.1,0,0,0,.061-.026.1.1,0,0,0,.032-.073V425.832a.1.1,0,0,0-.091-.1l-.745-.073V416.58l.743-.058v0a.082.082,0,0,0,.059-.024.094.094,0,0,0,.034-.073V402.935a.1.1,0,0,0-.089-.1l-.747-.084V393.7l.745-.066v0a.085.085,0,0,0,.057-.023.1.1,0,0,0,.034-.074V380.046a.1.1,0,0,0-.087-.1l-.743-.1v-9.044l.739-.071h0a.1.1,0,0,0,.091-.1V357.15a.1.1,0,0,0-.087-.1l-.749-.108v-9.051l.747-.085h0a.1.1,0,0,0,.055-.022.106.106,0,0,0,.034-.076V334.221a.1.1,0,0,0-.085-.1l-.751-.117v-9l.747-.085v0a.09.09,0,0,0,.053-.022.1.1,0,0,0,.036-.075V311.338a.1.1,0,0,0-.083-.1l-.753-.127V302.1l.749-.094v0a.084.084,0,0,0,.051-.022.1.1,0,0,0,.036-.075V288.416a.1.1,0,0,0-.083-.1l-.757-.14v-8.971l.753-.1h0a.1.1,0,0,0,.051-.02.1.1,0,0,0,.036-.076V269.1l2.142.495a.088.088,0,0,0,.036,0l29.258-4.309v7.9l-1.516.214v-7.363a.1.1,0,0,0-.034-.076.1.1,0,0,0-.079-.022l-24.179,3.491a.1.1,0,0,0-.086.1v7.338l-5.224.743a.1.1,0,0,0-.084.1V290.67a.1.1,0,0,0,.034.075.1.1,0,0,0,.079.024l.06-.009,3.156.589a.075.075,0,0,0,.03,0l27.839-3.775v7.943l-1.512.2V288.29a.107.107,0,0,0-.032-.075.1.1,0,0,0-.079-.023l-15.976,2.124h0l-8.2,1.092a.1.1,0,0,0-.086.1v7.388l-5.222.681a.1.1,0,0,0-.086.1V312.63a.1.1,0,0,0,.034.075.093.093,0,0,0,.077.024l.064-.008,3.154.588a.1.1,0,0,0,.03,0l27.851-3.5v8.046l-1.524.184v-7.516a.1.1,0,0,0-.032-.074.1.1,0,0,0-.079-.024l-7.926.984h0l-16.253,2.019a.1.1,0,0,0-.088.1V321l-5.222.634a.1.1,0,0,0-.086.1v12.958a.094.094,0,0,0,.034.073.09.09,0,0,0,.077.025l.072-.008,3.148.542a.131.131,0,0,0,.028,0l27.851-3.232v8.13l-1.524.169v-7.6a.1.1,0,0,0-.109-.1l-24.181,2.734a.1.1,0,0,0-.088.1V343.1l-5.22.58a.1.1,0,0,0-.088.1v12.958a.1.1,0,0,0,.034.074.1.1,0,0,0,.077.024l.084-.009,3.138.465a.075.075,0,0,0,.026,0l27.827-2.924v8.206l-1.5.152v-7.644a.1.1,0,0,0-.109-.1l-24.178,2.519a.1.1,0,0,0-.091.1v7.608l-5.218.532a.1.1,0,0,0-.09.1v12.958a.1.1,0,0,0,.032.073.11.11,0,0,0,.076.026l.1-.01,3.126.4h.022l27.829-2.659v8.314l-1.5.135v-7.745a.09.09,0,0,0-.032-.072.094.094,0,0,0-.074-.026l-24.181,2.281a.1.1,0,0,0-.091.1v7.662l-5.218.471a.1.1,0,0,0-.09.1V400.8a.1.1,0,0,0,.106.1l.107-.01,3.122.394h.022l27.829-2.333v8.327l-1.518.123a.089.089,0,0,0,.018-.055v-7.73a.094.094,0,0,0-.032-.073.1.1,0,0,0-.074-.026l-24.179,1.981a.1.1,0,0,0-.093.1v7.646a.114.114,0,0,0,.032.074.106.106,0,0,0,.067.026h.008l12.172-.955-17.495,1.427a.1.1,0,0,0-.092.1v12.958a.1.1,0,0,0,.032.072.1.1,0,0,0,.074.027l.131-.01,3.1.316h.018l27.855-2.1V429.6l-31.118,2.176a.1.1,0,0,0-.092.1v12.958a.106.106,0,0,0,.032.073.1.1,0,0,0,.074.026l.14-.01,3.091.314a.045.045,0,0,0,.016,0l27.857-1.729v8.46l-31.116,1.852a.1.1,0,0,0-.094.1v12.958a.1.1,0,0,0,.032.072.089.089,0,0,0,.073.026l.159-.008,3.075.285h.014l27.857-1.53v8.593l-31.116,1.532a.1.1,0,0,0-.094.1v12.958a.1.1,0,0,0,.03.073.1.1,0,0,0,.075.026l.2-.008,3.035.232h.012l27.859-1.151v8.581l-31.116,1.235a.1.1,0,0,0-.094.1v12.958a.1.1,0,0,0,.03.071.1.1,0,0,0,.072.028l.305-.01,2.944.133,27.859-.889v8.724l-31.114.905a.1.1,0,0,0-.1.1v12.958a.1.1,0,0,0,.03.072.106.106,0,0,0,.072.029l.41-.01,2.839.1,27.859-.592v8.74l-31.112.631a.1.1,0,0,0-.1.1V555a.1.1,0,0,0,.03.071.092.092,0,0,0,.07.028l3.424-.052Zm10.427-178.946v7.382l-.248.018v-7.448Zm-.445-.06V408.5l-.405.032v-7.476Zm-.6.183v7.34l-6.964.548v-7.3Zm-7.164.57v7.332l-.232.018v-7.41Zm25.471,178.253h-27.488V555.046l27.488-.413Zm27.161,0h-26.964v-25.4l.593-.008,26.371.5Zm4.43,0h-4.232V555.126l3.607.069h0a.1.1,0,0,0,.07-.028.1.1,0,0,0,.031-.071l.06-12.863a.1.1,0,0,0-.1-.1l-3.671-.1v-8.637l3.611-.127h0a.11.11,0,0,0,.065-.028.1.1,0,0,0,.032-.071l.06-12.863a.1.1,0,0,0-.094-.1l-3.674-.149V511.5l3.613-.177h0a.107.107,0,0,0,.063-.026.1.1,0,0,0,.032-.073l.06-12.863a.1.1,0,0,0-.092-.1l-3.676-.2v-8.438l3.613-.177h0a.114.114,0,0,0,.063-.027.1.1,0,0,0,.032-.072l.06-12.864a.1.1,0,0,0-.092-.1l-3.678-.256v-8.378l3.617-.243h0a.114.114,0,0,0,.061-.027.1.1,0,0,0,.032-.072l.06-12.864a.1.1,0,0,0-.091-.1l-3.689-.309v-8.322l3.627-.244h0a.115.115,0,0,0,.061-.027.1.1,0,0,0,.032-.072l.06-12.863a.1.1,0,0,0-.088-.1l-3.678-.361V423.9l3.613-.27h0a.112.112,0,0,0,.059-.024.1.1,0,0,0,.034-.073l.06-12.863a.1.1,0,0,0-.088-.1l-3.68-.411v-8.122l3.615-.268v0a.1.1,0,0,0,.093-.1l.06-12.864a.1.1,0,0,0-.086-.1l-3.682-.469v-8.081l3.68-.331h0a.09.09,0,0,0,.054-.024.093.093,0,0,0,.034-.074v-12.9a.1.1,0,0,0-.084-.1l-3.688-.519v-7.946l3.684-.364v0a.092.092,0,0,0,.054-.022.1.1,0,0,0,.034-.074v-12.9a.1.1,0,0,0-.082-.1l-3.707-.573v-7.83l3.7-.439h0a.132.132,0,0,0,.052-.022.1.1,0,0,0,.034-.075v-12.9a.1.1,0,0,0-.082-.1l-3.69-.624v-7.715l3.686-.436v0a.093.093,0,0,0,.05-.021.094.094,0,0,0,.036-.076v-12.9a.1.1,0,0,0-.08-.1l-3.692-.683v-7.691l3.688-.494v0a.092.092,0,0,0,.048-.02.1.1,0,0,0,.036-.077v-12.9a.1.1,0,0,0-.08-.1l-3.692-.729v-7.588l3.694-.53h0a.1.1,0,0,0,.084-.1V259.874l.421.11a.093.093,0,0,0,.037,0Zm3.218,0h-3.021V259.959l3.021-.427Zm23.19,0h-22.992V259.54l22.992,4.821Zm23.455-255.707a1.825,1.825,0,0,1-.393.044,1.392,1.392,0,0,1-.161-.009l-.2-.029h0a3.049,3.049,0,0,1-2-3.152,3.785,3.785,0,0,1,2.787-3.831,2.082,2.082,0,0,1,.292-.023c.061,0,.121.005.18.01l.2.028a3.006,3.006,0,0,1,2.086,3.1A3.8,3.8,0,0,1,2086.376,324.326Zm.286.129a4.037,4.037,0,0,0,2.707-3.994,3.529,3.529,0,0,0-1.4-2.933,3.12,3.12,0,0,1,1.814,3.022,3.8,3.8,0,0,1-2.795,3.864A1.7,1.7,0,0,1,2086.662,324.455Zm.625.084v7.571l-.393.044v-7.521c.044-.007.091-.015.137-.025C2087.117,324.589,2087.2,324.564,2087.287,324.539Zm-8.585.724a2.627,2.627,0,0,1-1.828,2.638,2.892,2.892,0,0,0,1.6-2.7,2.572,2.572,0,0,0-.786-1.914A2.247,2.247,0,0,1,2078.7,325.263ZM2077.2,328v5.212l-.327.036v-5.143A2.225,2.225,0,0,0,2077.2,328Zm-1.012-7.239a2.232,2.232,0,0,1-.5.057c-.072,0-.141,0-.211-.01l-.255-.038h0c-1.455-.3-2.573-2.019-2.573-4.079,0-2.429,1.606-4.649,3.579-4.952a2.711,2.711,0,0,1,.381-.028,2.184,2.184,0,0,1,.23.012l.26.036c1.515.3,2.68,1.985,2.68,4.009A4.909,4.909,0,0,1,2076.189,320.763Zm.161.165a5.123,5.123,0,0,0,3.623-5.158,4.441,4.441,0,0,0-1.946-3.857,3.953,3.953,0,0,1,2.529,3.971,4.906,4.906,0,0,1-3.585,4.992A2.251,2.251,0,0,1,2076.35,320.928Zm.861.093v1.9l-.315-.045-.016,0V321.1c.044-.007.089-.016.133-.026C2077.08,321.056,2077.146,321.039,2077.211,321.021Zm-.837,6.841a1.26,1.26,0,0,1-.266.029c-.036,0-.072,0-.107-.005l-.139-.02h0a2.1,2.1,0,0,1-1.354-2.165,2.606,2.606,0,0,1,1.9-2.638,1.284,1.284,0,0,1,.2-.014,1.189,1.189,0,0,1,.119.006l.139.019a2.063,2.063,0,0,1,1.415,2.127A2.617,2.617,0,0,1,2076.374,327.862ZM2066.06,580.033h-2.942V357.845l2.942.485Zm30.475,0h-30.277V508.925l30.277-.971Zm0-72.277-30.277.971V450.852l30.277-1.786Zm0-58.889-30.277,1.787v-57.94l30.277-2.586Zm0-58.938-30.277,2.585V358.246a.1.1,0,0,0-.083-.1l-3.057-.5V334.955l33.417-3.658Zm24.7,190.1h-24.5V548.117l24.5.573Zm0-31.541-24.5-.574v-32.49l24.5,1.127Zm0-32.137-24.5-1.124V482.719l24.5,1.67Zm0-32.165-24.5-1.669V450.046l24.5,2.214Zm0-32.127-24.5-2.215V417.336l24.5,2.767Zm0-32.16-24.5-2.766v-32.47l24.5,3.3Zm0-32.139-24.5-3.3V351.985l24.5,3.84Zm5.171,192.269h-4.974V548.7l4.974.115Zm0-31.42-4.974-.117V516.563l4.974.229Zm0-32.02-4.974-.228V484.4l4.974.339Zm0-32.051-4.974-.338V452.278l4.974.45Zm0-32.014-4.974-.449V420.125l4.974.562Zm0-32.042-4.974-.56V387.99l4.974.669Zm0-32.026-4.974-.669V355.856l4.974.779ZM2150,580.033h-23.4V548.817l23.4.546Zm0-30.868-23.4-.548V516.8l23.4,1.077Zm0-31.488-23.4-1.074V484.754l23.4,1.594Zm0-31.526-23.4-1.6V452.746l23.4,2.114Zm0-31.489-23.4-2.116V420.71l23.4,2.641Zm0-31.51-23.4-2.642V388.685l23.4,3.15Zm0-31.516-23.4-3.15v-31.82l23.4,3.669Zm0-31.5-53.269-8.349V331.3l53.269,9.09Zm28.921,219.9H2150.2v-138.9l28.721-1.769Zm55.149,0H2179.12V439.369l54.951,5.7Z" transform="translate(-1445.488 -15.138)"/><path class="a" d="M1871.547,538.785h0l29.748-.677a.1.1,0,0,0,.1-.1v-8.271a.1.1,0,0,0-.031-.07.085.085,0,0,0-.07-.028l-29.749.761a.1.1,0,0,0-.1.1v8.182a.1.1,0,0,0,.03.073A.107.107,0,0,0,1871.547,538.785Zm22.9-8.773,6.749-.173v8.073l-6.749.153Zm-.544.015.348-.009v8.051l-.348.008Zm-.611.016.413-.013v8.051l-.413.011Zm-7.069.181,6.872-.177V538.1l-6.872.157Zm-.479.012.279-.008v8.029l-.279.006Zm-.6.016.4-.012v8.027l-.4.01Zm-6.894.175,6.695-.171v8.025l-6.695.153Zm-.495.015.3-.008v8l-.3.006Zm-.619.016.42-.012v8l-.42.008Zm-4.974.127,4.776-.123v8l-4.776.109Zm-.52.014.322-.01v7.986l-.322.008Z" transform="translate(-1445.488 -15.138)"/><path class="a" d="M1927.669,530.345l-22.063-.7a.087.087,0,0,0-.072.028.094.094,0,0,0-.03.07v8.22a.1.1,0,0,0,.094.1l22.065.657h0a.09.09,0,0,0,.069-.028.1.1,0,0,0,.032-.071v-8.171A.1.1,0,0,0,1927.669,530.345Zm-15.483,7.71-6.485-.191v-8.023l6.485.206Zm.53.016-.332-.01v-8.006l.332.01Zm.559.016-.359-.01v-8.006l.359.012Zm6.245.186-6.048-.179v-8.005l6.048.193Zm.548.016-.351-.01v-7.991l.351.013Zm.556.018-.357-.01V530.3l.357.012Zm6.364.188-6.164-.182v-7.988l6.164.2Zm.579.018-.381-.012v-7.975l.381.012Z" transform="translate(-1445.488 -15.138)"/><path class="a" d="M1901.26,505.868l-29.7,1.116a.1.1,0,0,0-.1.1v8.105a.1.1,0,0,0,.03.071.1.1,0,0,0,.069.028h0l29.7-.925a.1.1,0,0,0,.1-.1v-8.3a.1.1,0,0,0-.031-.07A.082.082,0,0,0,1901.26,505.868Zm-29.292,9.21-.31.009V507.18l.31-.013Zm4.941-.154-4.743.147v-7.91l4.743-.179Zm.644-.02-.445.014v-7.944l.445-.016Zm.495-.016-.3.01V506.95l.3-.01Zm6.864-.214-6.666.21v-7.952l6.666-.25Zm.627-.018-.43.012v-7.994l.43-.016Zm.492-.016-.3.01v-8l.3-.012Zm7.081-.22-6.882.214v-8l6.882-.26Zm.637-.02-.439.014v-8.051l.439-.016Zm.5-.016-.3.01v-8.053l.3-.012Zm6.918-.213-6.72.207v-8.055l6.72-.254Z" transform="translate(-1445.488 -15.138)"/><path class="a" d="M1927.665,506.892l-22.051-1.024a.1.1,0,0,0-.072.026.1.1,0,0,0-.03.072V514.2a.1.1,0,0,0,.094.1l22.051.923h0a.1.1,0,0,0,.069-.029.1.1,0,0,0,.032-.07v-8.136A.1.1,0,0,0,1927.665,506.892Zm-15.455,7.484-6.5-.272v-8.035l6.5.3Zm.5.022-.3-.014v-8l.3.016Zm.573.025-.373-.017v-8l.373.018Zm6.251.261-6.054-.253v-8l6.054.28Zm.532.023-.335-.015V506.72l.335.016Zm.52.02-.323-.012v-7.971l.323.017Zm6.422.27-6.225-.26v-7.968l6.225.29Zm.557.024-.357-.016v-7.938l.357.018Z" transform="translate(-1445.488 -15.138)"/><path class="a" d="M1901.258,482.112l-29.7,1.431a.1.1,0,0,0-.1.1v8.105a.106.106,0,0,0,.03.071.105.105,0,0,0,.069.028h0l29.7-1.238a.1.1,0,0,0,.1-.1v-8.3a.1.1,0,0,0-.031-.071A.1.1,0,0,0,1901.258,482.112Zm-29.278,9.518-.322.014v-7.908l.322-.016Zm4.962-.206-4.764.2V483.71l4.764-.228Zm.584-.026-.386.017v-7.943l.386-.018Zm.543-.02-.345.012v-7.946l.345-.016Zm6.855-.286-6.657.276v-7.95l6.657-.32Zm.6-.024-.4.016v-8l.4-.02Zm.532-.024-.335.016v-8l.335-.016Zm7.077-.3-6.88.287v-8l6.88-.33Zm.619-.024-.421.016v-8.049l.421-.02Zm.473-.02-.275.012v-8.055l.275-.014Zm6.944-.29-6.745.282V482.64l6.745-.324Z" transform="translate(-1445.488 -15.138)"/><path class="a" d="M1927.667,483.448l-22.05-1.336a.1.1,0,0,0-.075.026.1.1,0,0,0-.03.073v8.234a.1.1,0,0,0,.093.1l22.052,1.237h0a.1.1,0,0,0,.1-.1v-8.133A.1.1,0,0,0,1927.667,483.448Zm-15.465,7.267-6.493-.365v-8.034l6.493.393Zm.526.03-.328-.02v-8l.328.02Zm.542.029-.344-.019v-8l.344.022Zm6.262.352-6.064-.34v-8l6.064.369Zm.52.031-.323-.021v-7.97l.323.018Zm.536.028-.339-.019V483.2l.339.02Zm6.384.358-6.187-.346v-7.968l6.187.374Zm.591.033-.391-.021v-7.94l.391.025Z" transform="translate(-1445.488 -15.138)"/><path class="a" d="M1901.258,458.308l-29.705,1.842a.1.1,0,0,0-.093.1v8.107a.1.1,0,0,0,.032.071.1.1,0,0,0,.067.028l.006,0,29.7-1.649a.1.1,0,0,0,.093-.1v-8.3a.1.1,0,0,0-.032-.073A.1.1,0,0,0,1901.258,458.308Zm-29.284,9.925-.316.018v-7.908l.316-.02Zm4.988-.278-4.79.266v-7.91l4.79-.3Zm.594-.032-.4.022V460l.4-.024Zm.492-.026-.294.016v-7.949l.294-.018Zm6.872-.383-6.674.37v-7.95l6.674-.415Zm.611-.035-.414.024v-8l.414-.026Zm.505-.026-.308.016v-8l.308-.018Zm7.1-.395-6.908.383v-8l6.908-.429Zm.6-.034-.4.022V459l.4-.024Zm.481-.026-.284.016v-8.053l.284-.018Zm6.94-.385-6.742.373v-8.055l6.742-.42Z" transform="translate(-1445.488 -15.138)"/><path class="a" d="M1927.669,460.055l-22.05-1.747a.1.1,0,0,0-.075.026.092.092,0,0,0-.032.073v8.232a.1.1,0,0,0,.09.1l22.053,1.65h.006a.109.109,0,0,0,.069-.026.1.1,0,0,0,.032-.073v-8.135A.1.1,0,0,0,1927.669,460.055Zm-15.459,6.979-6.5-.486v-8.034l6.5.515Zm.518.038-.32-.024v-8l.32.024Zm.553.043-.355-.027v-8l.355.028Zm6.235.465-6.038-.451v-8l6.038.478Zm.548.04-.349-.026v-7.97l.349.028Zm.526.041-.329-.024v-7.971l.329.029Zm6.372.475-6.173-.461v-7.966l6.173.489Zm.6.047-.4-.031v-7.938l.4.033Z" transform="translate(-1445.488 -15.138)"/><path class="a" d="M1901.255,434.548l-29.7,2.191a.1.1,0,0,0-.093.1v8.1a.1.1,0,0,0,.031.072.107.107,0,0,0,.068.027h.006l29.705-2a.1.1,0,0,0,.092-.1v-8.3a.1.1,0,0,0-.107-.1Zm-29.263,10.266-.334.022V436.93l.334-.026Zm4.956-.333-4.758.321V436.89l4.758-.351Zm.6-.04-.406.026v-7.942l.406-.03Zm.5-.034-.3.02v-7.948l.3-.02Zm6.9-.464-6.7.452v-7.952l6.7-.494Zm.6-.04-.4.026v-7.994l.4-.031Zm.475-.032-.278.018v-8l.278-.02Zm7.107-.478-6.909.466v-8.005l6.909-.508Zm.6-.04-.4.028V435.33l.4-.028Zm.495-.032-.3.02v-8.053l.3-.022Zm6.94-.468-6.742.454V435.25l6.742-.5Z" transform="translate(-1445.488 -15.138)"/><path class="a" d="M1901.255,410.772l-29.7,2.479a.1.1,0,0,0-.091.1v8.1a.1.1,0,0,0,.1.1h.008l29.7-2.285a.1.1,0,0,0,.092-.1v-8.3a.1.1,0,0,0-.032-.072A.1.1,0,0,0,1901.255,410.772Zm-29.288,10.552-.309.024v-7.907l.309-.027Zm4.969-.383-4.77.367V413.4l4.77-.4Zm.626-.048-.428.034v-7.944l.428-.036Zm.478-.036-.28.022v-7.948l.28-.022Zm6.92-.532-6.723.518v-7.951l6.723-.562Zm.58-.045-.38.028v-7.994l.38-.032Zm.486-.038-.288.022v-8l.288-.025Zm7.078-.544-6.879.53v-8l6.879-.574Zm.623-.046-.425.032v-8.049l.425-.036Zm.5-.041-.3.025v-8.053l.3-.027Zm6.934-.532-6.736.518V411.54l6.736-.562Z" transform="translate(-1445.488 -15.138)"/><path class="a" d="M1979.119,541.425h0L2003.3,541a.1.1,0,0,0,.1-.1v-7.729a.1.1,0,0,0-.028-.07.093.093,0,0,0-.072-.028l-24.179.507a.1.1,0,0,0-.1.1v7.646a.111.111,0,0,0,.03.073A.113.113,0,0,0,1979.119,541.425Zm16.793-8,7.289-.153V540.8l-7.289.129Zm-.432.01.234-.006v7.507l-.234,0Zm-.6.012.4-.008v7.505l-.4.006Zm-6.989.147,6.791-.143v7.5l-6.791.119Zm-.453.011.253-.006v7.478l-.253,0Zm-.579.012.381-.008v7.476l-.381.008Zm-7.2.151,7.007-.147v7.474l-7.007.125Zm-.434.01.236-.006v7.45l-.236,0Z" transform="translate(-1445.488 -15.138)"/><path class="a" d="M2007.147,540.985l23.386.6h0a.105.105,0,0,0,.07-.028.109.109,0,0,0,.03-.073v-7.561a.1.1,0,0,0-.1-.1l-23.389-.755a.083.083,0,0,0-.071.028.1.1,0,0,0-.03.07v7.721A.1.1,0,0,0,2007.147,540.985Zm22.983-6.974.307.01v7.363l-.307-.008Zm-3.772-.123,3.577.117v7.367l-3.577-.092Zm-.478-.014.278.008v7.394l-.278-.008Zm-.552-.018.355.012v7.4l-.355-.01Zm-5.254-.17,5.055.163v7.4l-5.055-.129Zm-.477-.016.278.008v7.436l-.278-.008Zm-.524-.016.324.01V541.1l-.324-.008Zm-5.47-.177,5.27.169v7.442l-5.27-.135Zm-.495-.016.3.008v7.48l-.3-.008Zm-.528-.019.33.011v7.484l-.33-.01Zm-5.333-.171,5.135.165v7.487l-5.135-.131Z" transform="translate(-1445.488 -15.138)"/><path class="a" d="M1979.119,519.414h0l24.178-.659a.1.1,0,0,0,.1-.1v-7.73a.1.1,0,0,0-.028-.07.1.1,0,0,0-.072-.029l-24.181.74a.1.1,0,0,0-.1.1v7.645a.1.1,0,0,0,.032.073A.1.1,0,0,0,1979.119,519.414Zm16.768-8.162,7.314-.223v7.531l-7.314.2Zm-.421.013.224-.006v7.506l-.224,0Zm-.584.018.387-.01v7.5l-.387.01Zm-7.007.215,6.809-.209v7.5l-6.809.185Zm-.427.012.229-.006v7.479l-.229.006Zm-.607.021.409-.014v7.478l-.409.01Zm-7.184.219,6.987-.215v7.476l-6.987.19Zm-.438.012.238-.006v7.451l-.238.006Z" transform="translate(-1445.488 -15.138)"/><path class="a" d="M2007.144,518.745l23.389.927h0a.092.092,0,0,0,.068-.028.1.1,0,0,0,.032-.071v-7.561a.1.1,0,0,0-.095-.1l-23.388-1.087a.1.1,0,0,0-.073.029.1.1,0,0,0-.03.07v7.72A.1.1,0,0,0,2007.144,518.745Zm22.988-6.652.305.014v7.364l-.305-.012Zm-3.8-.176,3.6.166v7.368l-3.6-.144Zm-.452-.022.254.012V519.3l-.254-.01Zm-.548-.026.351.018v7.394l-.351-.012Zm-5.264-.244,5.067.236v7.4l-5.067-.2Zm-.5-.022.3.014v7.434l-.3-.012Zm-.532-.024.334.014v7.438l-.334-.012Zm-5.464-.254,5.266.244v7.442l-5.266-.21Zm-.451-.022.252.012v7.478l-.252-.009Zm-.55-.026.35.018v7.482l-.35-.016Zm-5.329-.246,5.129.238v7.484l-5.129-.2Z" transform="translate(-1445.488 -15.138)"/><path class="a" d="M1979.119,497.383h0l24.18-.878a.1.1,0,0,0,.095-.1v-7.728a.106.106,0,0,0-.028-.073.1.1,0,0,0-.075-.028l-24.178.959a.1.1,0,0,0-.1.1v7.646a.106.106,0,0,0,.03.072A.108.108,0,0,0,1979.119,497.383Zm16.787-8.314,7.3-.288v7.53l-7.3.264Zm-.44.018.24-.01v7.506l-.24.008Zm-.572.022.377-.014V496.6l-.377.014Zm-7.007.278,6.807-.27v7.5l-6.807.248Zm-.464.018.266-.01v7.479l-.266.01Zm-.588.024.391-.016v7.477l-.391.014Zm-7.166.284,6.968-.276v7.475l-6.968.252Zm-.45.019.252-.01v7.45l-.252.01Z" transform="translate(-1445.488 -15.138)"/><path class="a" d="M2007.143,496.495l23.389,1.267h0a.1.1,0,0,0,.068-.028.1.1,0,0,0,.032-.072V490.1a.1.1,0,0,0-.092-.1l-23.389-1.427a.1.1,0,0,0-.1.1V496.4A.1.1,0,0,0,2007.143,496.495Zm23.008-6.318.286.018v7.364l-.286-.016Zm-3.805-.232,3.605.22v7.368l-3.605-.2Zm-.47-.028.272.016v7.394l-.272-.016Zm-.532-.032.335.02v7.4l-.335-.018Zm-5.276-.321,5.079.309v7.4l-5.079-.274Zm-.471-.03.274.016v7.437l-.274-.015Zm-.528-.032.33.02v7.438l-.33-.018Zm-5.47-.333,5.272.321v7.442l-5.272-.286Zm-.479-.03.282.018v7.479l-.282-.014Zm-.544-.032.346.02v7.483l-.346-.019Zm-5.329-.324,5.131.312v7.487l-5.131-.279Z" transform="translate(-1445.488 -15.138)"/><path class="a" d="M1979.119,475.446h.006l24.181-1.2a.1.1,0,0,0,.092-.1v-7.731a.1.1,0,0,0-.03-.072.1.1,0,0,0-.073-.027l-24.181,1.284a.1.1,0,0,0-.094.1v7.648a.1.1,0,0,0,.032.07A.092.092,0,0,0,1979.119,475.446Zm16.787-8.539,7.3-.387v7.531l-7.3.363Zm-.44.022.242-.012v7.505l-.242.012Zm-.574.032.377-.02v7.5l-.377.02Zm-7.011.371,6.813-.361v7.5l-6.813.339Zm-.478.026.28-.014v7.477l-.28.014Zm-.574.031.375-.021v7.477l-.375.02Zm-7.178.38,6.98-.37v7.474l-6.98.347Zm-.432.023.236-.012v7.45l-.236.012Z" transform="translate(-1445.488 -15.138)"/><path class="a" d="M2007.143,474.232l23.387,1.657h.006a.1.1,0,0,0,.068-.026.106.106,0,0,0,.032-.073v-7.561a.1.1,0,0,0-.092-.1l-23.387-1.814a.1.1,0,0,0-.107.1v7.721A.1.1,0,0,0,2007.143,474.232Zm22.973-5.937.321.025v7.363l-.321-.022Zm-3.76-.292,3.563.276v7.368l-3.563-.252Zm-.49-.038.292.024v7.392l-.292-.02Zm-.524-.04.327.026v7.394l-.327-.022Zm-5.286-.409,5.089.4v7.4l-5.089-.359Zm-.489-.039.292.023v7.434l-.292-.02Zm-.526-.04.328.024V474.9l-.328-.022Zm-5.458-.423,5.26.407v7.442l-5.26-.373Zm-.463-.036.266.02v7.478l-.266-.018Zm-.538-.043.34.026v7.483l-.34-.024Zm-5.335-.413,5.135.4v7.485l-5.135-.363Z" transform="translate(-1445.488 -15.138)"/><path class="a" d="M1979.119,453.381h.006l24.181-1.393a.1.1,0,0,0,.092-.1v-7.73a.1.1,0,0,0-.1-.1l-24.179,1.475a.1.1,0,0,0-.094.1v7.648a.1.1,0,0,0,.032.073A.1.1,0,0,0,1979.119,453.381Zm16.768-8.67,7.314-.447V451.8l-7.314.423Zm-.429.026.232-.014v7.505l-.232.014Zm-.576.035.379-.023v7.5l-.379.022Zm-7.009.429,6.811-.417v7.5l-6.811.393Zm-.462.026.264-.016v7.478l-.264.017Zm-.59.036.391-.024v7.479l-.391.022Zm-7.134.436,6.936-.424v7.475l-6.994.4Zm-.468.03.268-.018-.058,7.454-.21.012Z" transform="translate(-1445.488 -15.138)"/><path class="a" d="M1979.119,431.334h.008l24.181-1.645a.1.1,0,0,0,.09-.1V421.86a.1.1,0,0,0-.03-.072.1.1,0,0,0-.075-.027l-24.179,1.728a.1.1,0,0,0-.094.1v7.648a.106.106,0,0,0,.032.073A.1.1,0,0,0,1979.119,431.334Zm16.766-8.718,7.316-.544V429.5l-7.316.5Zm-.413-.069.218.043v7.418l-.218.014Zm-.6.015.4-.029v7.5l-.4.028Zm-7.015.624,6.815-.469v7.361l-6.815.464Zm-.407-.068.209.04v7.4l-.209.014Zm-.619.018.419-.03v7.476l-.419.028Zm-7.18.649,6.982-.5v7.339l-6.982.476Zm-.434-.073.236.057v7.343l-.236.016Z" transform="translate(-1445.488 -15.138)"/><path class="a" d="M2007.138,429.679l23.389,2.28.009,0a.1.1,0,0,0,.068-.027.1.1,0,0,0,.032-.074V424.3a.1.1,0,0,0-.088-.1l-23.389-2.441a.109.109,0,0,0-.077.025.1.1,0,0,0-.032.074v7.719A.1.1,0,0,0,2007.138,429.679Zm22.978-5.179.321-.068v7.319l-.321-.03Zm-3.786-.4,3.587.413V431.7l-3.587-.349Zm-.462-.185.262.028v7.392l-.262-.026Zm-.524.1.327-.079v7.356l-.327-.033Zm-.145-.168-.008,0-.4-.044Zm-5.114-.369,5.06.565v7.2l-5.06-.494Zm-.492-.215.294.03v7.434l-.294-.028Zm-.557.105.359-.089v7.4l-.359-.036Zm-5.443-.577,5.246.589v7.245l-5.246-.512Zm-.441-.2.244.024v7.479l-.244-.023Zm-.576.109.379-.093v7.444l-.379-.036Zm-.1-.18-.032.008-2.02-.221Zm-5.228-.362,5.131.562v7.275l-5.131-.5Z" transform="translate(-1445.488 -15.138)"/><path class="a" d="M1775.042,395.708h.008l6.61-.6a.1.1,0,0,0,.091-.1v-3.658a.1.1,0,0,0-.034-.072.089.089,0,0,0-.076-.024l-6.61.719a.1.1,0,0,0-.089.1v3.539a.1.1,0,0,0,.032.072A.1.1,0,0,0,1775.042,395.708Zm6.51-.792-4.926.45v-3.073l4.926-.492Zm0-3.456v.141l-5.026.5-.478-.044Zm-6.411.718,1.286.115v3.091l-1.286.117Z" transform="translate(-1445.488 -15.138)"/><path class="a" d="M1775.061,467.115h.006l6.572-.371a.1.1,0,0,0,.092-.1v-3.674a.1.1,0,0,0-.1-.1l-6.572.408a.1.1,0,0,0-.093.1v3.64a.1.1,0,0,0,.1.1Zm6.473-.565-4.879.276v-3.212l4.879-.3Zm0-3.476v.04l-4.977.309-.245-.024Zm-6.374.411,1.3.127v3.224l-1.3.075Z" transform="translate(-1445.488 -15.138)"/><path class="a" d="M1775.037,538.577h0l6.608-.185a.1.1,0,0,0,.1-.1v-3.676a.1.1,0,0,0-.029-.07.107.107,0,0,0-.073-.028l-6.607.185a.1.1,0,0,0-.1.1v3.675a.1.1,0,0,0,.03.071A.1.1,0,0,0,1775.037,538.577Zm1.62-3.72,4.889-.137V538.2l-4.889.137Zm-1.522.042,1.324-.036v3.476l-1.324.039Z" transform="translate(-1445.488 -15.138)"/><path class="a" d="M1792.844,351.669l11.31,1.449h.013a.1.1,0,0,0,.066-.024.1.1,0,0,0,.033-.074V345.8a.1.1,0,0,0-.085-.1l-11.311-1.6a.1.1,0,0,0-.078.023.1.1,0,0,0-.035.075v7.362A.1.1,0,0,0,1792.844,351.669Zm11.223,1.238-1.159-.149v-6.669l1.159-.169Zm-4.647-7.671,4.05.571-.662.1-3.388-.506Zm0,.362,3.288.491v6.644l-3.288-.421Zm-1.532-.579,1.335.189v7.079l-1.335-.17Zm-.2,7.071-1.182-.151v-6.718l1.182-.2Zm-4.734-7.767,4.185.59-.734.124-3.451-.482Zm0,.433,3.355.468v6.69l-3.355-.429Z" transform="translate(-1445.488 -15.138)"/><path class="a" d="M1792.858,386.394l11.335,1.274.012,0a.1.1,0,0,0,.1-.1v-7.2a.1.1,0,0,0-.089-.1l-11.333-1.363a.113.113,0,0,0-.079.024.107.107,0,0,0-.034.075V386.3A.1.1,0,0,0,1792.858,386.394Zm11.248,1.064-1.163-.129v-6.688l1.163-.16Zm-4.691-7.565,4.011.482-.583.078-3.428-.4Zm0,.362,3.329.386v6.666l-3.329-.375Zm-1.555-.55,1.356.164v7.041l-1.356-.153Zm-.2,7.03-1.143-.129v-6.7l1.143-.2Zm-4.694-7.618,4.106.494-.655.112-3.451-.445Zm0,.361,3.354.433v6.673l-3.354-.378Z" transform="translate(-1445.488 -15.138)"/><path class="a" d="M1792.8,421.175l11.337,1.04h.009a.106.106,0,0,0,.067-.026.1.1,0,0,0,.032-.073v-7.227a.1.1,0,0,0-.09-.1l-11.335-1.09a.1.1,0,0,0-.076.026.1.1,0,0,0-.033.072v7.277A.1.1,0,0,0,1792.8,421.175Zm11.247.832-1.122-.1v-6.7l1.122-.2Zm-4.653-7.474,4.014.385-.586.1-3.428-.368Zm0,.318,3.331.359v6.677l-3.331-.307Zm-1.534-.467,1.336.129v7.049l-1.336-.123Zm-.2,7.037-1.157-.1v-6.755l1.157-.171Zm-4.754-7.513,4.037.389-.541.079-3.5-.369Zm0,.3,3.4.359V421.3l-3.4-.312Z" transform="translate(-1445.488 -15.138)"/><path class="a" d="M1792.851,456.015l11.334.717h.006a.094.094,0,0,0,.068-.028.092.092,0,0,0,.031-.071v-7.152a.1.1,0,0,0-.091-.1l-11.335-.854a.093.093,0,0,0-.075.026.1.1,0,0,0-.032.073v7.289A.1.1,0,0,0,1792.851,456.015Zm11.242.511-1.226-.076v-6.721l1.226-.139Zm-4.691-7.307,3.733.28-.367.043-3.366-.3Zm0,.222,3.268.29v6.707l-3.268-.208Zm-1.545-.339,1.347.1v7.015l-1.347-.086Zm-.2,7.017-1.14-.072v-6.8l1.14-.139Zm-4.7-7.386,3.794.285-.33.04-3.464-.276Zm0,.249,3.367.267v6.786l-3.367-.214Z" transform="translate(-1445.488 -15.138)"/><path class="a" d="M1792.855,490.77l11.27.544h0a.09.09,0,0,0,.068-.027.093.093,0,0,0,.033-.07v-7.162a.1.1,0,0,0-.095-.1l-11.269-.659a.1.1,0,0,0-.073.026.1.1,0,0,0-.032.071v7.277A.1.1,0,0,0,1792.855,490.77Zm10.1-6.494,1.073-.11v6.946l-1.073-.052Zm-3.529-.4,3.477.2-.049,0-3.428-.191Zm0,.214,3.332.187v6.77l-3.332-.159Zm-1.569-.306,1.372.08v7.013l-1.372-.066Zm-.2,7.017-1.156-.055V483.93l1.156-.137Zm-4.7-7.3,3.671.213-.224.026-3.447-.223Zm0,.215,3.351.218v6.805l-3.351-.163Z" transform="translate(-1445.488 -15.138)"/><path class="a" d="M1792.854,525.534l11.3.3h0a.088.088,0,0,0,.068-.028.1.1,0,0,0,.031-.071V518.6a.1.1,0,0,0-.1-.1l-11.3-.433a.11.11,0,0,0-.074.028.106.106,0,0,0-.03.073v7.263A.1.1,0,0,0,1792.854,525.534Zm10.076-6.878,1.126.045v6.93l-1.126-.03Zm-3.489-.132,3.291.124V525.6l-3.291-.087Zm-1.586-.061,1.388.052V525.5l-1.388-.036Zm-1.371-.052,1.175.044v7.009l-1.175-.032Zm-3.529-.137,3.331.129v7.025l-3.331-.089Z" transform="translate(-1445.488 -15.138)"/><path class="a" d="M1792.844,560.283l11.309.135h0a.1.1,0,0,0,.1-.1v-7.191a.1.1,0,0,0-.1-.1l-11.31-.131a.115.115,0,0,0-.071.028.1.1,0,0,0-.03.07v7.187A.1.1,0,0,0,1792.844,560.283Zm10.066-7.069,1.146.014v6.991l-1.146-.012Zm-3.466-.04,3.267.038V560.2l-3.267-.038Zm-1.584-.019,1.386.017v6.99l-1.386-.016Zm-1.361-.016,1.163.014v6.989l-1.163-.014Zm-3.557-.04,3.359.038v6.989l-3.359-.04Z" transform="translate(-1445.488 -15.138)"/><path class="a" d="M1820.108,370.889l2.92.321h.01a.1.1,0,0,0,.1-.1V344.2a.1.1,0,0,0-.083-.1l-2.921-.454a.1.1,0,0,0-.08.023.1.1,0,0,0-.034.075V370.79A.1.1,0,0,0,1820.108,370.889Zm2.831.113-.594-.067V344.394l.594-.083Zm-2.721-27.144,2.145.334-.117.016-2.028-.271Zm0,.278,1.929.258v26.52l-1.929-.213Z" transform="translate(-1445.488 -15.138)"/><path class="a" d="M1820.092,405.138l2.906.23H1823a.1.1,0,0,0,.068-.025.1.1,0,0,0,.032-.072V378.4a.1.1,0,0,0-.086-.1l-2.906-.391a.1.1,0,0,0-.078.024.1.1,0,0,0-.033.075v27.028A.1.1,0,0,0,1820.092,405.138Zm2.262-26.537.553-.085v26.646l-.553-.044Zm-.044-.194-.056.009-1.073-.162Zm-2.112-.1,1.957.292v26.5l-1.957-.158Z" transform="translate(-1445.488 -15.138)"/><path class="a" d="M1820.112,439.375l2.92.181h.006a.1.1,0,0,0,.068-.028.092.092,0,0,0,.031-.071V412.566a.1.1,0,0,0-.089-.1l-2.92-.284a.1.1,0,0,0-.109.1v26.994A.1.1,0,0,0,1820.112,439.375Zm2.221-26.611.606-.083v26.67l-.606-.037Zm-2.115-.373,1.433.139-1.433-.117Zm0,.221,1.917.157V439.3l-1.917-.119Z" transform="translate(-1445.488 -15.138)"/><path class="a" d="M1820.1,473.644l2.9.149h0a.1.1,0,0,0,.1-.1V446.759a.1.1,0,0,0-.092-.1l-2.9-.2a.1.1,0,0,0-.074.027.107.107,0,0,0-.031.072v26.986A.1.1,0,0,0,1820.1,473.644Zm2.228-26.7.578-.075V473.59l-.578-.031Zm-2.124-.137,1.926.141v26.6l-1.926-.1Z" transform="translate(-1445.488 -15.138)"/><path class="a" d="M1820.1,507.839l2.908.125h0a.094.094,0,0,0,.07-.029.1.1,0,0,0,.031-.072v-26.9a.1.1,0,0,0-.1-.1l-2.907-.143a.1.1,0,0,0-.073.028.093.093,0,0,0-.031.072V507.74A.1.1,0,0,0,1820.1,507.839Zm2.245-26.8.568.028v26.7l-.568-.024Zm-2.142-.105,1.943.1v26.7l-1.943-.083Z" transform="translate(-1445.488 -15.138)"/><path class="a" d="M1820.1,542.033l2.912.109h0a.1.1,0,0,0,.07-.028.1.1,0,0,0,.031-.073V515.156a.1.1,0,0,0-.1-.1l-2.912-.115a.093.093,0,0,0-.073.027.1.1,0,0,0-.03.072v26.9A.1.1,0,0,0,1820.1,542.033Zm2.249-26.8.568.02v26.69l-.568-.023Zm-2.147-.087,1.949.079v26.689l-1.949-.072Z" transform="translate(-1445.488 -15.138)"/><path class="a" d="M1820.1,576.321h2.936a.1.1,0,0,0,.1-.1V549.353a.1.1,0,0,0-.1-.1l-2.937-.044a.107.107,0,0,0-.072.028.1.1,0,0,0-.028.07v26.916A.1.1,0,0,0,1820.1,576.321Zm2.252-26.88.585.008v26.674h-.585Zm-2.154-.034,1.956.03v26.686H1820.2Z" transform="translate(-1445.488 -15.138)"/><path class="a" d="M2084.367,407.518h.006l7.176-.484a.1.1,0,0,0,.093-.1v-3.456a.1.1,0,0,0-.03-.072.112.112,0,0,0-.077-.027l-7.176.617a.1.1,0,0,0-.091.1v3.323a.1.1,0,0,0,.03.073A.107.107,0,0,0,2084.367,407.518Zm7.077-.675-5.828.393v-2.9l5.828-.46Zm0-3.255v.089l-5.925.469-.225-.03Zm-6.979.621.954.123v2.918l-.954.062Z" transform="translate(-1445.488 -15.138)"/><path class="a" d="M2084.383,474.394h0l7.146-.313a.1.1,0,0,0,.093-.1v-3.416a.1.1,0,0,0-.031-.073.1.1,0,0,0-.074-.026l-7.142.363a.1.1,0,0,0-.095.1V474.3a.1.1,0,0,0,.03.072A.093.093,0,0,0,2084.383,474.394Zm1.245-3.231,5.8-.31v3.035l-5.8.254Zm-.04-.2-.056,0h0Zm-1.106.072.949.117v2.993l-.949.042Z" transform="translate(-1445.488 -15.138)"/><path class="a" d="M2084.391,541.284h0l7.128-.083a.1.1,0,0,0,.1-.1V537.67a.1.1,0,0,0-.1-.1l-7.128.174a.1.1,0,0,0-.1.1v3.341a.1.1,0,0,0,.03.07A.1.1,0,0,0,2084.391,541.284Zm1.245-3.372,5.784-.141v3.235l-5.784.064Zm-1.146.028.949-.024v3.158l-.949.01Z" transform="translate(-1445.488 -15.138)"/><path class="a" d="M2101.651,366.264l8.761,1.27h.016a.094.094,0,0,0,.064-.024.1.1,0,0,0,.033-.074v-6.7a.1.1,0,0,0-.081-.1l-8.762-1.369a.1.1,0,0,0-.113.1v6.8A.1.1,0,0,0,2101.651,366.264Zm8.678,1.058-1.3-.19v-6.11l1.3-.171Zm-3.525-7.051,2.931.458-.806.106-2.125-.41Zm0,.355,2.024.391V367.1l-2.024-.293Zm-1.221-.545,1.024.159v6.542l-1.024-.148Zm-.2,6.524-1.278-.185v-6.158l1.278-.183Zm-3.62-7.122,3.051.477-.806.116-2.245-.379Zm0,.415,2.144.362v6.131l-2.144-.311Z" transform="translate(-1445.488 -15.138)"/><path class="a" d="M2137.142,371.561l8.315,1.206h.016a.1.1,0,0,0,.1-.1v-6.627a.1.1,0,0,0-.081-.1l-8.317-1.3a.1.1,0,0,0-.078.023.092.092,0,0,0-.037.075v6.721A.1.1,0,0,0,2137.142,371.561Zm8.232.994-1.227-.178v-6.061l1.227-.161Zm-3.335-6.95,2.741.429-.73.1-2.011-.389Zm0,.338,1.91.369v6.036l-1.91-.277Zm-1.159-.519.961.151v6.467l-.961-.139Zm-.2,6.45-1.2-.174v-6.1l1.2-.173Zm-3.426-7.016,2.857.446-.729.105-2.128-.358Zm0,.393,2.027.342v6.079l-2.027-.295Z" transform="translate(-1445.488 -15.138)"/><path class="a" d="M2101.637,398.854l8.767,1.052h.012a.094.094,0,0,0,.064-.024.092.092,0,0,0,.033-.074v-6.732a.1.1,0,0,0-.085-.1l-8.766-1.147a.1.1,0,0,0-.077.024.1.1,0,0,0-.034.075v6.826A.1.1,0,0,0,2101.637,398.854Zm8.678.843-1.249-.149v-6.2l1.249-.16Zm-3.525-6.995,2.854.373-.675.088-2.179-.32Zm0,.34,2.078.307v6.174l-2.078-.25Zm-1.215-.5,1.016.133v6.574l-1.016-.121Zm-.2,6.562-1.262-.151v-6.272l1.262-.14Zm-3.628-7.061,2.906.379-.639.072-2.267-.284Zm0,.366,2.169.272v6.248l-2.169-.26Z" transform="translate(-1445.488 -15.138)"/><path class="a" d="M2137.091,403.352l8.319,1,.015,0a.1.1,0,0,0,.064-.026.1.1,0,0,0,.032-.075v-6.61a.1.1,0,0,0-.084-.1l-8.321-1.088a.1.1,0,0,0-.079.022.107.107,0,0,0-.032.075v6.7A.1.1,0,0,0,2137.091,403.352Zm8.233.788-1.177-.141V397.9l1.177-.151Zm-3.337-6.848,2.664.349-.6.077-2.063-.3Zm0,.323,1.962.288v6.072l-1.962-.236Zm-1.153-.474.955.125v6.451l-.955-.115Zm-.2,6.437-1.187-.143v-6.163l1.187-.133Zm-3.434-6.912,2.713.354-.564.065-2.149-.27Zm0,.348,2.05.256v6.143l-2.05-.246Z" transform="translate(-1445.488 -15.138)"/><path class="a" d="M2101.664,431.372l8.744.9h.012a.084.084,0,0,0,.064-.026.094.094,0,0,0,.035-.073v-6.69a.1.1,0,0,0-.089-.1l-8.744-.99a.1.1,0,0,0-.109.1v6.781A.1.1,0,0,0,2101.664,431.372Zm8.655.689-1.241-.127v-6.217l1.241-.127Zm-3.543-6.892,2.717.307-.512.052-2.205-.272Zm0,.287,2.1.259v6.2l-2.1-.215Zm-1.219-.426,1.02.115v6.534l-1.02-.1Zm-.2,6.522-1.237-.127V425.19l1.237-.158Zm-3.583-6.949,2.854.322-.609.077-2.245-.26Zm0,.338,2.149.249V431.4l-2.149-.222Z" transform="translate(-1445.488 -15.138)"/><path class="a" d="M2137.1,435.1l8.266.851h.01a.113.113,0,0,0,.067-.026.1.1,0,0,0,.032-.073v-6.572a.1.1,0,0,0-.089-.1l-8.266-.937a.1.1,0,0,0-.109.1V435A.1.1,0,0,0,2137.1,435.1Zm8.178.641-1.165-.119V429.5l1.165-.119Zm-3.342-6.751,2.513.284-.433.045-2.08-.258Zm0,.27,1.979.246v6.1l-1.979-.2Zm-1.153-.4.956.109v6.41l-.956-.1Zm-.2,6.4-1.159-.119V429l1.159-.147Zm-3.378-6.806,2.646.3-.528.067-2.118-.246Zm0,.321,2.02.233v6.113l-2.02-.21Z" transform="translate(-1445.488 -15.138)"/><path class="a" d="M2101.645,464.007l8.783.669h.008a.116.116,0,0,0,.069-.026.1.1,0,0,0,.03-.073v-6.7a.1.1,0,0,0-.091-.1l-8.78-.824a.1.1,0,0,0-.077.024.1.1,0,0,0-.034.073v6.855A.1.1,0,0,0,2101.645,464.007Zm8.692.464-1.271-.1v-6.288l1.271-.1Zm-3.565-6.836,2.511.234-.314.026-2.2-.226Zm0,.234,2.1.213v6.276l-2.1-.159Zm-1.227-.351,1.03.1v6.569l-1.03-.078Zm-.2,6.574-1.236-.1v-6.33l1.236-.145Zm-3.594-6.931,2.755.26-.5.059-2.259-.22Zm0,.3,2.158.209v6.312l-2.158-.163Z" transform="translate(-1445.488 -15.138)"/><path class="a" d="M2137.091,466.851l8.35.638h.008a.1.1,0,0,0,.066-.026.1.1,0,0,0,.03-.072V460.9a.1.1,0,0,0-.088-.1l-8.349-.788a.1.1,0,0,0-.075.024.105.105,0,0,0-.032.075v6.644A.1.1,0,0,0,2137.091,466.851Zm8.257.433-1.2-.093V461.1l1.2-.095Zm-3.378-6.618,2.332.222-.248.02-2.084-.216Zm0,.225,1.983.2v6.082l-1.983-.151Zm-1.168-.334.971.091v6.362l-.971-.075Zm-.2,6.364-1.165-.09V460.7l1.165-.139Zm-3.406-6.7,2.572.242-.431.053-2.141-.21Zm0,.285,2.044.2v6.116l-2.044-.157Z" transform="translate(-1445.488 -15.138)"/><path class="a" d="M2101.67,496.59l8.728.483h.006a.094.094,0,0,0,.066-.028.1.1,0,0,0,.032-.071v-6.708a.1.1,0,0,0-.092-.1l-8.728-.578a.109.109,0,0,0-.075.026.091.091,0,0,0-.03.072v6.8A.1.1,0,0,0,2101.67,496.59Zm7.408-6.139,1.225-.078v6.5l-1.225-.069Zm-2.3-.159,2.1.157v6.342l-2.1-.117Zm-1.225-.248,1.028.069v6.551l-1.028-.058Zm-1.479.056,1.282-.056V496.6l-1.282-.071Zm-2.3-.112,2.1.112v6.413l-2.1-.115Z" transform="translate(-1445.488 -15.138)"/><path class="a" d="M2137.114,498.653l8.282.458,0,0a.093.093,0,0,0,.069-.028.1.1,0,0,0,.032-.073v-6.5a.1.1,0,0,0-.093-.1l-8.282-.548a.116.116,0,0,0-.075.026.107.107,0,0,0-.03.073v6.591A.1.1,0,0,0,2137.114,498.653Zm7.037-5.963,1.153-.074v6.291l-1.153-.062Zm-2.184-.151,1.986.149v6.147l-1.986-.111Zm-1.165-.234.967.065v6.344l-.967-.055Zm-1.4.055,1.2-.057v6.346l-1.2-.068Zm-2.182-.109,1.983.107v6.212l-1.983-.11Z" transform="translate(-1445.488 -15.138)"/><path class="a" d="M2101.664,529.214l8.776.214h0a.1.1,0,0,0,.069-.028.1.1,0,0,0,.032-.071v-6.7a.1.1,0,0,0-.1-.1l-8.778-.331a.1.1,0,0,0-.073.029.092.092,0,0,0-.028.07v6.816A.1.1,0,0,0,2101.664,529.214Zm7.416-6.535,1.265.048v6.5l-1.265-.033Zm-2.278-.087,2.078.079v6.521l-2.078-.05Zm-1.251-.046,1.052.04v6.55l-1.052-.024Zm-1.443-.055,1.246.047v6.57l-1.246-.033Zm-2.342-.088,2.144.082v6.586l-2.144-.052Z" transform="translate(-1445.488 -15.138)"/><path class="a" d="M2137.1,530.45l8.4.205h0a.1.1,0,0,0,.069-.028.1.1,0,0,0,.032-.072v-6.463a.1.1,0,0,0-.1-.1l-8.4-.317a.1.1,0,0,0-.073.029.1.1,0,0,0-.03.07v6.574A.1.1,0,0,0,2137.1,530.45Zm7.1-6.308,1.2.044v6.268l-1.2-.03Zm-2.176-.083,1.979.075v6.285l-1.979-.048Zm-1.2-.044,1,.036v6.314l-1-.024Zm-1.381-.052,1.183.044v6.33l-1.183-.028Zm-2.243-.085,2.044.077V530.3l-2.044-.051Z" transform="translate(-1445.488 -15.138)"/><path class="a" d="M2101.666,561.734l8.742.077h0a.1.1,0,0,0,.072-.028.116.116,0,0,0,.028-.071V555a.1.1,0,0,0-.1-.1l-8.742-.16a.1.1,0,0,0-.1.1v6.8A.1.1,0,0,0,2101.666,561.734Zm7.363-6.662,1.282.024v6.516l-1.282-.011Zm-2.229-.04,2.032.036V561.6l-2.032-.018Zm-1.235-.024,1.038.02v6.553l-1.038-.01Zm-1.461-.027,1.264.024v6.564l-1.264-.012Zm-2.338-.042,2.141.04v6.578l-2.141-.02Z" transform="translate(-1445.488 -15.138)"/><path class="a" d="M2137.118,562.248l8.363.073h0a.1.1,0,0,0,.071-.029.1.1,0,0,0,.028-.07v-6.5a.1.1,0,0,0-.1-.1l-8.365-.153a.09.09,0,0,0-.071.028.1.1,0,0,0-.03.071v6.581A.1.1,0,0,0,2137.118,562.248Zm7.049-6.453,1.217.023v6.3l-1.217-.01Zm-2.132-.038,1.935.036v6.316l-1.935-.016Zm-1.183-.022.986.018v6.338l-.986-.01Zm-1.4-.026,1.2.022v6.35l-1.2-.012Zm-2.239-.04,2.039.036v6.364l-2.039-.018Z" transform="translate(-1445.488 -15.138)"/><path class="a" d="M2122.747,384.078l2.267.353a.039.039,0,0,0,.016,0,.1.1,0,0,0,.1-.1V359.052a.1.1,0,0,0-.081-.1l-2.269-.373a.1.1,0,0,0-.08.022.106.106,0,0,0-.035.075v25.3A.1.1,0,0,0,2122.747,384.078Zm2.183.14-.615-.1V359.237l.615-.073Zm-2.068-25.423,1.459.241-.1.012-1.356-.211Zm0,.243,1.255.194V384.09l-1.255-.193Z" transform="translate(-1445.488 -15.138)"/><path class="a" d="M2122.757,416.2l2.261.253.012,0a.1.1,0,0,0,.065-.026.094.094,0,0,0,.032-.074V391.088a.1.1,0,0,0-.085-.1l-2.261-.29a.1.1,0,0,0-.076.024.1.1,0,0,0-.034.074v25.308A.1.1,0,0,0,2122.757,416.2Zm2.173.046-.609-.069V391.309l.609-.1Zm-2.06-25.338,1.483.19-.133.022-1.35-.212Zm0,.2,1.251.195v24.848l-1.251-.139Z" transform="translate(-1445.488 -15.138)"/><path class="a" d="M2122.757,448.316l2.277.17h.008a.1.1,0,0,0,.069-.027.1.1,0,0,0,.028-.072V423.2a.1.1,0,0,0-.085-.1l-2.277-.3a.087.087,0,0,0-.076.025.1.1,0,0,0-.035.074v25.318A.1.1,0,0,0,2122.757,448.316Zm1.556-24.962.629-.045V448.28l-.629-.046Zm-1.447-.146,1.247.143V448.22l-1.247-.093Z" transform="translate(-1445.488 -15.138)"/><path class="a" d="M2122.779,480.466l2.247.074h0a.105.105,0,0,0,.069-.028.093.093,0,0,0,.028-.071v-25.2a.1.1,0,0,0-.091-.1l-2.247-.165a.1.1,0,0,0-.1.1v25.294A.1.1,0,0,0,2122.779,480.466Zm1.558-25.179.593.044v25.008l-.593-.021Zm-1.455-.107,1.258.093v25.039l-1.258-.04Z" transform="translate(-1445.488 -15.138)"/><path class="a" d="M2122.773,512.554l2.241.061h0a.1.1,0,0,0,.071-.028.1.1,0,0,0,.028-.071V487.3a.1.1,0,0,0-.093-.1l-2.239-.129a.1.1,0,0,0-.074.026.094.094,0,0,0-.03.07v25.288A.1.1,0,0,0,2122.773,512.554Zm1.57-25.2.574.032v25.025l-.574-.016Zm-1.465-.087,1.266.075v25.047l-1.266-.034Z" transform="translate(-1445.488 -15.138)"/><path class="a" d="M2122.763,544.609l2.263.048h0a.1.1,0,0,0,.1-.1V519.336a.1.1,0,0,0-.093-.1l-2.265-.075a.092.092,0,0,0-.072.026.1.1,0,0,0-.031.073V544.51A.1.1,0,0,0,2122.763,544.609Zm1.562-25.2.6.02v25.028l-.6-.014Zm-1.459-.048,1.261.042V544.44l-1.261-.029Z" transform="translate(-1445.488 -15.138)"/><path class="a" d="M2122.793,576.718l2.179.03h0a.092.092,0,0,0,.068-.028.1.1,0,0,0,.031-.071V551.41a.1.1,0,0,0-.1-.1l-2.2-.044a.092.092,0,0,0-.07.028.1.1,0,0,0-.03.073l.016,25.251A.1.1,0,0,0,2122.793,576.718Zm1.536-25.221.546.01V576.55l-.546-.008Zm-.2,0v25.045l-1.238-.016-.016-25.053Z" transform="translate(-1445.488 -15.138)"/></g></svg>