<svg width="19" height="19" viewBox="0 0 19 19" fill="none" xmlns="http://www.w3.org/2000/svg">
<path d="M1.97915 3.16663H17.0208C18.1139 3.16663 19 4.05272 19 5.14578V13.8541C19 14.9472 18.1139 15.8333 17.0208 15.8333H1.97915C0.886098 15.8333 0 14.9472 0 13.8541V5.14582C0 4.05272 0.886098 3.16663 1.97915 3.16663Z" fill="#F89521"/>
<path d="M19 5.54163H0V8.70828H19V5.54163Z" fill="white"/>
<path d="M5.9375 11.875H2.77085C2.55223 11.875 2.375 11.6978 2.375 11.4792C2.375 11.2605 2.55223 11.0833 2.77085 11.0833H5.9375C6.15611 11.0833 6.33335 11.2605 6.33335 11.4792C6.33335 11.6978 6.15611 11.875 5.9375 11.875Z" fill="#008BCC"/>
<path d="M8.3125 13.4584H2.77085C2.55223 13.4584 2.375 13.2811 2.375 13.0625C2.375 12.8439 2.55223 12.6667 2.77085 12.6667H8.3125C8.53111 12.6667 8.70835 12.8439 8.70835 13.0625C8.70835 13.2811 8.53111 13.4584 8.3125 13.4584Z" fill="#008BCC"/>
</svg>
