<svg width="23" height="20" viewBox="0 0 23 20" fill="none" xmlns="http://www.w3.org/2000/svg">
<g clip-path="url(#clip0)">
<path d="M12.9375 3.48333C12.673 3.48333 12.4583 3.29667 12.4583 3.06667V1.66667C12.4583 1.2075 12.0281 0.833333 11.5 0.833333C10.972 0.833333 10.5417 1.2075 10.5417 1.66667V3.06667C10.5417 3.29667 10.327 3.48333 10.0625 3.48333C9.79801 3.48333 9.58334 3.2975 9.58334 3.06667V1.66667C9.58334 0.7475 10.443 0 11.5 0C12.5571 0 13.4167 0.7475 13.4167 1.66667V3.06667C13.4167 3.2975 13.202 3.48333 12.9375 3.48333Z" fill="#F89521"/>
<path d="M11.5 20C9.65042 20 8.14584 18.6917 8.14584 17.0834C8.14584 16.8534 8.36051 16.6667 8.62501 16.6667C8.88951 16.6667 9.10417 16.8534 9.10417 17.0834C9.10417 18.2317 10.1794 19.1667 11.5 19.1667C12.8206 19.1667 13.8958 18.2317 13.8958 17.0834C13.8958 16.8534 14.1105 16.6667 14.375 16.6667C14.6395 16.6667 14.8542 16.8534 14.8542 17.0834C14.8542 18.6917 13.3496 20 11.5 20Z" fill="#F89521"/>
<path d="M19.6458 17.5H3.35416C2.56161 17.5 1.91666 16.9392 1.91666 16.25C1.91666 15.8842 2.0997 15.5383 2.41978 15.3C3.93011 14.19 4.79166 12.575 4.79166 10.865V8.33333C4.79166 5.11667 7.80082 2.5 11.5 2.5C15.1992 2.5 18.2083 5.11667 18.2083 8.33333V10.865C18.2083 12.5758 19.0699 14.19 20.5725 15.2942C20.9003 15.5383 21.0833 15.8842 21.0833 16.25C21.0833 16.9392 20.4393 17.5 19.6458 17.5ZM11.5 3.33333C8.32887 3.33333 5.74999 5.57583 5.74999 8.33333V10.865C5.74999 12.8217 4.76482 14.6675 3.04653 15.9308C2.93632 16.0125 2.87499 16.1283 2.87499 16.25C2.87499 16.48 3.08966 16.6667 3.35416 16.6667H19.6458C19.9103 16.6667 20.125 16.48 20.125 16.25C20.125 16.1283 20.0637 16.0125 19.9573 15.9333C18.2361 14.6675 17.25 12.8208 17.25 10.865V8.33333C17.25 5.57583 14.6711 3.33333 11.5 3.33333Z" fill="#F89521"/>
<ellipse cx="15.9922" cy="3.96484" rx="2.56055" ry="2.20703" fill="#008BCC"/>
</g>
<defs>
<clipPath id="clip0">
<rect width="23" height="20" fill="white"/>
</clipPath>
</defs>
</svg>
