<svg width="23" height="21" viewBox="0 0 23 21" fill="none" xmlns="http://www.w3.org/2000/svg">
<g clip-path="url(#clip0)">
<path d="M12.9375 3.6575C12.673 3.6575 12.4583 3.4615 12.4583 3.22V1.75C12.4583 1.26788 12.0281 0.875 11.5 0.875C10.972 0.875 10.5417 1.26788 10.5417 1.75V3.22C10.5417 3.4615 10.327 3.6575 10.0625 3.6575C9.79801 3.6575 9.58334 3.46238 9.58334 3.22V1.75C9.58334 0.784875 10.443 0 11.5 0C12.5571 0 13.4167 0.784875 13.4167 1.75V3.22C13.4167 3.46238 13.202 3.6575 12.9375 3.6575Z" fill="#F89521"/>
<path d="M11.5 21C9.65042 21 8.14584 19.6263 8.14584 17.9375C8.14584 17.696 8.36051 17.5 8.62501 17.5C8.88951 17.5 9.10417 17.696 9.10417 17.9375C9.10417 19.1433 10.1794 20.125 11.5 20.125C12.8206 20.125 13.8958 19.1433 13.8958 17.9375C13.8958 17.696 14.1105 17.5 14.375 17.5C14.6395 17.5 14.8542 17.696 14.8542 17.9375C14.8542 19.6263 13.3496 21 11.5 21Z" fill="#F89521"/>
<path d="M19.6458 18.375H3.35416C2.56161 18.375 1.91666 17.7861 1.91666 17.0625C1.91666 16.6784 2.0997 16.3153 2.41978 16.065C3.93011 14.8995 4.79166 13.2038 4.79166 11.4083V8.75C4.79166 5.3725 7.80082 2.625 11.5 2.625C15.1992 2.625 18.2083 5.3725 18.2083 8.75V11.4083C18.2083 13.2046 19.0699 14.8995 20.5725 16.0589C20.9003 16.3153 21.0833 16.6784 21.0833 17.0625C21.0833 17.7861 20.4393 18.375 19.6458 18.375ZM11.5 3.5C8.32887 3.5 5.74999 5.85462 5.74999 8.75V11.4083C5.74999 13.4628 4.76482 15.4009 3.04653 16.7274C2.93632 16.8131 2.87499 16.9348 2.87499 17.0625C2.87499 17.304 3.08966 17.5 3.35416 17.5H19.6458C19.9103 17.5 20.125 17.304 20.125 17.0625C20.125 16.9348 20.0637 16.8131 19.9573 16.73C18.2361 15.4009 17.25 13.4619 17.25 11.4083V8.75C17.25 5.85462 14.6711 3.5 11.5 3.5Z" fill="#F89521"/>
<ellipse cx="17.7217" cy="5.84473" rx="5.27832" ry="4.65527" fill="#008BCC"/>
</g>
<defs>
<clipPath id="clip0">
<rect width="23" height="21" fill="white"/>
</clipPath>
</defs>
</svg>
