<svg xmlns="http://www.w3.org/2000/svg" xmlns:xlink="http://www.w3.org/1999/xlink" width="70" height="70" viewBox="0 0 70 70"><defs><style>.a{fill:#474dff;}.a,.f{opacity:0.1;}.b{fill:#008bcc;stroke:#fff;stroke-width:2px;}.c{fill:#fff;}.d{fill:#f89521;}.e{opacity:0.2;}.e,.f{fill:url(#a);}</style><linearGradient id="a" x1="0.5" x2="0.5" y2="1" gradientUnits="objectBoundingBox"><stop offset="0" stop-color="#fff"/><stop offset="1" stop-color="#fff" stop-opacity="0"/></linearGradient></defs><g transform="translate(-140 -3442)"><circle class="a" cx="35" cy="35" r="35" transform="translate(140 3442)"/><path class="b" d="M14.5,0H37A14.5,14.5,0,0,1,51.5,14.5V24.882A14.5,14.5,0,0,1,37,39.382H14.5A14.5,14.5,0,0,1,0,24.882V14.5A14.5,14.5,0,0,1,14.5,0Z" transform="translate(149.5 3458.705)"/><g transform="translate(161 3465)"><path class="c" d="M13.653,4a9.658,9.658,0,1,0,9.663,9.658A9.651,9.651,0,0,0,13.653,4Zm0,17.384a7.726,7.726,0,1,1,7.726-7.726A7.724,7.724,0,0,1,13.658,21.384Zm3.38-8.692a1.449,1.449,0,1,0-1.449-1.449A1.447,1.447,0,0,0,17.038,12.692Zm-6.761,0a1.449,1.449,0,1,0-1.449-1.449A1.447,1.447,0,0,0,10.278,12.692Zm3.38,6.278a5.3,5.3,0,0,0,4.93-3.38H8.728A5.3,5.3,0,0,0,13.658,18.97Z"/></g><g transform="translate(143.262 3473.34) rotate(-21)"><path class="d" d="M12.01,4a3.4,3.4,0,0,0-4.8,0q-.11.11-.211.231c-.067-.081-.137-.158-.211-.232A3.391,3.391,0,0,0,2,8.793l4.822,4.822a.261.261,0,0,0,.369,0L12.01,8.793A3.394,3.394,0,0,0,12.01,4Z" transform="translate(0 0)"/></g><g transform="translate(-31 306)"><ellipse class="e" cx="18" cy="10.5" rx="18" ry="10.5" transform="translate(227.426 3180.928) rotate(-177)"/><ellipse class="f" cx="18" cy="10.5" rx="18" ry="10.5" transform="matrix(-0.695, 0.719, -0.719, -0.695, 223.057, 3165.846)"/></g></g></svg>