<svg width="19" height="19" viewBox="0 0 19 19" fill="none" xmlns="http://www.w3.org/2000/svg">
<path d="M8.48666 0.422222C8.48666 0.188944 8.29771 0 8.06443 0H0.422222C0.188944 0 0 0.188944 0 0.422222V8.06444C0 8.29772 0.188944 8.48667 0.422222 8.48667H8.06443C8.29771 8.48667 8.48666 8.29772 8.48666 8.06444V0.422222ZM7.64221 7.64222H0.844443V0.844444H7.64221V7.64222Z" fill="#F89521"/>
<path d="M19 0.422222C19 0.188944 18.8111 0 18.5778 0H10.9356C10.7023 0 10.5134 0.188944 10.5134 0.422222V8.06444C10.5134 8.29772 10.7023 8.48667 10.9356 8.48667H18.5778C18.8111 8.48667 19 8.29772 19 8.06444V0.422222ZM18.1556 7.64222H11.3578V0.844444H18.1556V7.64222Z" fill="#008BCC"/>
<path d="M8.48666 10.9356C8.48666 10.7023 8.29771 10.5133 8.06443 10.5133H0.422222C0.188944 10.5133 0 10.7023 0 10.9356V18.5778C0 18.8111 0.188944 19 0.422222 19H8.06443C8.29771 19 8.48666 18.8111 8.48666 18.5778V10.9356ZM7.64221 18.1133H0.844443V11.3578H7.64221V18.1133Z" fill="#F89521"/>
<path d="M19 10.9356C19 10.7023 18.8111 10.5133 18.5778 10.5133H10.9356C10.7023 10.5133 10.5134 10.7023 10.5134 10.9356V18.5778C10.5134 18.8111 10.7023 19 10.9356 19H18.5778C18.8111 19 19 18.8111 19 18.5778V10.9356ZM18.1556 18.1133H11.3578V11.3578H18.1556V18.1133Z" fill="#F89521"/>
</svg>
