<svg width="19" height="19" viewBox="0 0 19 19" fill="none" xmlns="http://www.w3.org/2000/svg">
<g clip-path="url(#clip0)">
<path d="M14.3498 11.2962C13.0292 11.2962 11.9548 12.3706 11.9548 13.6912C11.9548 15.0118 13.0292 16.0861 14.3498 16.0861C15.6706 16.0861 16.7448 15.0118 16.7448 13.6912C16.7448 12.3706 15.6704 11.2962 14.3498 11.2962ZM14.3498 14.8887C13.6894 14.8887 13.1523 14.3516 13.1523 13.6912C13.1523 13.0308 13.6894 12.4937 14.3498 12.4937C15.0102 12.4937 15.5473 13.0308 15.5473 13.6912C15.5473 14.3516 15.0102 14.8887 14.3498 14.8887Z" fill="#F89521"/>
<path d="M6.16703 11.2962C4.84642 11.2962 3.77206 12.3706 3.77206 13.6912C3.77206 15.0118 4.84642 16.0861 6.16703 16.0861C7.48764 16.0861 8.56199 15.0118 8.56199 13.6912C8.56199 12.3706 7.48764 11.2962 6.16703 11.2962ZM6.16703 14.8887C5.50663 14.8887 4.96955 14.3516 4.96955 13.6912C4.96955 13.0308 5.50663 12.4937 6.16703 12.4937C6.82724 12.4937 7.36451 13.0308 7.36451 13.6912C7.36451 14.3516 6.82743 14.8887 6.16703 14.8887Z" fill="#F89521"/>
<path d="M15.9626 4.44105C15.8608 4.23887 15.6538 4.11133 15.4275 4.11133H12.2741V5.30881H15.0583L16.6886 8.55158L17.7588 8.0135L15.9626 4.44105Z" fill="#F89521"/>
<path d="M12.5536 13.1124H8.02313V14.3099H12.5536V13.1124Z" fill="#F89521"/>
<path d="M4.3708 13.1124H2.29519C1.96448 13.1124 1.69647 13.3805 1.69647 13.7111C1.69647 14.0419 1.96451 14.3099 2.29519 14.3099H4.37083C4.70155 14.3099 4.96956 14.0418 4.96956 13.7111C4.96956 13.3804 4.70151 13.1124 4.3708 13.1124Z" fill="#F89521"/>
<path d="M18.8743 9.45211L17.6966 7.9353C17.5834 7.7892 17.4088 7.70377 17.2238 7.70377H12.8729V3.5126C12.8729 3.18188 12.6049 2.91388 12.2742 2.91388H2.29519C1.96448 2.91388 1.69647 3.18192 1.69647 3.5126C1.69647 3.84328 1.96451 4.11132 2.29519 4.11132H11.6754V8.30249C11.6754 8.63321 11.9435 8.90122 12.2742 8.90122H16.9306L17.8025 10.0244V13.1124H16.146C15.8153 13.1124 15.5473 13.3804 15.5473 13.7111C15.5473 14.0418 15.8153 14.3098 16.146 14.3098H18.4013C18.732 14.3098 19 14.0418 19 13.7111V9.81934C19 9.68642 18.9557 9.55709 18.8743 9.45211Z" fill="#F89521"/>
<path d="M4.33088 10.0788H1.57666C1.24594 10.0788 0.977936 10.3468 0.977936 10.6775C0.977936 11.0082 1.24598 11.2762 1.57666 11.2762H4.33084C4.66156 11.2762 4.92957 11.0082 4.92957 10.6775C4.9296 10.3468 4.66156 10.0788 4.33088 10.0788Z" fill="#F89521"/>
<path d="M5.70798 7.72369H0.598723C0.268041 7.72369 0 7.99173 0 8.32245C0 8.65317 0.268041 8.92118 0.598723 8.92118H5.70798C6.0387 8.92118 6.3067 8.65314 6.3067 8.32245C6.3067 7.99177 6.0387 7.72369 5.70798 7.72369Z" fill="#008BCC"/>
<path d="M6.68591 5.36871H1.57666C1.24594 5.36871 0.977936 5.63675 0.977936 5.96744C0.977936 6.29815 1.24598 6.56616 1.57666 6.56616H6.68591C7.01663 6.56616 7.28464 6.29812 7.28464 5.96744C7.28467 5.63675 7.01663 5.36871 6.68591 5.36871Z" fill="#F89521"/>
</g>
<defs>
<clipPath id="clip0">
<rect width="19" height="19" fill="white"/>
</clipPath>
</defs>
</svg>
