<svg xmlns="http://www.w3.org/2000/svg" width="70" height="70" viewBox="0 0 70 70"><defs><style>.a,.b{fill:#008bcc;}.a{opacity:0.1;}.b,.c,.d{stroke:#fff;stroke-width:2px;}.c,.d{fill:none;stroke-linecap:round;}.c{stroke-dasharray:4;}.e{fill:#fff;}.f{fill:#f89521;}</style></defs><g transform="translate(-934 -3444)"><circle class="a" cx="35" cy="35" r="35" transform="translate(934 3444)"/><path class="b" d="M11,0H40.5a11,11,0,0,1,11,11V28.382a11,11,0,0,1-11,11H11a11,11,0,0,1-11-11V11A11,11,0,0,1,11,0Z" transform="translate(943.5 3461)"/><path class="c" d="M1039.182,3618.332h30.351" transform="translate(-89 -139)"/><path class="d" d="M1039.182,3618.332H1087.4" transform="translate(-94.359 -147)"/><circle class="e" cx="4" cy="4" r="4" transform="translate(981 3486)"/><path class="f" d="M4,0A4,4,0,1,1,0,4,4,4,0,0,1,4,0Z" transform="translate(977 3486)"/></g></svg>