<svg xmlns="http://www.w3.org/2000/svg" width="18" height="12.857" viewBox="0 0 18 12.857"><defs><style>.a{fill:#008bcc;}.b{fill:#f89521;}</style></defs><g transform="translate(-2.25 -6.75)"><path class="a" d="M20.25,8.036A1.289,1.289,0,0,0,18.964,6.75H3.536A1.289,1.289,0,0,0,2.25,8.036V9.964h18Z"/><path class="b" d="M2.25,22.179a1.289,1.289,0,0,0,1.286,1.286H18.964a1.289,1.289,0,0,0,1.286-1.286V15.75h-18ZM7.955,20.25h6.589a.564.564,0,0,1,.563.563h0a.564.564,0,0,1-.562.563H7.955a.564.564,0,0,1-.562-.562h0A.564.564,0,0,1,7.955,20.25Zm-2.893,0h.482a.564.564,0,0,1,.563.563h0a.564.564,0,0,1-.562.563H5.063a.564.564,0,0,1-.563-.562h0A.564.564,0,0,1,5.063,20.25Z" transform="translate(0 -3.857)"/></g></svg>