<svg xmlns="http://www.w3.org/2000/svg" width="236.617" height="42" viewBox="0 0 236.617 42"><defs><style>.a{fill:#f7961d;}.b{fill:#fff;}.c{fill:#f89521;}</style></defs><g transform="translate(-144.417 -467.14)"><path class="a" d="M402.072,587.563H382.7c-.574,0-.908-.433-.908-1.3v-4.854c0-.7.242-1.156.67-1.271H402.31c.428.116.67.568.67,1.271v4.854Q402.98,587.563,402.072,587.563Z" transform="translate(-166.38 -79.203)"/><g transform="translate(144.417 467.14)"><g transform="translate(47.012 0)"><path class="b" d="M307.767,503.5a1.186,1.186,0,0,1,1.3,1.3V515.64a1.187,1.187,0,0,0,1.3,1.3h4.162a1.167,1.167,0,0,0,1.3-1.3V504.8a1.186,1.186,0,0,1,1.3-1.3h4.855a1.149,1.149,0,0,1,1.3,1.3v27.744a1.167,1.167,0,0,1-1.3,1.3H317.13a1.186,1.186,0,0,1-1.3-1.3V525.7a1.15,1.15,0,0,0-1.3-1.3h-4.162a1.168,1.168,0,0,0-1.3,1.3v6.849a1.167,1.167,0,0,1-1.3,1.3h-4.855a1.186,1.186,0,0,1-1.3-1.3V504.8a1.149,1.149,0,0,1,1.3-1.3Z" transform="translate(-301.611 -492.627)"/><path class="c" d="M402.865,496.791c0,.954-.433,1.474-1.3,1.474H396.71a1.167,1.167,0,0,1-1.3-1.3v-3.771a1.15,1.15,0,0,0-1.3-1.3h-3.728a1.167,1.167,0,0,0-1.3,1.3v3.771a1.15,1.15,0,0,1-1.3,1.3h-4.855c-.823,0-1.3-.52-1.3-1.474v-18.38c0-5.462.867-11.271,10.621-11.271s10.62,5.809,10.62,11.271Zm-7.456-18.38c0-2.081-.3-3.121-3.164-3.121s-3.165,1.04-3.165,3.121v4.725a1.186,1.186,0,0,0,1.3,1.3h3.728a1.2,1.2,0,0,0,1.3-1.344Z" transform="translate(-357.694 -467.14)"/><path class="b" d="M467.619,503.5a1.149,1.149,0,0,1,1.3,1.3V521.8c0,3.338.216,5.375,3.425,5.375s3.424-2.038,3.424-5.375V504.8a1.167,1.167,0,0,1,1.3-1.3h4.855a1.15,1.15,0,0,1,1.3,1.3v19.291c0,2.861-.607,10.534-10.881,10.534s-10.881-7.673-10.881-10.534V504.8a1.167,1.167,0,0,1,1.3-1.3Z" transform="translate(-413.656 -492.627)"/><path class="b" d="M553.146,503.5a1.149,1.149,0,0,1,1.3,1.3V525.09a1.187,1.187,0,0,0,1.3,1.3h9.667a1.149,1.149,0,0,1,1.3,1.3v4.855a1.15,1.15,0,0,1-1.3,1.3H548.291a1.186,1.186,0,0,1-1.3-1.3V504.8a1.167,1.167,0,0,1,1.3-1.3Z" transform="translate(-473.604 -492.627)"/><path class="b" d="M645.211,503.719a1.149,1.149,0,0,1,1.3,1.3v4.855a1.167,1.167,0,0,1-1.3,1.3H634.72a1.168,1.168,0,0,0-1.3,1.3v1.387a1.186,1.186,0,0,0,1.3,1.3h6.719a1.15,1.15,0,0,1,1.3,1.3v4.855a1.167,1.167,0,0,1-1.3,1.3H634.72a1.167,1.167,0,0,0-1.3,1.3v1.387a1.187,1.187,0,0,0,1.3,1.3h10.491a1.149,1.149,0,0,1,1.3,1.3v4.855a1.149,1.149,0,0,1-1.3,1.3H627a1.186,1.186,0,0,1-1.3-1.3V505.02a1.167,1.167,0,0,1,1.3-1.3Z" transform="translate(-528.776 -492.779)"/><path class="b" d="M725.508,530.761c0,.954-.433,1.474-1.3,1.474h-4.855a1.167,1.167,0,0,1-1.3-1.3v-3.772a1.149,1.149,0,0,0-1.3-1.3h-3.729a1.167,1.167,0,0,0-1.3,1.3v3.772a1.149,1.149,0,0,1-1.3,1.3h-4.855c-.824,0-1.3-.52-1.3-1.474v-18.38c0-5.462.867-11.271,10.621-11.271s10.62,5.809,10.62,11.271Zm-7.456-18.38c0-2.081-.3-3.121-3.165-3.121s-3.165,1.04-3.165,3.121v4.725a1.186,1.186,0,0,0,1.3,1.3h3.729a1.2,1.2,0,0,0,1.3-1.344Z" transform="translate(-583.843 -490.95)"/><path class="b" d="M796.081,512.844c-.867.173-1.3-.217-1.43-1.083a3.52,3.52,0,0,0-3.772-2.9c-1.69,0-2.731,1-2.557,1.994.607,3.381,14.306,3.295,14.306,13.265,0,1.3-1.474,8.973-11.748,8.973-9.1,0-11.054-5.982-11.271-9.364a1.274,1.274,0,0,1,1.127-1.43l4.9-1.084c.867-.173,1.344.217,1.431,1.127a3.555,3.555,0,0,0,3.814,3.295c2.124,0,3.685-1.257,3.425-2.428-.824-3.685-13.872-2.861-13.872-12.831-.044-1.3.737-8.973,10.447-8.973,8.93,0,11.011,5.809,11.271,8.93a1.274,1.274,0,0,1-1.127,1.431Z" transform="translate(-636.65 -491.154)"/><path class="b" d="M860.263,503.719a1.412,1.412,0,0,1,1.474,1l3.208,8.063c.173.39.433.39.607,0l3.208-8.063a1.412,1.412,0,0,1,1.474-1h6.2c1,0,1.431.607,1,1.517l-7.76,17.34a1.1,1.1,0,0,0-.086.52v9.667a1.167,1.167,0,0,1-1.3,1.3h-6.069a1.186,1.186,0,0,1-1.3-1.3V523.1a1.1,1.1,0,0,0-.087-.52l-7.8-17.34c-.433-.91,0-1.517,1-1.517Z" transform="translate(-687.994 -492.779)"/></g><g transform="translate(0 0)"><path class="c" d="M183.793,476.827c-2.505-2.278-10.441-9.35-12.775-9.671-2.473-.34-19.3,4.995-21.126,6.915s-5.763,9.027-4.322,9.411a22.5,22.5,0,0,0,4.8-.767c.639-.137-.13-1.861.575-2.017,2.088-.466,7.32-1.624,9.508-2.113.418-.094.266.662.244,1.215-.013.336.022.6.264.545a35.5,35.5,0,0,1,6.5-1.089c2.031.265,11.866,4.026,13.427,4.625a.328.328,0,0,1,.209.306v3.626a.119.119,0,0,1-.166.111c-.964-.406-5.923-2.358-8.861-.888-3.265,1.632-2.786,3.841-4.418,3.937-1.439.084-18.395,2.035-22.4,2.5a.951.951,0,0,0-.842.946v8.245a.213.213,0,0,0,.221.212l29.336-1.131a.369.369,0,0,1,.374.29l.361,1.666a.2.2,0,0,1-.194.245l-29.854.378a.224.224,0,0,0-.218.263c.061.357.233,1.162.933,1.181,3.811.107,31.787-.1,31.787-.1a15.6,15.6,0,0,1-.111-9.563c.884-2.753,2.8-5.993,7.5-3.688V478.556A2.334,2.334,0,0,0,183.793,476.827Zm-36.136,24.618a1.921,1.921,0,1,1,1.921-1.922A1.923,1.923,0,0,1,147.657,501.445Zm17.5-.774a2.209,2.209,0,1,1,2.209-2.209A2.209,2.209,0,0,1,165.159,500.671Z" transform="translate(-144.417 -467.14)"/><path class="c" d="M247.048,564.025c0,3.951-1.712,7.156-3.821,7.156,0,0-8.279.161-9.335,0s-1.963-1.78-1.963-1.78l8.7-.136h0a10.764,10.764,0,0,1-1.223-5.239c0-3.953,1.71-7.158,3.819-7.158S247.048,560.071,247.048,564.025Z" transform="translate(-205.756 -530.032)"/><path class="c" d="M178.67,598.7a7.371,7.371,0,0,1-1.219,1.29,1.758,1.758,0,0,1-1.052.415c-.781.038-2.247.1-3.563.1a14.352,14.352,0,0,1-2.31-.128,2.766,2.766,0,0,1-1.738-1.676Z" transform="translate(-161.499 -559.352)"/></g></g></g></svg>