<svg xmlns="http://www.w3.org/2000/svg" width="15.58" height="17.79" viewBox="0 0 15.58 17.79"><defs><style>.a{fill:#f89521;}.b{fill:#008bcc;}</style></defs><g transform="translate(998.84 -3704.29)"><path class="a" d="M-983.373,3709.186a1.316,1.316,0,0,0-.074-.13l-2.369-4.1a1.346,1.346,0,0,0-1.152-.669h-8.166a1.346,1.346,0,0,0-1.152.669l-2.406,4.18a.656.656,0,0,0-.074.177,1.074,1.074,0,0,0-.074.418v10.8a1.538,1.538,0,0,0,1.542,1.542H-984.8a1.538,1.538,0,0,0,1.542-1.542v-10.86A.915.915,0,0,0-983.373,3709.186Zm-1.626,1.078v10.079h-12.1v-10.079Zm-6.9-4.227v2.48h-4.422l1.431-2.48Zm1.737,2.48v-2.48h2.954l1.44,2.48Z"/><g transform="translate(-993.865 3713.185)"><path class="b" d="M-988,3714.038a.59.59,0,0,0-.834,0l-2.634,2.634-1.013-1.013a.59.59,0,0,0-.834,0,.59.59,0,0,0,0,.834l1.431,1.429a.587.587,0,0,0,.417.173.589.589,0,0,0,.417-.173l3.051-3.051A.59.59,0,0,0-988,3714.038Z" transform="translate(993.484 -3713.865)"/></g></g></svg>