<svg xmlns="http://www.w3.org/2000/svg" width="25.2" height="15.12" viewBox="0 0 25.2 15.12"><defs><style>.a{fill:#ff5f00;}.b{fill:#eb001b;}.c{fill:#f79e1b;}</style></defs><g transform="translate(0)"><path class="a" d="M465.406,86.567h-6.814V98.453h6.814Z" transform="translate(-449.399 -84.95)"/><path class="b" d="M453.626,91.56a7.5,7.5,0,0,1,2.964-5.943,7.888,7.888,0,0,0-4.8-1.617,7.563,7.563,0,1,0,0,15.12,7.888,7.888,0,0,0,4.8-1.617A7.47,7.47,0,0,1,453.626,91.56Z" transform="translate(-444 -84)"/><path class="c" d="M476.606,91.56a7.671,7.671,0,0,1-7.787,7.56,7.888,7.888,0,0,1-4.8-1.617,7.441,7.441,0,0,0,0-11.886A7.888,7.888,0,0,1,468.82,84,7.685,7.685,0,0,1,476.606,91.56Z" transform="translate(-451.406 -84)"/></g></svg>