<svg xmlns="http://www.w3.org/2000/svg" width="28.139" height="28.568" viewBox="0 0 28.139 28.568"><defs><style>.a{fill:none;stroke:#f89521;stroke-linecap:round;stroke-linejoin:round;stroke-width:2px;}.b{fill:#008bcc;}</style></defs><g transform="translate(-1200.121 -35.299)"><g transform="translate(1201.121 36.472)"><path class="a" d="M-429.733,3657.206a2.932,2.932,0,0,1,2.933-2.933,2.933,2.933,0,0,1,2.933,2.933A10.266,10.266,0,0,1-418,3666v4.4a5.865,5.865,0,0,0,2.933,4.4h-23.463a5.865,5.865,0,0,0,2.933-4.4V3666a10.265,10.265,0,0,1,5.866-8.8" transform="translate(438.532 -3654.273)"/><path class="a" d="M-425.2,3691.606v1.466a4.4,4.4,0,0,0,4.4,4.4,4.4,4.4,0,0,0,4.4-4.4v-1.466" transform="translate(432.531 -3671.076)"/></g><circle class="b" cx="7" cy="7" r="7" transform="translate(1214.261 35.299)"/></g></svg>