<svg xmlns="http://www.w3.org/2000/svg" xmlns:xlink="http://www.w3.org/1999/xlink" width="74.962" height="70" viewBox="0 0 74.962 70"><defs><style>.a,.b{fill:#008bcc;}.a,.f{opacity:0.1;}.b{stroke:#fff;stroke-width:2px;}.c{fill:#fff;}.d{fill:none;stroke:#f89521;stroke-linecap:round;stroke-width:5px;}.e{opacity:0.2;}.e,.f{fill:url(#a);}</style><linearGradient id="a" x1="0.5" x2="0.5" y2="1" gradientUnits="objectBoundingBox"><stop offset="0" stop-color="#fff"/><stop offset="1" stop-color="#fff" stop-opacity="0"/></linearGradient></defs><g transform="translate(-137.038 -3138)"><circle class="a" cx="35" cy="35" r="35" transform="translate(142 3138)"/><g transform="translate(-640 2983.205)"><path class="b" d="M20.822,39.382H14.5A14.5,14.5,0,0,1,0,24.882V14.5A14.5,14.5,0,0,1,14.5,0H37A14.5,14.5,0,0,1,51.5,14.5V24.882A14.5,14.5,0,0,1,37,39.382H30.728l-4.953,4.953Z" transform="translate(791.5 167.5)"/><g transform="translate(809.642 178.226)"><path class="c" d="M17.059,14.863v.69a1.527,1.527,0,0,1-1.506,1.506H3.506A1.527,1.527,0,0,1,2,15.553v-.69c0-1.82,2.133-2.949,4.141-3.827l.188-.094a.5.5,0,0,1,.471.031,4.868,4.868,0,0,0,2.7.816,5.05,5.05,0,0,0,2.7-.816.5.5,0,0,1,.471-.031l.188.094C14.925,11.914,17.059,13.012,17.059,14.863ZM9.529,2a3.945,3.945,0,0,1,3.733,4.141,3.945,3.945,0,0,1-3.733,4.141A3.945,3.945,0,0,1,5.8,6.141,3.945,3.945,0,0,1,9.529,2Z" transform="translate(-2 -2)"/></g></g><path class="d" d="M246.154,3303.847H231.538" transform="translate(-92 -146)"/><path class="d" d="M238.846,3303.847h-7.308" transform="translate(-84.692 -138)"/><g transform="translate(-29)"><ellipse class="e" cx="18" cy="10.5" rx="18" ry="10.5" transform="translate(227.426 3180.928) rotate(-177)"/><ellipse class="f" cx="18" cy="10.5" rx="18" ry="10.5" transform="matrix(-0.695, 0.719, -0.719, -0.695, 223.057, 3165.846)"/></g></g></svg>