<svg xmlns="http://www.w3.org/2000/svg" xmlns:xlink="http://www.w3.org/1999/xlink" width="70" height="70" viewBox="0 0 70 70"><defs><style>.a,.b{fill:#008bcc;}.a,.f{opacity:0.1;}.b{stroke:#fff;stroke-width:2px;}.c{fill:#fff;}.d{fill:#f89521;}.e{opacity:0.2;}.e,.f{fill:url(#a);}</style><linearGradient id="a" x1="0.5" x2="0.5" y2="1" gradientUnits="objectBoundingBox"><stop offset="0" stop-color="#fff"/><stop offset="1" stop-color="#fff" stop-opacity="0"/></linearGradient></defs><g transform="translate(-540 -3138)"><circle class="a" cx="35" cy="35" r="35" transform="translate(540 3138)"/><g transform="translate(-71)"><g transform="translate(-171 2983.205)"><path class="b" d="M20.822,39.382H14.5A14.5,14.5,0,0,1,0,24.882V14.5A14.5,14.5,0,0,1,14.5,0H37A14.5,14.5,0,0,1,51.5,14.5V24.882A14.5,14.5,0,0,1,37,39.382H30.728l-4.953,4.953Z" transform="translate(791.5 167.5)"/><g transform="translate(1157.749 1075.805)"><path class="c" d="M-331.749-888.01a9,9,0,0,1-9,9,9,9,0,0,1-9-9,9,9,0,0,1,8.09-8.95v1.81a7.244,7.244,0,0,0-4.18,2.07,7.194,7.194,0,0,0,.03,10.19,7.191,7.191,0,0,0,10.18-.03,7.194,7.194,0,0,0-.03-10.19l1.27-1.26h.01A8.992,8.992,0,0,1-331.749-888.01Z"/><path class="d" d="M-339.839-882.68a5.4,5.4,0,0,1-6.23-4.42,5.421,5.421,0,0,1,4.41-6.23h.02v-1.82h-.02v-1.81c.3-.03.61-.05.92-.05h.87v7.47a1.77,1.77,0,0,1,.9,1.54,1.808,1.808,0,0,1-.52,1.27,1.961,1.961,0,0,1-.57.38,1.823,1.823,0,0,1-.7.14,1.724,1.724,0,0,1-.68-.14,1.872,1.872,0,0,1-.31-.17c-.01.01-.01.01-.01,0a1.692,1.692,0,0,1-.32-.28,3.125,3.125,0,0,1-.25-.35s.01,0,0-.01a1.843,1.843,0,0,1-.21-.85v-.03a1.107,1.107,0,0,1,.04-.36,1.121,1.121,0,0,1,.08-.26c.01-.02.01-.04.02-.05a1.954,1.954,0,0,1,.35-.53.078.078,0,0,0,.04-.04,2.442,2.442,0,0,1,.25-.2.313.313,0,0,1,.1-.05v-.02c.01,0,.01-.01.02-.01v-1.92c-.01,0-.01,0-.02.01a3.607,3.607,0,0,0-1.64.94,3.612,3.612,0,0,0,.02,5.1,3.615,3.615,0,0,0,5.11-.03,3.6,3.6,0,0,0-.03-5.1l1.27-1.27a5.393,5.393,0,0,1,1.51,2.92A5.4,5.4,0,0,1-339.839-882.68Z"/></g></g></g><g transform="translate(368 -10)"><ellipse class="e" cx="18" cy="10.5" rx="18" ry="10.5" transform="translate(227.426 3180.928) rotate(-177)"/><ellipse class="f" cx="18" cy="10.5" rx="18" ry="10.5" transform="matrix(-0.695, 0.719, -0.719, -0.695, 223.057, 3165.846)"/></g></g></svg>