<svg xmlns="http://www.w3.org/2000/svg" width="14.604" height="18.181" viewBox="0 0 14.604 18.181"><defs><style>.a{fill:#f89521;}.b{fill:#008bcc;}</style></defs><g transform="translate(-48 -204.987)"><path class="a" d="M-528.673,1173.861a1.041,1.041,0,0,1-.607-.194l-5.653-4.038-5.653,4.038a1.043,1.043,0,0,1-1.084.079,1.043,1.043,0,0,1-.566-.927v-14.307a2.834,2.834,0,0,1,2.831-2.831h8.942a2.834,2.834,0,0,1,2.831,2.831v14.307a1.043,1.043,0,0,1-.566.927A1.043,1.043,0,0,1-528.673,1173.861Zm-6.259-6.557a1.042,1.042,0,0,1,.606.194l4.61,3.293v-12.279a.746.746,0,0,0-.745-.745H-539.4a.746.746,0,0,0-.745.745v12.279l4.61-3.293A1.044,1.044,0,0,1-534.933,1167.3Z" transform="translate(590.235 -950.694)"/><circle class="b" cx="2.5" cy="2.5" r="2.5" transform="translate(53 209)"/></g></svg>