<svg width="19" height="19" viewBox="0 0 19 19" fill="none" xmlns="http://www.w3.org/2000/svg">
<g clip-path="url(#clip0)">
<path d="M9.5 0C4.26168 0 0 4.26168 0 9.5C0 14.7383 4.26168 19 9.5 19C14.7383 19 19 14.7383 19 9.5C19 4.26168 14.7383 0 9.5 0ZM9.5 17.8867C4.87554 17.8867 1.11328 14.1245 1.11328 9.5C1.11328 4.87554 4.87554 1.11328 9.5 1.11328C14.1245 1.11328 17.8867 4.87554 17.8867 9.5C17.8867 14.1245 14.1245 17.8867 9.5 17.8867Z" fill="#F89521"/>
<path d="M9.49999 3.21924C6.0368 3.21924 3.21927 6.03677 3.21927 9.49996C3.21927 12.9632 6.0368 15.7807 9.49999 15.7807C12.9632 15.7807 15.7807 12.9632 15.7807 9.49996C15.7807 6.03677 12.9632 3.21924 9.49999 3.21924ZM9.49999 14.6674C6.65066 14.6674 4.33255 12.3493 4.33255 9.49996C4.33255 6.65063 6.65066 4.33252 9.49999 4.33252C12.3493 4.33252 14.6674 6.65063 14.6674 9.49996C14.6674 12.3493 12.3493 14.6674 9.49999 14.6674Z" fill="#008BCC"/>
<path d="M9.49999 6.4729C7.83081 6.4729 6.4729 7.83085 6.4729 9.49999C6.4729 11.1691 7.83081 12.5271 9.49999 12.5271C11.1692 12.5271 12.5271 11.1691 12.5271 9.49999C12.5271 7.83085 11.1691 6.4729 9.49999 6.4729ZM9.49999 11.4138C8.44467 11.4138 7.58618 10.5553 7.58618 9.49999C7.58618 8.44471 8.44471 7.58618 9.49999 7.58618C10.5553 7.58618 11.4138 8.44471 11.4138 9.49999C11.4138 10.5553 10.5553 11.4138 9.49999 11.4138Z" fill="#008BCC"/>
</g>
<defs>
<clipPath id="clip0">
<rect width="19" height="19" fill="white"/>
</clipPath>
</defs>
</svg>
