<svg width="40" height="39" viewBox="0 0 40 39" fill="none" xmlns="http://www.w3.org/2000/svg">
<path d="M20 0C8.95546 0 0 8.73003 0 19.4995C0 30.269 8.95458 38.999 20 38.999C31.0463 38.999 40 30.269 40 19.4995C40 8.73003 31.0463 0 20 0ZM20 5.83058C23.6546 5.83058 26.616 8.71889 26.616 12.2805C26.616 15.8429 23.6546 18.7303 20 18.7303C16.3472 18.7303 13.3858 15.8429 13.3858 12.2805C13.3858 8.71889 16.3472 5.83058 20 5.83058ZM19.9956 33.9008C16.3507 33.9008 13.0124 32.6065 10.4375 30.4643C9.81024 29.9427 9.4483 29.1777 9.4483 28.3752C9.4483 24.7631 12.4466 21.8722 16.1522 21.8722H23.8496C27.556 21.8722 30.5429 24.7631 30.5429 28.3752C30.5429 29.1786 30.1827 29.9418 29.5546 30.4634C26.9806 32.6065 23.6414 33.9008 19.9956 33.9008Z" fill="#008BCC"/>
</svg>
