<svg xmlns="http://www.w3.org/2000/svg" width="70" height="70" viewBox="0 0 70 70"><defs><style>.a,.b{fill:#008bcc;}.a{opacity:0.1;}.b{stroke:#fff;stroke-width:2px;}.c{fill:#fff;}.d{fill:#f89521;}</style></defs><g transform="translate(-540 -3443)"><circle class="a" cx="35" cy="35" r="35" transform="translate(540 3443)"/><path class="b" d="M14.5,0H37A14.5,14.5,0,0,1,51.5,14.5V24.882A14.5,14.5,0,0,1,37,39.382H14.5A14.5,14.5,0,0,1,0,24.882V14.5A14.5,14.5,0,0,1,14.5,0Z" transform="translate(549.5 3458.705)"/><path class="c" d="M15.148,24a.389.389,0,0,1-.329-.213l-3.416-6.8A8.947,8.947,0,0,0,17.548,13.6l3.415,7.136a.388.388,0,0,1-.4.551l-3.256-.36L15.5,23.818a.389.389,0,0,1-.329.183ZM5.5,23.818l-1.814-2.89-3.257.36a.387.387,0,0,1-.394-.551L3.452,13.6A8.949,8.949,0,0,0,9.6,16.987l-3.416,6.8A.389.389,0,0,1,5.852,24H5.833A.39.39,0,0,1,5.5,23.818ZM2.333,8.129A8.167,8.167,0,1,1,10.5,16.258,8.158,8.158,0,0,1,2.333,8.129Z" transform="translate(565 3466)"/><g transform="translate(571.769 3469.389)"><path class="d" d="M13.144,3.235h-1.8V2.206A2.058,2.058,0,0,0,9.955.226.5.5,0,0,0,9.492.3a.5.5,0,0,0-.206.412V2.129L8,3.775V7.762l.489.257a3.687,3.687,0,0,0,1.569.36H12.63a1.183,1.183,0,0,0,1.157-1l.386-3.086V4.264A1.032,1.032,0,0,0,13.144,3.235Z" transform="translate(-5.942 -0.2)"/><path class="d" d="M1.286,13H.257A.243.243,0,0,0,0,13.257V17.63a.243.243,0,0,0,.257.257H1.286a.243.243,0,0,0,.257-.257V13.257A.243.243,0,0,0,1.286,13Z" transform="translate(0 -9.708)"/></g></g></svg>