<svg xmlns="http://www.w3.org/2000/svg" width="18.181" height="18.181" viewBox="0 0 18.181 18.181"><defs><style>.a{fill:#f89521;}.b{fill:#008bcc;}</style></defs><path class="a" d="M-600.605,1167.3h-4.225a2.115,2.115,0,0,1-2.112-2.112v-4.225a2.115,2.115,0,0,1,2.112-2.112h4.225a2.115,2.115,0,0,1,2.112,2.112v4.225A2.115,2.115,0,0,1-600.605,1167.3Zm0-6.338h-4.226v4.225h4.225Z" transform="translate(606.943 -1158.854)"/><path class="b" d="M-573.938,1167.3h-4.225a2.115,2.115,0,0,1-2.112-2.112v-4.225a2.115,2.115,0,0,1,2.112-2.112h4.225a2.114,2.114,0,0,1,2.112,2.112v4.225A2.115,2.115,0,0,1-573.938,1167.3Zm0-6.338h-4.226v4.225h4.225Z" transform="translate(590.007 -1158.854)"/><path class="a" d="M-600.605,1193.971h-4.225a2.115,2.115,0,0,1-2.112-2.112v-4.225a2.115,2.115,0,0,1,2.112-2.112h4.225a2.115,2.115,0,0,1,2.112,2.112v4.225A2.115,2.115,0,0,1-600.605,1193.971Zm0-6.338h-4.226v4.225h4.225Z" transform="translate(606.943 -1175.79)"/><path class="a" d="M-573.938,1193.971h-4.225a2.115,2.115,0,0,1-2.112-2.112v-4.225a2.115,2.115,0,0,1,2.112-2.112h4.225a2.115,2.115,0,0,1,2.112,2.112v4.225A2.115,2.115,0,0,1-573.938,1193.971Zm0-6.338h-4.226v4.225h4.225Z" transform="translate(590.007 -1175.79)"/></svg>